<?xml version="1.0" encoding="UTF-8"?>
<svg id="Layer_1" data-name="Layer 1" xmlns="http://www.w3.org/2000/svg" version="1.1" xmlns:xlink="http://www.w3.org/1999/xlink" viewBox="0 0 1920 1080">
  <defs>
    <style>
      .cls-1 {
        fill: #0de809;
      }

      .cls-1, .cls-2, .cls-3, .cls-4 {
        stroke-width: 0px;
      }

      .cls-2 {
        fill: #03c200;
      }

      .cls-3 {
        fill: #9b9b9b;
      }

      .cls-4 {
        fill: #196917;
      }

      .cls-5 {
        filter: url(#grayscale);
      }
    </style>
    <filter id="grayscale">
      <feColorMatrix type="saturate" values="0"/>
    </filter>
  </defs>
  <g class="cls-5">
    <path class="cls-4" d="M979.8,179.2l-9.7-.6c5.8.5,9.9.8,13.2,1.1-1.1-.2-2.3-.4-3.5-.5Z"/>
    <path class="cls-4" d="M1005.4,183h0c-.5-.1-.8-.1-1.3-.2-9.5-1.8-13.2-2.4-20.6-3.2,7.3,1,15.9,2.3,22.5,3.5-.1,0-.4,0-.6-.1Z"/>
    <path class="cls-4" d="M1168.5,325.2l-.7-2.2c-.1-.2-.2-.5-.2-.7h0c.4,1,.6,1.9,1,2.9Z"/>
    <path class="cls-4" d="M1108.7,235.4l-.7-.6c-.4-.4-.8-.7-1.3-1.1.7.6,1.3,1.1,2.1,1.7-.1,0,0,0,0,0Z"/>
    <path class="cls-4" d="M1098,230.5c.4-1.2-4.5-5.6-7.5-8-6.1-4.8-13.8-9.7-16.6-10.4-.1,0-.4,0-.5.1.2,1.6,22.2,19.4,24.6,18.3Z"/>
    <path class="cls-4" d="M1041,196.6c-.1-.8-3.5-2.7-7.3-4.2h0c3.5.2,6.3.8,8.5,1.7l-6.8-2.5c-2.1-.7-4.6-1.2-7.6-1.5.1,0,.2.1.4.1-6.1-2.2-12-3.8-14.2-3.9h-.4c1.1,1.3,26.3,11.6,27.4,10.3ZM1033.2,192.2c.1,0,.1.1.2.1h0s-.1-.1-.2-.1Z"/>
    <path class="cls-4" d="M859.4,209.1c.7,2.2,6.2-1,8.6-5.5,5.3-2.2,10.9-4.4,16.5-6.5.6-.2.8-.7.7-1.1,0,0-1.3-3.6-1.7-4.2l-1,.4q-.1,1.1.5,4c-4.8,1.8-9.7,3.8-14.3,5.7h0c.2-1,.2-1.9-1.1-1.6h.1c1.7-1.9,3.5-3.4,5.7-4.4l-1,.5c-2.3,1-4.4,2.5-6.2,4.6h0c-1.9,1.1-4.4,3-5.7,4.8.1-.2.2-.4.5-.6-13.5,6.1-28.6,13.3-39.7,21.9l-6.5,5.5c4-3.3,14.5-11.9,44.7-25.2-.2.6-.4,1.2-.1,1.7Z"/>
    <path class="cls-4" d="M1154,392.7h0Z"/>
    <path class="cls-4" d="M850,529.7c-.1-.1-.1-.2-.2-.4-14.4,9.2-25.1,17.8-30.5,25.1-5.1,6.7-5.3,11.6-1.3,14.9l5.6,4.5c-4.1-3.2-4-8.1,1.1-14.9,5.3-7.2,15.8-15.5,29.9-24.6-.7-.5-2.5-2.2-4.5-4.6Z"/>
    <path class="cls-4" d="M1121.5,375.9c-4.4,1.1-6.3,7.2-6.2,13.7-8.7,1.5-18.3,3.4-28.5,5.7-12-13.1-30.4-31.1-33.1-30.8-11.1,2.9-22.8,6.3-34.9,10.1.1.2.1.4.2.6-2.9-6.2-8.8-10.9-15.9-9.1-11.9,4.7-9.2,24,1.6,30.1,9.3,5.3,17.9-3,16.4-14.5,11.8-3.6,23-6.8,33.7-9.7,6.2,5.5,14.4,12.6,20,18.7q11.3,12.1,12.4,12.1c10.4-2.4,20.1-4.4,29-6.3.8,4.1,2.4,8,4.7,10.1,5.1,4.8,10.7-2.5,10.3-13.8-.5-8.2-4.2-17-9.7-16.7Z"/>
    <path class="cls-4" d="M1153,353.6c3.4,1.9,5-4,3.4-12.4,0,.2.1.4.1.6,11.6,1,18.4,4.1,19.6,9.5l-1.8-7.3v-.4c-.1,0-2.8-9.3-2.8-9.3l-1.2-3.6c1.3,4,2.5,8,3.5,12.1-2.1-4.5-8.7-7.2-19.1-8,.1.2.1.4.2.6-2.2-6.5-5.7-12.7-8.8-13.2-.1,0-.4,0-.5.1-5.6,1.5.6,27.6,7.4,31.3Z"/>
    <path class="cls-4" d="M1171.3,465.2c-.1.6-.2,1.3-.5,2.1l2.1-6.9c.2-.8.4-1.6.4-2.3h0c-.4.6-1.8,5.8-1.9,6.7v.5Z"/>
    <path class="cls-4" d="M1181.5,397.1h0v-.6c-.1-7.4-10.1-11-27.6-10.9,0,.5.1.8.1,1.2-.5-7.4-3.2-14.8-7.2-15-1.5.2-2.5,1.5-3.4,3.2-14.5-25.1-22.7-36.4-48.6-62-.6-.5-.7-.6-1.3-.7-5.1.8-10.1,1.8-15.1,2.8-3.9-10.1-8.2-19.5-12.8-28.6,28.7-5.9,51.5-8.4,66.4-7,.1,0,.2-.1.2-.2v-.6c-6.5-25.1-17.5-36.2-27-46.1h-.1c.5.4,1.1.7,1.6,1.2-5.7-4.8-15.1-12.5-21.5-16.7,4.7,3.5,10.5,8,15.9,12.2,14.5,14.7,20,22.4,26.9,44.1-14.8-1.2-37.2,1.2-65.6,7-3.2-5.9-6.5-11.6-10.2-17.2-.1-.2-.2-.4-.5-.5h.1c3.5-2.1,2.9-6.5.6-10.8,0,.1.1.1.1.2,8.7-1.7,16.8-3,24.2-3.9.5-.1.6-.2.5-.8-2.5-12.5-3.5-14.7-8.4-25.2,6.1-.4,11.3-.2,15.6.2-1.9-1.5-3.5-2.7-5.2-4.1-4.5-.5-9.8-.5-15.9-.1-.1,0-.1.1-.2.1,0,.1,0,.4.1.5,5.2,10.1,5.8,12.5,8.6,24.5-7.2,1-14.9,2.2-23.3,3.8.1.1.2.4.4.5-4.1-4.5-10.2-8.1-15.4-7.4-.6.2-1.5.5-2.2,1-5.5,4.7,4.4,20.4,16.1,22.2-.1-.4-.2-.7-.2-1.2s.4-1,.8-1.1c-.5.2-1.5.8-.2,3.2,3.4,5.5,6.7,11.1,9.8,17.1-5.1,1.1-10.3,2.3-15.6,3.5.1.2.2.4.4.6-3.5-5.3-9.7-9.7-15.8-8.5-.5.1-1,.4-1.5.5-1.3.7-2.4,1.7-3,2.9-18.3-10.5-21.2-12.1-39.7-21.3-1-.4-1.2-.4-2.1-.2-4,1.2-8.1,2.4-12.2,3.8-6.7,2.1-13.5,4.2-20.1,6.4.2.4.5.6.7,1-3.4-5-9.6-7.5-14.9-5.8.7-.2,1.6-.4,2.4-.5-2.3-5-4.5-9.6-6.7-14.1,8.6-2.9,17.3-5.8,26.1-8.5,19.1-5.9,36.8-10.8,52.8-14.4.2-.1.5-.4.6-.5-.8-12.6-.8-12.8-2.9-19.3,29.1-5.7,49.7-6.4,58-1.9l-6.4-3.3c-8.5-4.1-28.5-3.4-56.7,2.2-.1.1-.4.4-.5.5,2.7,10.1,2.8,10.7,3.2,18.3-15.4,3.6-32.5,8.2-50.9,13.9-8.5,2.7-17.1,5.5-25.4,8.4-4.5-9.2-8.8-17.3-13-24.2-.1,0-.1.1-.2.1,3.2-1.7,4.7-5.3,2.7-8.7-1.6-2.8-6.4-6.1-12-4.4-.4.1-1,.4-1.3.6-5.6,3.3-3.4,11.5,3.6,13.3,1.3.4,2.7.5,3.9.2,3.8,7.2,7.9,15.4,12.1,24.6-8.6,3-17.1,6.1-25.4,9.2-19.1-10.3-23.3-12.8-33.8-19.9.5-1.3.8-2.8.8-4.4.1-4.1-2.4-7.4-6.5-5.7.5-.2.8-.4,1.3-.4.4-4.4,1-8.2,1.7-11.6,10.3-4.2,25.9-10.8,49-18.2-.4-.2-1.1-.6-1.7-1.2,2.1,1.8,6.5,3.4,10.4,2.8h-.2c5.2,4.2,10.8,10.1,16.5,17.1h.1c-.2.1-.4.2-.6.4-5.8,4.4,0,14.1,9.2,15.4,8.1,1.2,12.8-4.7,8.6-10.8-1.3-1.9-3.4-3.5-5.7-4.6,0,0,.1,0,.1.1,1.5-10.1,1.7-11.4,1.1-17.5,15.4-4.1,29.1-7.2,40.7-9l8.2,1.9c5.2,3.5,19.8,9,23.1,8,2.1-.6-.6-3.3-5.9-5.7-6.1-2.9-14.4-5.1-18.1-4.8-.4.1-.7.1-.8.4-.1.2-.1.5.1.8l-9.7-2.2c-.6-.1-.7-.1-1.2-.1-11.5,1.7-25.1,4.7-40.4,8.8q-.6.2-.2,6.8c.1,3.4-.8,7.9-1.5,11.1.2,0,.5.1.6.1-1.6-.4-3.2-.4-4.6-.2.2,0,.4-.1.6-.1-5.9-6.9-11.8-12.6-17.3-16.7h0c2.1-1.1,2.1-3-.1-4.5,0,0,.1,0,.1.1,21-5.7,33.7-9.1,51.6-11.1,12.1,1.6,25.9,3.3,43.6,8.1-1-.4-2.1-.8-2.9-1.3-.1,0-18.5-5.5-44.7-7.5h-1c-12.6,1.2-29.3,4.7-49.2,10.7.1,0,.2.1.2.1-2.7-1-6.1-1.3-8.7-.8h.1c-5.7-2.4-11-3-15.9-1.6l-1,.2h-.4c4.5-1.2,9.5-.6,14.9,1.9h0c-.4.2-.7.5-1,.8-.5.8-.1,1.9.8,2.9q-.1-.1-.2-.2c-16.1,5.1-31.9,10.9-46.3,17.1.2-.6.4-1.2.6-1.8h-.1c-.7.6-1.3.8-1.9,1-.2.6-.5,1.2-.7,1.9-27.4,11.8-49.7,24.4-59,33.7l-5.2,5.6c11.3-11,32.6-23.3,63.4-36.6-1,3.5-1.7,7.5-2.2,11.9.1-.1.2-.1.2-.1-5.3,3.3-8.2,12.2-4.8,15.6s6.7,1,9.6-2.4h0c11,7.5,14.8,9.9,34.9,21.1.7.4,1,.4,1.8.1,8.8-3.4,17.8-6.7,26.9-9.8,2.1,4.5,4.2,9.2,6.4,14.2h0c-3.9,2.4-5.2,7-4.5,11.5-29.1,9.9-57.1,21.2-82.2,32.7-2.3-14.1-3.6-27.1-3.9-39.1-.2.2-.5.4-.7.5,3.4-2.3,6.5-7.4,6.8-13,.2-4.1-1.5-9.8-7-7.6-4.2,2.2-7.4,7.8-8.1,12.7,0-.4.1-.7.2-1.1-27.5,12.7-50.1,25.8-63.5,36.8,2.7-6.7,5.6-13.1,9-19.4,14.5-12,41.2-26.5,73.1-40.6,0-.6-.1-1.8.2-3.6-31.1,13.6-57.1,27.9-71,39.5h0c0,.1-.1.1-.1.1-.5.6-.7,1-1,1.3.6-.8.8-1.2,1-1.3h.1c-3.4,2.7-6.1,5.5-8,7.9-.5.6-.8,1.1-1.2,1.7l-3.8,6.3c.4-.7,1-1.5,1.6-2.3,1.8-2.4,4.4-5,7.6-7.8-3.4,6.3-6.4,12.7-9.2,19.5-3.6,3-6.4,5.9-8.5,8.6-1.2,1.6-2.1,3-2.7,4.4l-2.7,6.7c.8-1.5,2.1-3.4,2.8-4.8,2.1-2.8,5-5.7,8.7-8.8-6.4,17.6-10.2,36.5-11.3,56.1-4.5,3.8-8,7.4-10.4,10.7-1.3,1.8-2.3,3.4-3,5l-.4,6.3c0-.6.1-1.2.1-1.8q.7-12.8.6-13.3h0c.4-2.8.8-5.5,1.2-8.1,1.2-5.1,2.3-10.2,3.5-15.3,1.7-7,3.2-11.9,3.6-13.6l-1.5,4.7c-2.1,7.4-4.4,17.5-5.9,25.1h0v.2c-.5,2.7-1,5.5-1.3,8.2h0c-.1.8-.4,2.2-.4,2.8-.7,6.3-1.2,14.7-1.6,20.8-.1,4.1,0,6.4.2,6.7h0c.2,23.8,4.5,47.9,13.2,71.5,4.8,13.2,11,25.8,18.1,37.4-.5,2.3-.1,4.2.8,5.9l4,6.3c-1.3-3.5-2.7-6.8,3.4-14.7,2.1-2.7,4.7-5.6,8-8.6,2.7,3.5,5.7,6.2,8.5,6.5.5.1.8,0,1.2,0q-.1,0-.2.1c1.6,2.4,3.3,4.7,5,7-2.2,5.9,10.3,22.5,18.7,23.9,5.7.8,3.4-7-2.4-14.8-4.8-6.4-11.5-11.8-14.8-10.5.1-.1.4-.1.6-.1-1.7-2.3-3.4-4.7-5-7.2-.1.4-.4.6-.5.8,1.6-1.9.8-7.2-1.9-13.2,6.3-4.8,13.8-9.9,22.3-15.3,8.6,15,18.3,29.2,29.1,42.2-3.9,5.8,8.4,21.2,18.7,22.4,7.3.8,6.2-7,.2-14.4-4.7-5.8-12-10.8-16.6-9.7.1,0,.2-.1.4-.1-10.3-13.1-20-27.3-28.6-42.3,19.4-11.8,43.6-24.2,70.9-36.5,1.9,2.7,4.5,5,7.5,6.1,1.7.7,3.4,1,4.8.7,2.9,6.3,5.9,12.5,9.1,18.5-9,4-17.6,7.9-25.8,11.9-1.3,1-3.4,23.1,1.9,55.6h0c-1.9-.5-3.8-.5-5.3.2-.1.1-.4.2-.6.4-6.1,4.8,6.9,20.1,17.9,21.2.8.1,1.5,0,2.1,0h-.1c6.2,5.5,12.4,10.7,18.8,15.4-18.2,10.4-30.9,18.7-38.4,28-4.1,5.5-4,9.3-.2,11.8-11.8-4.2-23.1-9.5-33.9-15.6-4.5-2.9-4.6-7.5.2-13.9,6.4-8.6,21-19.1,40.7-30.5-.7-.6-2.7-2.1-4.6-4.2-.1-.1-.1-.2-.2-.4-20.2,11.6-35.1,22.5-41.8,31.3-5,6.7-4.8,11.4-.2,14.3l-4.1-2.7c1.3.8,2.8,1.8,4.1,2.7.1,0,.1.1.2.1l6.2,3.6,5,2.8c9.3,5.1,19.1,9.3,29.2,13,.6.4,1.2.6,2.1.8l6.9,2.3c-6.4-2.1-7.9-6.3-2.9-12.7,5.7-7.5,18.9-17,37-27,1.3.8,2.5,1.8,3.9,2.7h0c-1.5,2.3,2.8,6.3,8.2,9.3-1.1-.6-2.1-1.2-3.2-1.9-14.5,8.4-25.2,16.1-29.9,22.4-4.8,6.4-2.9,10.4,4.4,12l7.3,1.6c-7.6-1.5-9.7-5.2-5-11.6,4.5-5.9,14.7-13.5,28.5-21.3,4.4,2.1,9.1,3.4,12.2,2.9h-.1c16.6,8.6,33.4,14.3,49.9,16.6,2.1.2,2.5.2,2.9.1-.2-.2-.4-.2-2.2-.6-16.1-2.5-32.6-8.5-48.8-17.2h0q0,.1-.1.2c1-1.3-1.3-4.2-5-6.9,5.5-2.9,11.4-5.8,17.6-8.7,15.1,13.3,30.3,23.3,44.5,28.6,1.3.5,1.7.5,2.2.5q-.1-.5-1.2-1c-14.3-5.9-29.7-16.6-45-31.1-1.3-1.1-2.3-1.6-3.3-1.2-7,3.3-13.6,6.5-19.6,9.8h.1c-5-2.8-9.7-4.2-12.5-3.6q.1,0,.2-.1c-1.2-.8-2.5-1.8-3.8-2.7,15.1-8.2,33.4-17,53.4-25.2,1.8,2.2,4.2,4.1,6.9,5.1,1.2.5,2.3.6,3.3.5h-.1c11.3,19.4,21.8,34.7,30.8,44.2.7.7,1,.8,1.3.8s.1-.1.2-.1c0-.2-.1-.5-.6-1.1-8.2-9.8-18.2-25.3-29.1-45h-.1q-.1.2-.2.2c2.4-1.8,2.9-6.1,1.5-10.5,0,.1.1.2.1.4,15.9-6.2,32.6-12,49.2-17.2,11-3.4,21.5-6.3,31.1-8.8q.7-.5,1.2-1.1c.1-.1,12.2-21.3,23.1-41.6,4,5.5,10.1-1.9,11.9-11.4v.4c9.2-1.6,17.5-2.7,24.7-3.3-.5,4.6-.4,8.7.8,10.5.2.2.4.5.6.6h-.1c-.5,1.7-.8,3.4-1.3,5.1,0,0,.1,0,.1-.1-2.7,1.6-5.9,7.9-8.1,14.2.2-.7.5-1.6.8-2.4,0-.1.1-.2.1-.4-4.4.4-9.1.8-14.3,1.7q-.6.4-9.2,13.9c-.1.1-9.9,15.8-24.2,36.4,0,.1.1.2.1.4-.4-1.2-1.1-1.8-2.2-1.7-3,1-5.9,5.6-7.9,10.4-8.1,1.9-16.8,4.4-26.3,7.3-8.4,2.7-16.8,5.5-25.1,8.5-.4.2-1,.6-.6,2.3,4,11.6,7.4,21.3,9.8,28.6.4,1,.6,1,1,1.1.2-.4.4-.6.1-1.5-1.8-7-4.5-16.1-7.8-26.9,7.4-2.7,14.9-5.2,22.4-7.5,8.8-2.8,17.2-5.1,24.7-6.9-.7,2.9-1,5.5-.6,6.7.1.5.4.7.7.8h-.1c-4.5,9.9-9.7,18.8-15.6,26.5-1,1.3-1,1.5-1.1,1.8.1,0,.5-.1,2.1-1.9,6.3-7.9,11.8-16.8,16.5-26.8h0c2.3-1.5,5.6-5.9,7.8-10.7,1.3-2.8,2.1-5.3,2.3-7.4v.2c15.4-21.7,19.3-27.5,32.2-47.6,4.8-.7,9.2-1.2,13.3-1.6-1.2,4.4-1.7,8.2-1,9.9.1.4.4.5.5.7-.1,0-.1-.1-.2-.1-13.3,32-33.2,60.2-58.8,81.4-1.3,1.1-1.6,1.3-2.2,1.8.6-.2.7-.2,2.8-1.9,26.1-21.2,46.4-49.4,60-81.4-.1.1-.2.1-.4.2,2.1-1,5.3-5.6,8-11.4-.1.1-.1.2-.2.5,7.6,0,13.3.8,16.6,2.8-2.3,5.2-4,9.7-3.6,10.8h0c-17.5,31.4-42.5,59.1-73.9,79.7-1.7,1.1-1.9,1.3-2.8,1.8q1-.5,2.9-1.7c31.5-20.5,56.7-48.1,74.3-79.7h-.1c1-.5,3.5-4.1,6.2-9.1-.1.1-.1.4-.2.5.6,1,1,1.9.8,3.2h0c0-.2.1-.5.2-.7-.1.4-.2.6-.2.7v.5c-.1,1.1-.5,2.4-1.2,3.8l3.2-6.4c.7-1.5,1.1-2.8,1.1-3.9h0c0-1.2-.2-2.2-.8-3.2-.1.4-.4.7-.5,1.1,3.4-7.4,5.2-13.6,4.5-14.5.1.1.1.4.1.6.5-1.3,1-2.7,1.5-4h-.1c1-.5,3.2-5.1,5.1-10.9-.1.2-.1.5-.2.8.7,1.1,1.1,2.3,1,3.6h0c.2-1.5,1.7-5.9,1.9-6.5,0-1.3-.4-2.5-1-3.6,0,.1,0,.2-.1.4,1.7-6.7,2.5-12.5,1.7-13.7h-.1c-.8-.1-2.8,4.7-4.6,10.5-4-2.2-10.7-3.3-19.8-3.3v.4c.8-6.4,0-11.4-2.3-12.1.1,0,.2.1.4.1.4-1.7.6-3.4.8-5.1,18.7-.7,29.2,2.7,29.1,10.1h0c.1-.6.2-1.3.4-2.2-.2,1.1-.4,1.9-.4,2.3v.6c0,.4-.1.6-.1,1l1.1-5.9.2-1.1c.1-.5.1-.8.1-1.3h0c.1-7.5-10.5-10.9-29.6-10.3.6-7,1-14.1,1-21.2-.7.5-1.3.5-2.1.4,2.9.8,5.5-4.1,6.1-11.4v.4c17.8-.1,27.6,3.5,27.5,11v-1.2,1.1-4.4h0v-.4c.4-1.5.4-2.1.4-2.7ZM1048.8,261c.4,0,.7,0,1.2.2-.4-.1-.7-.2-1.2-.2ZM780.4,275.1c-.1.2-.2.6-.7,1.3.2-.4.5-.8.7-1.3ZM778.9,276.6c-.1.2-.4.6-.6,1,.2-.4.4-.7.6-1ZM742.2,360.7c-.1.4-.1.6-.1.7.1-.4.1-.6.1-.7ZM954.9,586.4c-.1.1-.2.1-.5.2.2-.1.4-.1.5-.2ZM932.9,572.2c-.4.1-.7.2-1.1.4.2-.1.6-.2,1.1-.4ZM1128.9,500.2c.2.1.6,0,.8-.1-.4.2-.6.2-.8.1ZM860.6,304.3h0s-.1,0-.1-.1h.1ZM860.1,304c-.5-.1-1.1,0-1.6.2.6-.4,1.1-.4,1.6-.2ZM858.4,304.4c-.4.5-.7.8-1,1.5.1-.6.5-1.1,1-1.5ZM774.7,500.5h0c-2.1,2.8-3.4,5.2-4.1,7.4-7.2-11.8-13.2-24.2-18.1-37.6-8.7-23.6-13-47.7-13.3-71.5h0c.2-1.9.5-6.3,1.1-14.7.7-1.6,1.7-3.2,3-5,2.5-3.4,6.1-7,10.7-10.8-.6,26.8,4,54.8,14.3,82.6,3.4,9.1,7.2,17.8,11.5,26.3-1.5,3,.1,9,3,14.5-3.4,3-6.1,5.9-8.1,8.6ZM791.8,484.2c.1.1.2.4.2.5-3.8-5.8-8.6-10.3-11.3-8.7h.1c-3.5-8.8-7.3-17.6-10.7-26.7-10.3-27.9-14.9-55.9-14.4-82.5,6.5-5.3,14.9-11.1,24.6-17.2.8,25.7,6.2,53.2,16.5,81.1,4.8,13.2,10.7,26.1,17.2,38.3-8.5,5.3-16,10.4-22.3,15.3ZM780.4,346.4v-.4,1.8-1.5ZM782.7,342.4c.4.2.6,1,.7,2.2-.1-.6-.5-1.6-.7-2.2ZM817.3,467c-6.5-12.2-12.4-25-17.2-38.3-10.3-27.9-15.8-55.3-16.7-81,3.6-2.2,7.4-4.4,11.4-6.7-.1-.7-.5-2.9-.1-5.8v-.5c-4.5,2.5-8.8,5.1-13,7.5.4-.1.6-.1.8,0-.4.1-.7.1-1.1.2-.6,1-.8,1.5-1.1,2.9.2-1.8.8-2.5,1.1-2.9.1-.1.2-.1.2-.2-10.2,6.3-18.9,12.2-25.7,17.8,1-19.5,4.7-38.3,10.9-55.9,13.8-11.4,37.1-24.8,65.4-38.2.1,1.8.7,3.3,1.8,4.4,1.1,1.1,2.4,1.5,3.8,1.2.1,12,1.2,25.2,3.4,39.4-11.3,5.2-21.9,10.4-31.9,15.6.2.7.4,1.6.5,2.7-.8-6.2-4-10.8-8.5-8.6.5-.2,1.1-.5,1.7-.6v-7.2c2.9-2.8,5.6-8.4,6.2-14.7.5-5.2-.6-12.1-5.7-9.8-6.8,4.2-11,19.9-6.8,24.8.8,1.1,1.9,1.5,3,1.3,0,2.4-.1,4.7,0,7.2h.1c-6.3,5.6-7.8,21.7-1.7,26.3,1.2,1,2.5,1.2,3.9,1,2.2,21.8,7.9,45,16.6,68.6,4.8,13.2,10.5,26.2,16.8,38.4-6.4,4-12.6,7.5-18.3,10.9ZM839.4,454.5c-6.3-12.4-11.9-25.2-16.8-38.5-8.7-23.6-14.4-46.7-17.2-68.5h-.1c2.9-2.8,5.1-8.4,5.1-14.7,9.9-5.2,20.7-10.5,32.1-15.8,4.1,24,11.4,50.4,21.7,78.3,4.8,13.2,10.3,26.3,16,38.9-14.7,6.8-28.4,13.6-40.7,20.2ZM890.5,434.8c-.8-1.6-1.5-2.9-1.9-4.4-1.3.6-2.7,1.2-4,1.8-5.7-12.6-11-25.7-16-38.9-10.3-27.9-17.6-54.3-21.9-78.2,3.6-1.7,7.4-3.4,11.1-5,5,23.6,12.6,49.9,22.9,77.8,3.4,9.1,6.9,18.1,10.5,26.8.5-.4.8-.6,1.2-1-6.1,3.6-6.2,13.5-1.9,21ZM893.4,413.2c.7-.4,1.5-.5,2.4-.6-3.6-8.8-7.2-17.8-10.5-26.8-10.3-27.9-18.1-54-23.3-77.6,21.2-9.2,44-18.3,67.5-26.7,1.7,2.9,4.4,5.3,7.9,6.5,9.3,3.3,16.7-4.8,13.9-14.1,6.7-2.2,13.3-4.4,20.1-6.4,3.9-1.2,7.6-2.3,11.4-3.5,17.5,9,22.2,11.4,38.8,21.2,0-.4,0-.8.1-1.5-.7,7.2,4.8,17.1,13.2,20.1,8.5,3,13.7-4,10.8-13.1,5.5-1.3,10.7-2.5,15.8-3.6,4.6,9.1,8.8,18.5,12.7,28.6-21.5,4.6-45.9,11-72.7,19.4-10.3,3.2-20.7,6.5-30.9,10.1.2.4.4.7.5,1-3.2-6.2-9.5-10.9-16.6-8.8-10.5,4.5-9.2,19.6-1.2,27.3-5.7,19-7.8,26.1-12.7,43.9-10.7,4.1-21.1,8.5-31.3,12.7.2.4.5.8.6,1.2-3.9-7.5-10.9-11.6-16.5-9.3ZM1139.3,448.8c-7.4.6-15.9,1.7-25.2,3.4v.7c0-6.3-2.3-11.8-6.7-11.3-7.2,2.1-9.6,16.4-7.5,24.5,0-.2-.1-.4-.1-.6-8.1,15.3-11.4,21.6-22.4,41.3-9.8,2.5-20.5,5.5-31.8,9-17.3,5.3-34.7,11.5-51.1,17.9,0,0,0,.1.1.1-2.8-4.2-6.8-6.7-10.4-6.3h.2c-5.7-11.1-11.6-23.1-17.6-35.9h-.2c-.4.4-.8.6-1.2.8,1.6-.7,2.8-2.1,3.5-3.8,15.6,9.8,18.9,11.8,30.7,19.9.7.5,1,.4,1.7.4,13.7-5.1,27.8-9.8,41.8-14.2,6.7-2.1,13.1-4,19.4-5.7.6-.4.8-.5,1.3-1.2l4.6-9.7c5.7,4.4,12.2-4,12.6-14.2.2-6.7-2.5-15.4-9.6-14.1-8.8,3-9.7,18.7-5.2,25.8-.2-.4-.5-.8-.7-1.3-1.2,2.7-2.9,6.1-4.1,8.7-6.2,1.7-12.5,3.6-19.1,5.7-14.2,4.4-28.4,9.2-42.2,14.3-15.5-10.5-16.5-11.3-29.9-19.6,0-2.1-.4-4.4-1.2-6.8-2.1-5.6-8.4-13.5-16.6-10.9-10.3,5-5,22.3,5.7,26.8,1.7.7,3.3,1,4.7.8h-.1c6.2,12.6,12.2,24.6,18.3,35.6-2.5,2.2-2.7,6.5-1,10.7-20.7,8.6-39.9,17.6-55.6,26.2-6.3-4.8-12.4-10.1-18.4-15.5,1.6-2.4-.2-7.3-4.2-11.9-2.1-2.4-4.7-4.6-7.4-6.3,0,0,.1,0,.1.1-2.9-18.3-4-25.2-2.9-52.4,7.9-3.8,16.1-7.5,24.7-11.4,6.5,12.6,13.5,24.7,20.4,36.1-5.7,5.3.8,19.5,11.3,22.8,8.7,2.8,11.5-5.6,7.3-14.1-3.8-7.4-11.3-12-16.6-9.9.6-.2,1.2-.4,1.9-.5-6.8-11.5-13.5-23.6-20-36.4,26.8-11.6,56.1-22.9,86-33,16.4,12.2,18.1,13.5,27.5,21.3.4.1.8.4,1.1.5.8-.1,1-.1,1.1-.2,46.3-14.4,84.5-22.3,109.4-23.6-.2,1.7-.4,3.5-.6,5.2h0c-2.2,1.5-4.4,6.3-5.7,11.9ZM1148.2,454.8c0,.1-.1.2-.1.5,8.8,0,15.4,1,19.3,3.2-1.5,5.5-2.4,10.4-2.3,12.2-.5,1.3-1,2.7-1.5,4,.1-.1.2-.1.4-.1-.8,0-3.8,5.1-6.7,11.1-3.5-1.9-9.3-2.9-17.2-2.8,0,.1-.1.4-.1.5,1.9-6.5,1.8-11.8-.5-11.9.4,0,.6.1.8.4.5-1.7,1-3.4,1.3-5.1-.1.1-.2.1-.4.2,2.3-1.2,5.1-6.1,6.9-12.2ZM1147.4,403.5c0,7.2-.2,14.2-.8,21.2-25.2,1.3-64,9.3-110.9,23.9-16.1-13-16.4-13.2-27.9-21.6-.4-.1-.8-.4-1.3-.5-31.4,10.4-61.4,21.9-89,33.9-3-6.1-5.9-12.2-8.8-18.5,3-2.7,4.4-7.8,3.2-13.7,10.5-4.5,21.3-8.8,32.4-13.2.6-.4,1-.6,1.3-1.7,4.5-14.9,8.6-30.1,13.2-45h-.1c9.2,3.4,16.5-5.1,14.4-16,10.3-3.5,20.6-6.9,30.9-10.1,26.9-8.4,51.4-14.8,72.8-19.4,2.7,7,5,14.2,7.2,21.3.1-.1.2-.1.2-.1-7.3,4.2-5.3,22.8,3.8,29.4,7.4,5.3,13.8-2.7,11.8-14.5-1.7-9.3-8-16.6-13.7-15.6.6-.1,1.2-.1,2.1,0-2.1-7.2-4.5-14.3-7-21.3,4.8-1,9.5-1.9,13.9-2.7,23.1,23.8,32.2,34.7,47.1,61.2-1,7.9.7,18.7,4.4,22.3s.8.7,1.3.8c-.2-.1-.4-.2-.4-.2ZM1154,392.1c0-.5,0-1.1.1-1.7-.1.7-.1,1.2-.1,1.7ZM1154.1,390.2v-1.7,1.7Z"/>
    <path class="cls-4" d="M1078.6,586.6l2.1-1.3c-.8.6-1.7,1.1-2.5,1.6.1,0,.4-.1.5-.2Z"/>
    <path class="cls-1" d="M986.9,213.4c6.4,2.9,11.5,4,13.9,3.5h-.2c1.2.6,2.3,1.2,3.4,1.9,0,0,0-.1.1-.1-.7,1.8,2.2,5.2,6.2,8.2-.1-.1-.2-.2-.4-.2-9.2,5.6-20.2,11.5-32.4,17.5,1.7,1.3,3,2.7,4.2,4.2,12.6-6.2,24-12.2,33.6-18.1-.1,0-.2-.1-.2-.1,9,5.3,15.9,5.6,15.5,1.7-.7-6.5-18.5-15.4-24.7-14.2h.1c-1.2-.6-2.3-1.2-3.5-1.9h0c.1-.2,0-.6-.1-1.1-2.1-5.2-19.8-11.5-25.3-10.4-30.4-11.4-62-14.9-92-8.7h0c29.4-5.8,60.5-1.9,90.5,9.7,0-.1.1-.1.1-.2-.8,1.7,4.7,5.1,8.7,7.2-1.1-.6-1.9-1.1-2.7-1.5-7.4,4.5-16.2,9.3-26.1,14.1.1,0,.2.1.2.2,2.2,1.5,3.5,2.8,4,3.3,10.2-5,19.4-9.9,27.3-14.7-.2-.1-.2-.2-.4-.2Z"/>
    <path class="cls-1" d="M859.3,223.7c-.7,1.2-.7,1.6-.7,1.8h.1c5.1-1.1,10.7-2.7,16.7-4.5,4.8-1.5,9.7-3.2,14.5-4.8h0c1.9,4.8,5.7,5.7,7,3.2.1-.2.2-.5.2-.7h0c12.6,10.2,32.6,20.4,34.9,21.5.7.4,1,.2,1.3.2,5.5-2.3,10.7-4.6,15.8-6.9h-.1c4.1,3.3,8.4,4.7,11,4.5l3,3c.6-.7,1.5-1.2,2.8-1.3-1.1-1-2.1-2.1-3.2-3,.4-.5.6-1.2.6-2.1-.2-6.3-13-14.1-18.7-13.3h.1c-21-16.1-41.6-25.4-59.9-25.4h0c17.6.5,37.4,10.1,57.8,26.4.1-.1.2-.2.2-.2-1.6,1.6-.1,5,2.7,8.1-.1-.1-.1-.2-.2-.2-4.6,2.2-9.5,4.2-14.4,6.4-20-10.5-23.3-12.7-33.9-20.2.1.6.1,1.1.1,1.6.1-4.1-4-10.2-6.7-10.3-2.4-5.2-4.2-9.1-5.7-11.6h0c1.1,2.7,2.7,6.8,4.7,12,.1-.1.2-.2.5-.4-1.2.5-1.5,3.4-.8,6.2,0-.1,0-.2-.1-.4-4.2,1.6-8.6,3-13,4.4-5.1,1.6-9.9,2.9-14.3,4,6.5-10.5,14.2-19.3,23-25.8h.1c0-.1-.1,0-.1,0-9.9,7.2-18.4,16.6-25.6,28.1Z"/>
    <path class="cls-1" d="M827,240.6c-2.7.1-5,0-6.9-.2-.6.7-2.9,3-4.7,5,2.2.2,4.8.4,8,.1.4-.1,1.2-1,2.7-2.5,16.2-19.8,35.9-36,58.7-47.5h.1q0-.1-.1,0c-22.2,11.1-41.6,26.7-57.7,45.2Z"/>
    <path class="cls-1" d="M742.1,361.2c.5-2.3,1-4.7,1.6-7.3-.8,3.6-1.1,4.8-1.6,7.3Z"/>
    <path class="cls-1" d="M749.6,331.3c0,.1-.1.1-.1.2l-1.5,4.7c-1.3,5.2-3,11.8-4.4,17.8,1-3.8,2.5-9.9,5.9-22.5,0-.1,0-.2,0-.2Z"/>
    <path class="cls-1" d="M884.6,392.7c2.3-3.6,2.8-8.5,1.9-13.1.1.8.2,1.5.2,1.9,1.8-.1,3.5-.6,5.3-1.2,9.8-3,19.6-6.3,29.3-9.6.6-.4,2.3-1.2,14.3-43.1,10.9-4,21.6-8.2,32-12.5-.1-.1-.1-.2-.2-.4,5.8,8.7,16.2,10.4,19.1,2.4,3.4-9.5-7.8-25.1-18.2-21.6-6.3,3.2-4.8,12-2.3,17-.5-1-1-1.9-1.3-3.3-10.4,4.2-21.2,8.5-32.2,12.6q-1,.6-5.7,16.6c-2.3,7.9-5.9,18.3-8.5,26.1-9.2,3.2-18.5,6.2-27.9,9.1-1.7.5-3.5,1.1-5.2,1.6-2.3-5.8-7-10.1-13.1-8.7-7.9,2.9-8.8,13.3-7,19.9,3.2,11.4,14.1,15,19.4,6.3Z"/>
    <path class="cls-1" d="M1097,282.9c-.1.1-.4.2-.5.2-3.4,3-.2,10.7,3,15.9-.4-.6-.8-1.3-1.2-2.1-13.2,8.7-29.7,18.1-48.5,27.6.1.1.2.2.2.4,1.9,2.7,2.9,5,3.3,5.8,19-9.6,35.8-19,49-27.9-.2-.2-.5-.5-.6-.8,2.4,2.9,7.3,8.1,11.8,7.9,9.6,15.3,17.7,31.8,24.1,49.2,1.1,2.8,2.1,5.6,2.9,8.4.1-.2.4-.5.5-.6-3.2,3.6-2.7,13.2-.4,20.7,3,9.7,8.2,13.2,11,7.4,4.5-9.3-1.9-30.2-8.5-29.3-1-2.8-1.9-5.6-2.9-8.4-6.4-17.5-14.5-33.8-24.1-49.2,1.6-3.8.2-8.6-2.5-13.2.5-.4,1.1-.8,1.6-1.2-.1,0-.2.1-.5.1s-.4-.1-.6-.2c.4.1.7.2,1.1.1.5-.4,1-.7,1.3-1.1,6.5-5.2,11.6-10.1,15-14.5,3.3-4.2,4.7-7.9,4.5-10.9,5,6.2,6.3,7.6,6.8,8h0c14.1,21.6,18.1,29.1,28.7,59l-3.9-11.4c-1.9-5.2-5-12-7.2-17.2-5.2-11.1-11.3-21.6-17.9-31.1-2.5-4.6-16.7-22.7-19.5-24.2h0c.5,1.1,1.9,3.2,8.6,11.4.2,2.9-1.2,6.5-4.4,10.8-3.5,4.7-9.1,9.8-16.2,15.4-.6.5-1.1.8-1.7,1.3-4.2-4.5-9.3-7.5-12.4-6.2ZM1105.8,297.6c-.5-1.3-.2-2.1.2-2.3-.6.4-.7,1.2-.2,2.3ZM1106.1,295.3h.4c.5.1.8.4,1.3.6-.7-.4-1.2-.5-1.7-.6ZM1141.7,366.3c-.2.1-.4.4-.6.6.2-.2.5-.5.6-.6ZM1109.1,297.5c-.1-.2-.4-.5-.5-.6.1.2.4.5.5.6Z"/>
    <path class="cls-1" d="M796.1,251.1l-1.8,2.1c1.5-1.7,3-3.3,4.5-4.8.4-.5.7-.8,1.1-1.3l-3.8,4.1Z"/>
    <path class="cls-1" d="M895.5,187.9l-1,.2h-.4c-3.5,1.2-6.7,3.6-9.5,7.3h0c3.3-3.9,6.9-6.3,10.8-7.5Z"/>
    <path class="cls-1" d="M891,191.1c-2.1,1.3-4.1,2.7-6.2,4.4,2.7-1.9,4.6-3.3,6.2-4.4Z"/>
    <path class="cls-1" d="M905.8,185.1c-2.2.5-4.4,1.1-6.5,1.9,1.3-.5,2.9-1,5-1.6l1.6-.4Z"/>
    <path class="cls-1" d="M884.8,195.4s.1,0,0,0c.1,0,0,0,0,0h0Z"/>
    <path class="cls-1" d="M899.4,187.1c-3.4,1.1-5.3,2.1-8.2,4.1,2.7-1.8,5.3-3.2,8.2-4.1Z"/>
    <path class="cls-1" d="M970.3,178.5h-.5.7-.2Z"/>
    <path class="cls-1" d="M920.7,181.9c-1,.2-2.2.4-3.6.7,1.2-.2,2.4-.5,3.6-.7Z"/>
    <path class="cls-1" d="M963.8,178.3c2.3,0,4.2.1,5.9.1-1.9,0-4-.1-5.9-.1Z"/>
    <path class="cls-1" d="M970.5,178.6l7,.5c-2.4-.2-4.7-.5-7-.5Z"/>
    <path class="cls-1" d="M999.1,181.7c-6.1-.8-11.1-1.6-15.5-2.2,5.6.7,12,1.7,17.7,2.7-.6-.1-1.3-.4-2.2-.5Z"/>
    <path class="cls-1" d="M979.8,179.2h-2.4c1.9,0,4,.2,6.1.5-1.2-.2-2.4-.4-3.6-.5Z"/>
    <path class="cls-1" d="M883.6,191.9l-1,.4c.4,0,.5.1,2.2,3.3h0c-1-2.7-1-2.8-1.2-3.6Z"/>
    <path class="cls-1" d="M873.4,195.9l-1,.5c3.5-1.6,7.6-1.8,12.2-.8h.1c-4.4-1.1-8.1-1-11.4.4Z"/>
    <path class="cls-1" d="M991.6,192.9h-.1v-.2c.2,1.1,5,2.9,8.8,4.2-1.6,1.6-3.5,3.2-5.6,4.8-1.9,1.5-4,3-6.3,4.5.1,0,.4.1.5.1,2.9,1,4.8,1.9,5.6,2.3,2.4-1.6,4.5-3.2,6.5-4.7.2-.2.5-.4.8-.6,1.9-1.5,3.6-2.9,5.1-4.4q-.1,0-.2-.1c7.6,2.3,12.4,3,14.1,2.5h-.2c1.3.5,2.7,1,4,1.6-.1-.2,0-.4.1-.6-.8,1.6,6.1,5.5,9.8,7.5-.4-.1-.6-.4-1-.5-1.9,1.9-4.4,3.9-7,5.9-2.3,1.8-5,3.6-7.8,5.6,2.2,1.1,3.9,2.2,5.7,3.4,2.9-1.9,5.6-3.9,8-5.8-.1,0-.1.1-.2.1h-.4c.2,0,.5,0,.6-.1.4-.2.6-.5,1-.7,2.3-1.8,4.5-3.6,6.3-5.5-.1-.1-.4-.1-.5-.2,8.5,3.9,14.5,5,13.8,2.4-.6-1.9-4.4-4.6-9-7h.1c3.4-4.5,4-8,2.3-10.5,0,0-2.7-1.1-6.4-2.5,1.7,2.4,1,5.8-2.2,10.1,0,0,0,.1-.1.1-5.2-2.1-10.3-3.4-12.5-2.8-1.3-.5-2.5-1-3.9-1.5-1-2.2-9.2-5.3-16.8-7.2,3,.7,5.2,1.3,6.1,1.6h.1c2.7-3.8,3.3-6.5,1.8-8.6-1.7-.4-5.3-1.1-6.8-1.5,1.3,1.9.8,4.6-1.8,8h-.1c-5.1-1.1-9.7-1.7-11.6-1.1-35-7.8-71.7-7.2-107.3,3.5h0c35.3-9.9,71.9-10.2,106.6-2.2ZM1026.5,215.7c0,.6,1.1,1.3,1.9,1.8-1.2-.6-2.1-1.3-1.9-1.8ZM991.8,192.3s0-.1,0,0h0Z"/>
    <path class="cls-1" d="M937.5,179.7c2.4-.4,4.5-.6,6.2-.7,8.2-.4,14.4-.6,20-.6-5.8-.1-13,0-19.4.6,1.7-.1,3.2-.2,4.1-.4-4.2.1-8.7.6-13,1.1-1.8.1-3.9.4-6.1.7-3.9.6-5.1.7-8.8,1.5,2.9-.5,5.8-.8,8.7-1.3-4.6.7-7.9,1.6-8.1,1.8h0c-12.1,2.8-24.4,7.2-36.4,13.1h-.1c12.2-5.9,24.6-10.3,37-13.1,5.5-.6,10.7-1.9,15.9-2.7Z"/>
    <path class="cls-1" d="M1181.5,396.7q0,.1,0,0v.2-.5.2c-.1,2.8-1.5,6.2-4.5,10.1-5.2,6.9-14.7,14.9-27.5,23.5.2,1.7.2,3.2.2,4.2,0-7.6-2.8-14.4-6.5-13.7-.4.1-.8.4-1.2.5-1.6,1.2-2.8,3.2-3.6,5.5h0c-24-27.4-50.3-46.1-52.2-45.4-4.8,2.5-9.9,5.1-15.1,7.6-5.8-15-12.4-29.6-19.5-43.5,9.1-7.8-2.4-27.5-13.1-28-1.7-.1-2.5.2-3.5.7-6.7,3.9-4,13.9-.7,19.4,1.6,2.7,5.9,8.7,12.8,9.3,7.2,14.2,13.8,29,19.8,44.2-23.4,11.3-49.6,22.7-77.2,33.3-3.8-10.2-7.6-20.2-11.5-30.3,6.2-2.4,12.2-4.7,18.2-7.2.8-.5,1-.7,1.3-1.7,8.1-34.4,10.4-49,12.8-77.6-1.5-.6-2.5-1.1-3.9-2.1,6.2,4.2,13,3.6,14.2-2.9,1.7-9.3-10.3-21.8-18.5-20.5h.2c-3.9-5.3-7.8-10.4-11.8-15.3,26.2-12.5,47.9-25,61.8-35.6.4-.2.7-.6,1.1-.8,5.2-4.1,9.3-8,12-11.5,4.2-5.6,4.6-9.7,1.7-12.6,6.1,3.3,12,6.8,17.7,10.7,3,2.5,6.3,4.8,9.5,7.2,2.1,3,1.2,7.3-2.9,12.7-3.2,4.1-8.1,8.8-14.5,13.8-14.4,11.1-36.4,23.9-62.8,36.7.1.1.2.2.4.4,2.2,2.2,3.3,4.1,3.9,4.8,26.8-13.1,49.1-26.1,63.6-37.3.4-.4.8-.6,1.2-1,5.9-4.7,10.5-9.1,13.6-13.1,4.1-5.6,5.1-9.8,2.9-13,3,2.4,5.8,5,9,7.2l-.7-.6c-6.7-5.6-15.8-12.7-22.8-17.8-.6-.5-.8-.5-1.1-.7-5.7-3.9-11.6-7.4-17.6-10.7-.5-.4-1-.7-1.6-1l-6.4-3.3c.7.4,1.3.7,1.9,1.2-1.5-.7-2.9-1.5-4.4-2.2-1.7-1.2-6.9-3.5-12.2-5.7-.5-.2-.8-.5-1.5-.6l-6.8-2.5c.7.2,1.3.6,1.9.8-4.7-1.7-8.7-2.9-9.8-2.8h.1c-1.6-.5-3.2-1-4.7-1.3-1.5-.8-6.8-2.3-12.6-3.5-1.1-.6-2.5-1.1-4.4-1.5-1.5-.2-3.2-.6-4.7-.8.8.2,1.7.6,2.4,1-4.8-.8-9.1-1.5-10.5-1.2h0c-35.3-4.6-72.3-.6-108.1,13.5h0c36-13.9,73.2-17.8,108.6-13.1h0c1,.2,4.2,1,16.1,3.5,13.1,2.8,13.2,2.8,13.7,2.7h-.1c1.7.5,3.4,1,5.1,1.5-.4-.1-.5-.2-.6-.4.5.2.7.4,16.1,6.4,11.4,4.5,12.4,4.8,12.6,4.7h0c1.6.7,3.2,1.5,4.6,2.3,2.9,2.8,2.4,6.8-1.6,12.2-2.8,3.6-7,7.8-12.7,12-13.6,10.4-34.7,22.5-60.1,34.7-1-1.2-2.1-2.4-3-3.5h0c.6-.6,1-1.5,1.1-2.5.8-8.2-14.3-18.8-20.4-16.1-3.3,1.6-2.2,6.3.7,10.7-.1-.1-.1-.2-.2-.4-9,4.1-18.4,8.1-28.1,12.1-3.2-4.1-7.6-6.8-11.6-5.6-1.9,1-3,2.8-3.5,5,.1-.5.2-1,.4-1.6-13.7-9-20-14.3-20-14.3q-8-6.9-8.7-6.9c-6.7,2.3-13.3,4.6-20.1,6.7-13.7,4.2-26.1,7.5-36.8,9.9,1.6-4.2,2.3-7.8,1.3-8.5h0c12-21.9,27.9-39.7,47-51.6h.1q0-.1-.1,0c-19.8,12-36.1,29.9-48.7,52,.1,0,.4-.2.2-.1q.1,0,.1-.1c-2.1,1-5.6,5.2-8.4,9.8.1-.1.1-.2.2-.4-11.3,1.8-20,2.3-25.3,1.2,1.1-1.3,2.2-2.7,3.3-4q-.2.1-.5.1h0c2.1.4,20.5-20.4,22.1-22.2h0c16.7-14.9,35.9-27.4,57.1-36.6h0c-21.5,9.2-40.7,21.6-57.6,36.5.1,0,.2-.1.4-.1h0c-1.3.5-5.9,4.1-10.5,8.5.1-.1.4-.4.5-.5-3.6-1.2-4.4-3.6-1.6-7.4,2.1-2.4,2.2-2.5,5.6-5.5l-6.5,5.5c-1.8,1.6-2.2,1.9-4.2,4.4-3,4-2.2,6.7,1.7,8l.2-.2c-4.1,4.4-7,8.2-7,9.5h0v-.2c-1.1,1.3-2.3,2.7-3.4,4-5.7-1.3-7.2-4.6-3.3-9.7-1.6,1.6-3,3.3-4.5,4.8-4.1,5.5-2.5,8.8,3.4,10.3-5.3,7-10.4,14.3-14.8,21.8q.1,0,.2-.1c-1.6.6-5,5-8.1,10.4.1-.1.1-.2.2-.5-5.8-1.9-7.4-5.6-3.9-11.1l-3.8,6.3c-3.2,5.5-1.5,9.1,4.4,11,.1-.2.1-.4.2-.6-3.6,7.5-4.5,13-2.5,12.2,3.4-1.3,14.8-24,14.1-27.4h0c4.5-7.6,9.5-14.9,14.8-21.9,5.7,1.1,14.9.6,26.9-1.3.1-.1.1-.4.2-.5-2.4,5.5-2.4,9-.7,9.5-.1,0-.2-.1-.4-.1-5,12.4-9,25.4-11.9,39.3.6-.4,1-.5,1.5-.6-3.9.8-8.2,9-9.3,17.1-1.2,9.2,2.4,14.8,7.2,11.1,4.8-3.9,7.5-15.9,6.4-22.9v.4c7-12.2,9.5-16.2,18.3-31.1,11.3-2.7,23.6-6.1,37-10.2,3.5-1.1,6.9-2.2,10.4-3.3l5,5c-.5,2.7-.4,5.6.4,8.2,2.5,9.3,11.3,12,15.1,4.7,4.1-7.9-1.8-22.8-10.3-20.6-1.6.6-2.7,1.8-3.6,3.3h0q-6.1-6.1-6.8-5.9c-3.5,1.2-7,2.3-10.7,3.4-13,4-25.1,7.4-36.1,9.9q-.6.4-1,1c-8.6,13.9-9.1,14.7-19.1,31.6-.5-.8-1.2-1.3-1.9-1.5.1,0,.2,0,.4.1,2.8-13.8,6.5-26.9,11.3-39.1,2.4-1.5,5.2-5.6,7.4-10.1,11.3-2.3,24.4-5.7,38.9-10.2,7-2.2,13.9-4.5,20.8-6.9,8.7,8.1,18.7,15,27.5,21.1v-.5c0,2.5.8,5.3,2.1,7.8,4.8,9.3,14.1,10.2,16.5,3.5.8-2.5.6-5.5-.5-8.2,10.2-4.1,19.9-8.4,29.2-12.6h-.1c4.2,3.9,8.7,5.7,12,5.3,1,1.2,1.9,2.4,2.9,3.6-31.3,14.7-68.7,29.3-106.4,41-2.3.7-4.6,1.5-7.4,2.4-.2.2-.5.7-.7,1-1.5,3.3-8.7,19-14.5,31.8-24.8,6.8-46.4,11.3-63.7,13.5,1.6-14.1,4.4-27.6,7.9-40.7h0c6.1-3.4,13.9-26.5,9.2-27.5h-.5c-3.4.8-8.2,8.7-10.5,15.4-2.2,6.3-2.2,11.1-.4,12.2-3.9,13.1-6.7,26.8-8.5,40.8-5.5.6-10.3,1-14.8,1.1-2.8-23-1.6-29.8,1.7-47.9-1.2,2.1-1.9,3-2.9,4.4-2.3,13.2-4.7,26.9-1,49.4.1.7.4.8.6,1,4.6-.1,9.8-.5,15.6-1.2-.6,6.7-1.1,13.5-1.2,20.2.4-.2.6-.4,1-.5-2.9,1-5.3,6.1-5.9,12.2v-.2c-9.8,1-18.1,1.1-24.5.4v.5c0,3.3-.1,5.8-.2,6.7,5.3.6,11.8.6,19.3,0,.6,28.5,5.8,57.3,16,85.2,4.8,13.2,10.8,25.7,17.3,37.2-8,.5-14.9.5-20.5,0,1.7,2.7,2.8,4.5,3.5,5.9,5.7.6,12.5.6,20.5.1,8.7,14.2,18.5,26.8,30.1,37.7h.1c-2.5.6-1.1,4.1,3,8.4q-.1-.1-.2-.2c-11.9.5-20.5-.6-25.4-3.3-15.5-13-29.3-28.4-40.7-45.9,1.3.7,3,1.3,5,1.9h-.1c5,6.9,10.4,11.9,11,9.6.8-3.3-12.5-24.8-17.3-26.4.2,0,.5.1,1,.5-4.4-8.2-8.1-17-11.5-25.9-8.8-24-13.5-48.6-14.3-73h-.1c.2-.1.4-.2.6-.4,3.3-3.4,4.7-29.6.1-31.3-2.2,0-3.9,5.9-4.5,12.4,0-.2,0-.5.1-.8-1-.2-1.8-.6-2.7-.8v.5h0c-.1,3.2-.2,5.7-.2,6.5.8.4,1.7.6,2.5.8v-.6c0,6.4,1.2,11.6,2.7,13.3h0c.6,24.5,5.2,49.2,14.1,73.1,3.4,9.1,7.2,17.7,11.5,25.9.1,0,.2-.2.4-.1h.2c-1.9.1-.2,5.5,3.5,11.9-.2-.4-.5-.7-.6-1.1-1.8-.5-3.5-1.1-4.8-1.8-7-11.6-13.1-24.1-17.9-37.3-8.7-23.6-13.1-48-13.8-72h0q.1,0,.2-.1c2.4-2.3,3.4-29.3,1.2-31.5.1.1.2.2.4.6,1.6-13.1,4.4-25.9,8-38.4h-.1c1.5-.6,4.5-7.5,6.8-13.8,1.6-4.2,5.1-14.2,4-15.5-1.1-.2-4,4.4-6.5,10.4,0-.1.1-.2.1-.4-2.2-1.9-2.7-4.7-1.2-8.1l-2.7,6.7c-1.3,3.3-.8,5.9,1.3,7.9.1-.2.1-.4.2-.6-2.2,6.2-3.2,11.3-2.8,12.8h0c-3.9,12.4-6.5,25.2-8.2,38.3,0,0,.1-.1.1,0,.1-.1.2-.1.5,0-1.6-.4-3,7.3-3.4,14.5.1-1.8.2-3.3.4-4.5-1.5-1.3-2.3-2.9-2.4-4.6.4-3.8.6-7.5,1-10.7-.2,2.2-.6,5.6-1,9.7h0v.5h0c-.1,1.9-.2,4-.4,6.1v.4h0c-.1,1.3-.1,2.7-.1,4.1,0-1.1.1-2.4.2-3.6.1,1.9,1,3.6,2.4,5.1v-.4c-.2,6.9.5,12.6,1.5,14.4h-.1c-.4,24.2,4,48.5,12.7,72.2,4.8,13.2,10.9,25.7,18.1,37.3-1.3-.8-2.4-1.9-3.2-3l4,6.3c.7,1.1,1.7,2.1,3,2.8,11.5,17.6,25.3,33,40.8,46.1-.4-.2-.7-.5-1.1-.7l5.6,4.5c.2.2.5.4.8.6,4.8,3.9,9.9,7.4,15.1,10.8l4.4,2.8,6.2,3.6,5,2.8c-1.6-.8-3.2-1.7-4.7-2.5,6.1,3.3,18.3,3.8,35.4,1.8-.1-.1-.2-.1-.4-.2,7.8,4.6,16.7,6.8,16.4,3.5-.5-3.9-15.6-14.7-23.1-13.9-3.5.7-1.5,4.2,2.7,7.6-.1-.1-.4-.2-.5-.4-17.6,2.1-30.2,1.5-36.4-1.8-6.7-4.1-13.1-8.6-19.1-13.3,4.8,2.5,13.3,3.6,25,3.2-.1-.1-.2-.1-.2-.2,7.4,5.7,15.8,8.8,15.8,5.6s-14.1-16.2-21.2-17.7h.1c-10.8-11.1-20.6-23.9-29.2-37.9,18.2-1.5,41.7-5.7,69.2-12.5,3.9,5.1,9.3,7.6,13.7,7.3h-1.1c3,5.6,6.1,10.9,9.3,16.1-9.1,2.3-17.8,4.5-25.9,6.2-.6.2-.7.4-.8,1.1-.6,20,.4,24.4,4.2,37.8.2.1.5.1.6.2,2.1.7,3.9,1.7,4.7,2.1-4.6-14.7-4.6-20.5-4.2-36.2,7.9-1.7,16.1-3.8,24.8-5.9,6.8,10.5,13.8,20.1,21.1,28.5.6-.4,1.2-.6,1.8-.7-5.3,1.5-5.1,7,.4,11.8,7.3,6.2,19.4,7.5,19,.4-.4-5.8-10.1-13.2-17.8-12.5h.7c-7-8.5-13.9-18.1-20.6-28.6,11.1-2.9,22.9-6.3,35.1-10.2,17.8-5.6,35.6-11.6,53-17.9q27.9,15.4,28.8,15.3c44-17.3,83.5-36.4,110.3-53.3-.1,1.6-.4,3-.6,4.6h.1c-2.7,2.7-5,8.1-6.3,13.3,0-.1.1-.4.1-.5-7.9,4.8-16.8,9.7-26.5,14.8.1,1.8,0,3.4-.5,5.5,9.5-4.8,18.2-9.7,25.9-14.4h0c-.5,4.1,0,7.3,1.9,7h-.1c-.4,1.5-.8,2.8-1.2,4.2.5-.5.8-.7,1.2-1-2.8,1.8-6.1,7.6-8.5,13.1.1-.1.1-.4.2-.5-4.6,2.8-9.7,5.7-15,8.6-.5.4-.6.5-1.2,1.2-11.9,18.4-20.5,28.8-31.4,42.1l-.2-.2c-.6-.4-1.6.1-2.1.2-3.4,1.7-6.3,5.7-7.9,8.4.1-.2.2-.4.4-.6-15.1,6.9-32.4,13.8-50.2,19.9-.6.4-.7.7-.4,1.2,4.4,4.5,8.1,6.7,10.9,6.2.6-.1.7-.2,1.1-.4-2.3.2-5.3-1.7-9-5.8,16.2-5.6,32-11.9,45.9-18.3h0c-.6,1.3-1.2,3.4.4,2.9h-.1c-4,5.2-8.7,9.2-14.2,11.9-.1.1-.4.1-.5.2l1.1-.5c.1,0,.2-.1.4-.1,5.7-2.8,10.8-6.9,15-12.2,3.6-2.2,8.8-8.2,9.5-11.4,14.4-16.2,18.3-21.3,31.4-40.2,5-2.7,9.7-5.5,14.1-8q0-.1.1-.2c-1.2,3.6-1.7,6.9-.2,6.5h-.1c-10.9,21.9-26.5,40.1-46.5,52.7l2.1-1.3c19.8-12.8,35.4-30.9,46.2-52.4,2.5-2.1,5.6-6.7,7.8-11.3,8.2-5.6,14.5-10.7,18.5-15.3-1.2,2.3-2.4,4.5-3.3,6.9-1.9,3.3-3.9,6.5-6.1,9.7l1-1.3c1.8-2.8,3.6-5.7,5.3-8.6,1.5-1.7,6.1-10.5,9.5-17.6l.2-.5c0,.1-.1.2-.1.2,2.3-4.7,3.9-8.7,3.8-9.2h0c.5-1.2,1-2.4,1.5-3.6,1.2-2.2,3.3-7.5,5.1-13,.5-.8.7-1.6,1-2.3l2.1-6.9c-.2.8-.6,1.7-1.1,2.7,1.2-4.2,1.9-7.9,1.6-8.8-.1,0-.2.1-.4.2-.4.6-1.5,2.3-5,14.2-4.7,5.6-12.4,11.8-22.3,18.4.6-4.1.1-7.3-1.9-7.5h-.4.1c.2-1.6.4-3,.6-4.6,13.8-9,24-17.2,29.3-24.2,2.2-2.8,3.4-5.3,3.9-7.5l1.1-5.9.2-1.1c-.4,2.3-1.7,5-4,8-5.5,7.2-15.8,15.5-29.8,24.6.5-6.2.8-12.6.7-19,2.7-3.3,4-8,4.2-12.6,12.7-8.6,22.2-16.5,27.4-23.4,2.9-3.9,4.4-7.2,4.4-9.9h0v-1.5c-.4-2.1-.4-4.2-.4-5.9ZM1040.7,333.6c0-.8.4-1.3.8-1.6-.4.4-.7.7-.8,1.6ZM1041.9,331.9c.2-.1.6-.1.8,0-.2-.1-.6-.1-.8,0ZM1042.7,331.8h.4c.1.1.4.1.5.2-.2-.1-.5-.1-.8-.2ZM1044.8,333.1c.2.4.5.7.6.8-.2-.2-.4-.6-.6-.8ZM1077.8,252.9c.6.7,1.2,1.2,1.2,1.2.2.2.5.4.8.6-.8-.4-1.6-1.1-2.1-1.8ZM1098.2,227.1q0,.1,0,0c0,.1,0,0,0,0h0ZM1084.7,216.8c-.2-.1-.4-.2-.5-.4.2.1.4.2.5.4ZM1023.3,188.5c0-.1-.1-.1-.2-.2q.2.1.2.2h0ZM1027.6,189.6h0ZM1049.3,230.3c.2.1.6.4,1,.5-.8-.4-1.7-1-2.4-1.6.7.6,1.5,1.1,1.5,1.1ZM934,571.4c-.5,0-1,.1-1.5.2.4,0,.8-.1,1.5-.2ZM775.4,397c0-.4,0-1,.1-1.7,0,.5,0,1-.1,1.7ZM775.6,395.2c.1-.6.4-1.1.6-1.5q.1-.1.2-.2c-.5.7-.7,1.1-.8,1.7ZM776.5,393.5c.1-.1.2-.1.5,0h-.5ZM777.1,393.5c.2.1.6.5.8,1.3-.2-.5-.5-.7-.8-1.3ZM778.1,395.5c0,.4.1.7.1,1.2,0-.5-.1-.8-.1-1.2ZM811.9,521.9c-6.5-11.5-12.4-24-17.3-37.3-10.3-27.9-15.5-56.8-16.2-85.2.8-.1,1.7-.1,2.5-.2h0c.6,6.4,3.2,11.3,5.9,12.4,2.1,24.1,7.4,48.6,16.1,72.2,4.8,13.2,10.7,25.7,17.2,37.3-2.9.4-5.7.6-8.2.8ZM886.2,494.9c-6.2,2.1-7,8.6-4.8,14.7,0-.1-.1-.1-.1-.2-22.1,5.5-41.6,9.3-57.9,11.4-6.4-11.5-12.2-24-17.1-37.3-8.7-23.6-14.1-48-16.5-72.1.4-.2.7-.6,1.2-1,2.4-2.7,3.6-7.8,3.8-13h0c7-.8,14.8-2.3,22.9-3.9,10.3,13.6,11.3,14.5,26.5,30.4.5-2.4,1-3.9,2.1-5.7-13.7-14.1-14.2-14.7-26.9-31.1-.6-.7-1-.7-1.5-.7-8.5,1.7-16.4,3.2-23.5,4.1,0,.1,0,.4.1.5.5,2.9.5,5.3.4,6.3.1-7.8-2.1-15.8-5.8-17.1.1-6.8.5-13.5,1.1-20.1,17.8-2.3,40.2-6.9,66.5-14.3.2-.4.5-.7.7-1.1,4.8-10.7,9.6-21.5,14.4-32.1,2.1-.6,4.1-1.2,6.3-1.9,38.8-12,77.2-27,109.3-42.2,3.9,5,7.8,10.1,11.5,15.4.5-.5,1-.8,1.6-1.1-5.1,2.7-3.8,10.9.5,17,1.7,2.4,3.8,4.5,5.8,5.8-.2-.1-.5-.4-.7-.6l-.6-.5c-2.2,28.1-5.2,44.4-12.6,76.1-5.6,2.3-11.3,4.5-17.1,6.8-2.7-6.9-5.3-13.7-8-20.4,1.2-1,2.3-2.4,3-4.2,4.4-10.5-5.6-27.1-17.1-23.6-7.6,3.5-7.2,13.7-4.5,19.8,3.5,7.6,10.3,11.1,15.6,9.5-.6.1-1.1.4-1.8.4h-.4c2.7,6.8,5.3,13.6,7.9,20.5-22.4,8.6-45.7,16.6-69,23.9-13.1,4-25.6,7.6-37.3,10.8h0c-2.5-5.9-7.4-10.7-13.2-9.6-6.9,2.2-8.5,12-5.9,19.9,3.8,11.8,14.7,15.9,19.3,7.5,2.4-4.4,2.3-10.5.5-15.9.6,1.7,1,3.2,1.2,5.2,11.9-3.2,24.5-6.8,37.6-10.9,23.5-7.3,46.9-15.4,69.4-24,3.8,9.9,7.6,20.1,11.4,30.3-6.2,2.3-12.5,4.7-18.8,7,0,.1.1.2.1.2-3.4-6.1-9.3-10.3-16.1-8.4-9.1,3.9-8.4,14.9-5.8,20.8,1.1,2.7,2.7,4.8,4.5,6.5-3.8,11.6-4.6,14.3-13.5,41.3-1.2.4-2.3.7-3.5,1.1-10.1,3.2-19.8,5.9-29,8.8-3.5-5.7-9.8-10.2-16.2-9ZM1030.5,524.5c-27.3-15.9-28.2-15.9-29.3-15.8-17.9,6.7-36.2,12.8-54.7,18.5-12.5,3.9-24.4,7.3-35.6,10.3-3.2-5.1-6.2-10.5-9.1-16.1,1.5-1,2.7-2.4,3.3-4.6.6-2.1.6-4.5,0-6.8,9.3-2.5,19.1-5.5,29.2-8.6,1.5-.5,3-1,4.5-1.5,1-.4,1.2-.8,1.5-1.5q8.1-24.7,13.8-42.1c5.2,1.8,10.8.1,13.5-5.9,1.3-3.2,1.6-6.7.8-10.2h0c6.3-2.2,12.6-4.5,18.8-6.9,2.5,6.8,5,13.6,7.4,20.1.2.5.4.7.5,1h.1c-5.2,4-5.9,12.5-3,18.9,5.2,11.3,18.2,12.1,22.2,1.6,1.1-2.9,1.2-5.9.7-8.8,11.1-4,22.1-8.5,32.5-13.1,14.2,9.7,18.5,12.6,30.8,21.9.4.1.8.4,1.2.4,10.9-5,20.7-9.9,30.1-14.8,0-.1,0-.2-.1-.4,2.1,8.1,7.5,10.4,11.9,4.4,6.9-9.6,3.8-27.9-4.6-26.5-.5.1-1.2.4-1.7.6-5.6,3.5-6.8,12.1-6.2,17.9-.1-.7-.1-1.5-.1-2.3-9.1,4.7-18.8,9.6-29.1,14.4-13.9-10.4-15.4-11.5-31.3-22.3-.8-.5-1.1-.5-1.9-.2-10.9,4.7-22.1,9.5-33.7,13.9-2.9-5.1-8-8.6-13.3-7.6h.1c-.1-.4-.1-.5-.2-.8-2.3-6.5-4.8-13.2-7.3-20.1,27.6-10.7,53.8-22.1,77.2-33.3,2.7,7,5,14.1,7.2,21,.4-.2.6-.5.8-.7-5.2,3.8-6.2,13.3-3.6,20.5,3.9,10.8,13.2,12.6,17.6,3.5,5.2-10.8-1.7-26.7-10.4-25.4-2.2-6.9-4.5-13.9-7.2-21l14.3-7.2c27.9,21.2,35.1,28.6,49,44.2-.4,2.9-.4,6.1,0,8.8.8,7,3.5,10.2,6.1,9.6h-.2c.1,6.4-.1,12.7-.6,18.9-27.1,17.2-67,36.5-111.5,54ZM1163.2,486.3c.1-.1.1-.2.2-.2l-.2.2ZM1164.2,483.5c.1-.1.2-.2.4-.5-.1.2-.2.4-.4.5ZM1144.4,492.9c9.7-6.5,17.1-12.6,21.7-18.1h0c-2.2,7.5-2.1,8.1-2.1,8.5,0,0,.1,0,.1.1h-.1c-.5,1.2-1,2.5-1.5,3.8.1-.1.1-.2.2-.4-.5,1-1.7,3.4-7.9,16.1h0c.4-.7.7-1.5,1.2-2.7-4.1,4.8-10.8,10.2-19.4,16,1.2-3.5,1.5-6.3.2-6.8-.2-.1-.5-.1-.7,0h.1c.5-1.3.8-2.8,1.3-4.2,2.8-2.7,5.2-7.5,6.7-12.4Z"/>
    <path class="cls-1" d="M992.2,599.6c1.3-.7,2.2-1.9,1.9-3.8-.1-.8-.4-1.6-.8-2.4h.1c27.8-8.6,55.3-19.1,79.3-29.9.5-.2.7-.5,1.1-1.1,11.1-16.5,14.3-22.2,21.8-36-.4-.2-.5-.5-.7-.7,1.7,2.1,4.5,1.9,7.4-1,7.5-7.5,8.1-23.3,1-22.7-.7,0-1.5.4-2.1.6-5.9,3.5-8.1,12.2-8.1,16.8s.4,3.4.8,4.6h0c-8.2,15.1-15.3,26.1-21.5,35.8-24.8,11.1-53.1,21.9-81.4,31,.1.1.2.1.2.2-2.8-2.4-7.4-4.1-11.5-3.5.1,0,.4,0,.5-.1-6.1-6.8-12.2-15-18.4-24.4,1-.6,1.7-1.3,2.3-2.2,18.2,7.4,31.9,12.7,32,12.7.7.2,1.1.2,1.7.1,20.6-6.9,40.8-14.7,60-22.8.2-.2.6-.6.8-1,1.3-2.4,3-5.6,4.4-8-.2-.1-.4-.2-.6-.2,3.2,1.5,7.2-.1,10.2-4.7,5.3-8.5,2.2-19.4-5.3-18.2-.6.1-1.3.4-1.8.6-6.9,3.5-8.1,11.6-7.3,16,.4,1.8,1.1,3.3,1.9,4.4h0l-3.8,7.3c-18.9,8-39.1,15.6-59.7,22.5q-13.8-5.7-31.1-12.8c0,.2,0,.5-.1.7.8-7.8-8.6-16.7-18.4-14.4-7.8,2.8-6.4,10.3-2.9,14.8,3.6,4.7,9.1,6.9,13.7,6.5,6.4,9.3,12.8,17.3,19.1,24.1.2-.1.6-.2.8-.5-3.4,1.5-4,4.4-1.7,7.2h-.1c-21.6,6.1-40.4,10.3-55.5,12.5-6.4-2.9-12.8-6.2-19.1-9.9-.6.2-1.2.4-2.3.4h-.2c6.3,3.8,12.7,7.2,19.3,9.9-14.7,1.9-25.6,1.9-31.8-.2l6.9,2.3c5.9,1.9,16.2,1.9,30.1,0,1.3.5,2.7,1,4,1.5.1-.1.4-.2.7-.2-1.6.2-.8,1-.2,1.5,1,.7,2.9,1.5,5.3,2.2q-.1,0-.2-.1c-9.6,1.1-17.1,1.1-22.1,0l7.3,1.6c4.7.8,11.6.8,20.2-.2-.4-.1-.6-.1-1-.2,5.1,1.1,10.9,1.8,13.6,1.7h-.4c11.3,1.9,22.7,2.4,33.9,1.5l1.9-.2c-6.4.4-15,1-21.3.2-3.9-.5-9-1.5-12.8-1.6h-.1c.1,0,.1-.1.2-.1-.1-.6-2.3-1.5-5.3-2.4,5.2-.8,10.9-1.9,17-3.4,13.6,4.8,27.3,6.4,40.5,4.4l1.8-.4c-13.6,2.3-27.8.4-42.1-5.3-1.8-.6-2.5-.5-3.2-.5-6.9,1.6-13.3,2.9-19.1,3.8-5.6-1.5-11.6-2.5-13.8-2.3.4,0,.7-.1,1.3,0-1.3-.5-2.5-1-3.9-1.5,14.5-2.1,32.7-6.2,53.4-12.2,0,0-.1,0-.1-.1,4.1,2.5,9.8,3.3,13,1.8-.7.4-1.6.6-2.5.7,12.1,9.8,23.5,13.9,33.3,11.5.1,0,.4-.1.5-.1h.1c.4-.1.7-.2,1.1-.4-.2,0-.4.1-.6.1-9.1,2.8-19.9-1.6-31.4-11.5ZM1094.2,524.9c0-.1-.1-.1-.1-.2v-.2c0,.1.1.2.1.5Z"/>
    <path class="cls-1" d="M1170,356.7c-4,5.3-10.4,11.3-18.9,17.6,0,.1.1.2.1.4,1.1,3,1.5,5.6,1.7,6.5,8.4-6.3,14.8-12.2,18.8-17.6,2.8-3.8,4.4-7,4.6-9.8v-.7c0-.5-.4-1.8-.6-3.3.4,1.3.6,2.7.6,3.3,0-.7,0-1.3-.2-1.9l-1.8-7.3.2,2.2c.1,3.2-1.5,6.7-4.5,10.7ZM1175.1,347.5c-.1-.6-.4-1.1-.5-1.3.1.1.4.7.5,1.3Z"/>
    <path class="cls-1" d="M794.8,536.7c-.4.4-.8.2-1.8-.4,1.7,2.3,3.3,4.5,5.1,6.7.1-.1.4-.1.6-.1-1.8-.1.5,4,3.9,8,1.1,1.3,2.3,2.7,3.6,4.1,6.2,6.5,13.5,11.9,13.8,10.3.5-2.1-14.4-19-20.1-22.1h.1c-1.8-2.1-3.5-4.4-5.2-6.5Z"/>
    <path class="cls-2" d="M215,901.4h-4.6v-25.3c1.2-.2,2.3-.4,3.5-.5,1.2-.1,2.5-.2,3.8-.2h0c3.7,0,6.4.7,8.3,2.2,1.9,1.5,2.8,3.8,2.8,6.9h0c0,3-.9,5.2-2.7,6.8-1.8,1.5-4.6,2.3-8.3,2.3h0c-.5,0-1,0-1.4,0-.4,0-.9,0-1.4,0h0v7.9ZM217.9,890h0c2.2,0,3.9-.4,4.9-1.3,1-.9,1.5-2.3,1.5-4.2h0c0-2-.5-3.4-1.5-4.3-1-.9-2.5-1.3-4.6-1.3h0c-.6,0-1.2,0-1.7,0-.5,0-1,.1-1.5.2h0v10.7c.5,0,.9.1,1.4.1.5,0,.9,0,1.5,0ZM255,901.4h-4.6v-25.2c.7-.2,1.5-.3,2.3-.4.8-.1,1.7-.2,2.6-.3.9,0,1.8,0,2.7,0h0c3.6,0,6.3.6,8.1,1.9,1.8,1.3,2.7,3.3,2.7,6.1h0c0,1.8-.4,3.3-1.3,4.5-.8,1.2-2.1,2.1-3.7,2.7-1.6.6-3.5.9-5.8.9h0c-.6,0-1.1,0-1.6,0-.5,0-.9,0-1.4,0h0v10ZM270.9,901.4h-5.1l-8.5-11.9h5l8.7,11.9ZM258.1,888h0c2.2,0,3.8-.4,4.8-1.1,1-.7,1.5-1.9,1.5-3.5h0c0-1.1-.2-1.9-.6-2.6-.4-.7-1.1-1.2-1.9-1.5-.9-.3-2-.5-3.4-.5h0c-.7,0-1.3,0-1.9,0-.6,0-1.1.1-1.6.2h0v8.7c.4,0,.7,0,1,0,.3,0,.6,0,1,0,.3,0,.7,0,1.1,0ZM301.1,901.7h0c-2.3,0-4.4-.5-6.1-1.4-1.7-.9-3.1-2.4-4.1-4.3-1-1.9-1.4-4.4-1.4-7.4h0c0-3,.5-5.5,1.4-7.4,1-1.9,2.3-3.4,4.1-4.3,1.7-.9,3.8-1.4,6.1-1.4h0c2.3,0,4.4.5,6.1,1.4,1.7.9,3.1,2.4,4,4.3,1,2,1.4,4.4,1.4,7.4h0c0,3-.5,5.5-1.4,7.4-1,1.9-2.3,3.4-4.1,4.3-1.7.9-3.8,1.4-6.1,1.4ZM301.1,897.9h0c1.4,0,2.6-.3,3.6-.9,1-.6,1.8-1.6,2.4-3s.8-3.2.8-5.4h0c0-2.3-.3-4.1-.8-5.5-.6-1.4-1.3-2.4-2.4-3-1-.6-2.2-.9-3.6-.9h0c-1.4,0-2.6.3-3.6.9-1,.6-1.8,1.6-2.4,3-.6,1.4-.8,3.2-.8,5.4h0c0,2.3.3,4.2.8,5.6.6,1.4,1.4,2.4,2.4,3,1,.6,2.2.9,3.6.9ZM346.9,901.4h-6.8l-8.6-25.7h4.9l7.8,23.7h-1l7.8-23.7h4.6l-8.6,25.7ZM380.4,901.4h-4.6v-25.7h4.6v25.7ZM409.9,901.6h0c-.7,0-1.4,0-2.2,0-.7,0-1.5,0-2.2-.1-.8,0-1.5-.1-2.3-.2h0v-25c.8-.2,1.6-.3,2.4-.4.9-.1,1.7-.2,2.6-.3.9,0,1.7,0,2.6,0h0c4.5,0,7.9,1.1,10.2,3.2,2.3,2.1,3.5,5.4,3.5,9.9h0c0,3.1-.5,5.5-1.6,7.5-1.1,1.9-2.7,3.4-4.9,4.3s-4.9,1.4-8.1,1.4ZM411,897.8h0c1.9,0,3.5-.3,4.8-.9,1.3-.6,2.3-1.6,2.9-3,.6-1.4.9-3.2.9-5.4h0c0-2.2-.3-4-.9-5.4-.6-1.4-1.6-2.4-2.9-3-1.3-.6-2.9-.9-4.8-.9h0c-.5,0-1.1,0-1.6,0-.6,0-1.1.1-1.7.2h0v18.2c.5,0,1,0,1.5.1.5,0,1.1,0,1.7,0ZM451,901.4h-4.6v-25.7h4.6v25.7ZM478.1,901.4h-4.4v-25.7h4.7l13.1,20h-.9v-20h4.4v25.7h-4.7l-13.1-20h.9v20ZM531,901.6h0c-3.1,0-5.8-.5-7.9-1.4-2.1-.9-3.7-2.4-4.7-4.3-1.1-1.9-1.6-4.4-1.6-7.4h0c0-3,.5-5.5,1.6-7.4,1.1-2,2.7-3.4,4.7-4.4s4.6-1.4,7.5-1.4h0c1,0,2,0,2.9.2,1,.1,1.9.3,2.8.5h0v3.9c-.9-.2-1.9-.4-2.7-.5-.9-.1-1.8-.2-2.6-.2h0c-2.1,0-3.8.3-5.2.9-1.4.6-2.4,1.6-3.1,3-.7,1.4-1.1,3.2-1.1,5.5h0c0,2.2.3,3.9,1,5.3.7,1.4,1.7,2.3,3,3,1.3.6,3,.9,5,.9h0c.7,0,1.5,0,2.2,0,.7,0,1.3-.1,1.9-.2h0l-1.9,1.8v-10.3h4.3v12.2c-1.1.2-2.1.3-3.1.4-1,0-2,.1-3,.1ZM592.8,901.6h0c-.7,0-1.4,0-2.1,0-.7,0-1.5,0-2.3-.1-.8,0-1.5-.1-2.3-.2h0v-25c.7-.2,1.5-.3,2.4-.4.9-.1,1.7-.2,2.6-.3.9,0,1.8,0,2.6,0h0c4.5,0,7.9,1.1,10.2,3.2,2.3,2.1,3.5,5.4,3.5,9.9h0c0,3.1-.5,5.5-1.6,7.5-1.1,1.9-2.7,3.4-4.9,4.3s-4.9,1.4-8.1,1.4ZM594,897.8h0c1.9,0,3.6-.3,4.8-.9,1.3-.6,2.3-1.6,2.9-3,.6-1.4.9-3.2.9-5.4h0c0-2.2-.3-4-.9-5.4-.6-1.4-1.6-2.4-2.9-3-1.3-.6-2.9-.9-4.8-.9h0c-.5,0-1.1,0-1.6,0-.6,0-1.1.1-1.7.2h0v18.2c.5,0,1,0,1.5.1.5,0,1.1,0,1.7,0ZM631.1,901.4h-4.6l8.6-25.7h6.7l8.6,25.7h-4.6l-7.7-23.6h.5l-7.7,23.6ZM645,894h-13.1l1-3.7h11l1,3.7ZM678.8,901.4h-4.6v-21.8h-8.3v-3.9h21.2v3.9h-8.3v21.8ZM707,901.4h-4.5l8.6-25.7h6.7l8.6,25.7h-4.6l-7.7-23.6h.5l-7.7,23.6ZM720.9,894h-13.1l1-3.7h11.1l1,3.7ZM778,901.4h-4.6v-25.3c1.2-.2,2.3-.4,3.5-.5,1.2-.1,2.5-.2,3.8-.2h0c3.7,0,6.4.7,8.3,2.2,1.9,1.5,2.8,3.8,2.8,6.9h0c0,3-.9,5.2-2.7,6.8-1.8,1.5-4.6,2.3-8.3,2.3h0c-.5,0-1,0-1.4,0-.5,0-.9,0-1.4,0h0v7.9ZM780.9,890h0c2.2,0,3.9-.4,4.9-1.3,1-.9,1.5-2.3,1.5-4.2h0c0-2-.5-3.4-1.5-4.3-1-.9-2.5-1.3-4.6-1.3h0c-.6,0-1.2,0-1.7,0-.5,0-1,.1-1.5.2h0v10.7c.5,0,.9.1,1.4.1.5,0,.9,0,1.5,0ZM818,901.4h-4.6v-25.2c.7-.2,1.5-.3,2.3-.4.8-.1,1.7-.2,2.6-.3.9,0,1.8,0,2.7,0h0c3.6,0,6.3.6,8.1,1.9,1.8,1.3,2.7,3.3,2.7,6.1h0c0,1.8-.4,3.3-1.3,4.5-.8,1.2-2.1,2.1-3.7,2.7-1.6.6-3.5.9-5.8.9h0c-.6,0-1.1,0-1.6,0-.5,0-.9,0-1.4,0h0v10ZM833.8,901.4h-5.2l-8.5-11.9h5l8.7,11.9ZM821.1,888h0c2.2,0,3.8-.4,4.8-1.1,1-.7,1.5-1.9,1.5-3.5h0c0-1.1-.2-1.9-.6-2.6-.4-.7-1.1-1.2-1.9-1.5-.9-.3-2-.5-3.3-.5h0c-.7,0-1.3,0-1.9,0-.5,0-1.1.1-1.6.2h0v8.7c.4,0,.7,0,1,0,.3,0,.6,0,1,0,.3,0,.7,0,1.1,0ZM864.1,901.7h0c-2.3,0-4.4-.5-6.1-1.4-1.7-.9-3.1-2.4-4.1-4.3-1-1.9-1.4-4.4-1.4-7.4h0c0-3,.5-5.5,1.4-7.4,1-1.9,2.3-3.4,4.1-4.3,1.7-.9,3.8-1.4,6.1-1.4h0c2.3,0,4.4.5,6.1,1.4s3.1,2.4,4,4.3c1,2,1.4,4.4,1.4,7.4h0c0,3-.5,5.5-1.4,7.4-1,1.9-2.3,3.4-4.1,4.3-1.7.9-3.8,1.4-6.1,1.4ZM864.1,897.9h0c1.4,0,2.6-.3,3.6-.9,1-.6,1.8-1.6,2.4-3,.5-1.4.8-3.2.8-5.4h0c0-2.3-.3-4.1-.8-5.5-.6-1.4-1.3-2.4-2.4-3s-2.2-.9-3.6-.9h0c-1.4,0-2.6.3-3.6.9-1,.6-1.8,1.6-2.4,3-.6,1.4-.8,3.2-.8,5.4h0c0,2.3.3,4.2.8,5.6.6,1.4,1.3,2.4,2.4,3,1,.6,2.2.9,3.6.9ZM909.3,901.7h0c-2,0-3.8-.2-5.4-.7-1.6-.5-2.9-1.3-4-2.3-1.1-1-1.9-2.4-2.5-4.1-.6-1.7-.9-3.7-.9-6h0c0-3,.5-5.5,1.5-7.4,1-2,2.5-3.4,4.5-4.4,1.9-1,4.3-1.4,7.1-1.4h0c1,0,1.9,0,2.9.2.9.1,1.8.3,2.7.5h0v3.9c-.8-.2-1.7-.4-2.6-.5s-1.7-.2-2.6-.2h0c-1.9,0-3.5.3-4.7.9-1.3.6-2.2,1.6-2.8,3-.6,1.4-.9,3.1-.9,5.4h0c0,2.3.3,4.1.9,5.5.6,1.4,1.6,2.3,2.8,2.9,1.2.6,2.8.9,4.6.9h0c.9,0,1.8,0,2.7-.2.9-.1,1.8-.4,2.7-.7h0v3.9c-.8.3-1.8.5-2.8.6-1,.2-2,.2-3.1.2ZM953.6,901.4h-17.5v-25.7h17.3v3.8h-12.7v18.2h12.9v3.8ZM951.7,890.1h-12.8v-3.8h12.8v3.8ZM981.1,901.7h0c-1.2,0-2.4,0-3.5-.3-1.2-.2-2.3-.5-3.3-.8h0v-3.8c.7.2,1.5.5,2.3.6.8.2,1.6.3,2.4.4.8,0,1.5.1,2.2.1h0c1.9,0,3.2-.3,4-.9.8-.6,1.2-1.5,1.2-2.6h0c0-1-.3-1.8-.9-2.3-.6-.5-1.7-1-3.3-1.4h0l-1.7-.4c-2.2-.6-3.9-1.5-5-2.6-1.1-1.2-1.7-2.7-1.7-4.6h0c0-2.4.8-4.2,2.5-5.6,1.7-1.3,4.2-2,7.6-2h0c1.1,0,2.2,0,3.2.2,1,.1,1.9.3,2.8.6h0v3.8c-.8-.3-1.8-.5-2.7-.6-1-.1-2-.2-3-.2h0c-1.4,0-2.5.1-3.4.4-.8.3-1.5.7-1.8,1.2-.4.5-.6,1.2-.6,1.9h0c0,.9.3,1.7.8,2.2.5.5,1.5,1,3,1.4h0l1.7.5c1.6.4,3,.9,4,1.6,1.1.7,1.9,1.5,2.4,2.4.5,1,.8,2.1.8,3.4h0c0,1.6-.4,3-1.2,4.1-.8,1.1-1.9,2-3.4,2.6-1.5.6-3.3.9-5.3.9ZM1018.3,901.7h0c-1.2,0-2.4,0-3.5-.3-1.2-.2-2.3-.5-3.3-.8h0v-3.8c.7.2,1.5.5,2.3.6.8.2,1.6.3,2.4.4.8,0,1.5.1,2.2.1h0c1.9,0,3.2-.3,4-.9.8-.6,1.2-1.5,1.2-2.6h0c0-1-.3-1.8-.9-2.3-.6-.5-1.7-1-3.3-1.4h0l-1.7-.4c-2.2-.6-3.9-1.5-5-2.6s-1.7-2.7-1.7-4.6h0c0-2.4.8-4.2,2.5-5.6,1.7-1.3,4.2-2,7.6-2h0c1.1,0,2.2,0,3.2.2,1,.1,1.9.3,2.8.6h0v3.8c-.8-.3-1.8-.5-2.7-.6-1-.1-2-.2-3-.2h0c-1.4,0-2.5.1-3.4.4-.8.3-1.4.7-1.8,1.2-.4.5-.6,1.2-.6,1.9h0c0,.9.3,1.7.8,2.2.6.5,1.5,1,3,1.4h0l1.7.5c1.6.4,3,.9,4,1.6,1.1.7,1.8,1.5,2.4,2.4.5,1,.8,2.1.8,3.4h0c0,1.6-.4,3-1.2,4.1-.8,1.1-1.9,2-3.4,2.6-1.5.6-3.2.9-5.3.9ZM1054.1,901.4h-4.6v-25.7h4.6v25.7ZM1081.3,901.4h-4.4v-25.7h4.7l13.1,20h-.9v-20h4.4v25.7h-4.7l-13.1-20h.9v20ZM1134.2,901.6h0c-3.1,0-5.8-.5-7.9-1.4-2.1-.9-3.7-2.4-4.7-4.3-1.1-1.9-1.6-4.4-1.6-7.4h0c0-3,.5-5.5,1.6-7.4,1.1-2,2.7-3.4,4.7-4.4,2.1-1,4.6-1.4,7.5-1.4h0c1,0,2,0,2.9.2,1,.1,1.9.3,2.9.5h0v3.9c-1-.2-1.9-.4-2.8-.5-.9-.1-1.8-.2-2.6-.2h0c-2.1,0-3.8.3-5.2.9-1.4.6-2.4,1.6-3.1,3s-1.1,3.2-1.1,5.5h0c0,2.2.3,3.9,1,5.3.7,1.4,1.7,2.3,3,3,1.3.6,3,.9,5,.9h0c.7,0,1.5,0,2.2,0,.7,0,1.4-.1,1.9-.2h0l-1.9,1.8v-10.3h4.4v12.2c-1.1.2-2.2.3-3.2.4s-2,.1-3,.1ZM1193.9,901.4h-4.6v-25.7h17.2v3.8h-12.6v21.9ZM1204.7,890.6h-12.4v-3.8h12.4v3.8ZM1237.6,901.7h0c-2.3,0-4.4-.5-6.1-1.4-1.7-.9-3.1-2.4-4.1-4.3-1-1.9-1.4-4.4-1.4-7.4h0c0-3,.5-5.5,1.4-7.4,1-1.9,2.3-3.4,4.1-4.3,1.7-.9,3.8-1.4,6.1-1.4h0c2.3,0,4.4.5,6.1,1.4,1.7.9,3.1,2.4,4.1,4.3,1,2,1.4,4.4,1.4,7.4h0c0,3-.5,5.5-1.4,7.4-1,1.9-2.3,3.4-4.1,4.3-1.7.9-3.8,1.4-6.1,1.4ZM1237.6,897.9h0c1.4,0,2.6-.3,3.6-.9,1-.6,1.8-1.6,2.4-3,.6-1.4.8-3.2.8-5.4h0c0-2.3-.3-4.1-.8-5.5-.6-1.4-1.3-2.4-2.4-3-1-.6-2.2-.9-3.6-.9h0c-1.4,0-2.6.3-3.6.9-1,.6-1.8,1.6-2.4,3-.6,1.4-.8,3.2-.8,5.4h0c0,2.3.3,4.2.8,5.6.6,1.4,1.3,2.4,2.4,3,1,.6,2.2.9,3.6.9ZM1275.6,901.4h-4.6v-25.2c.7-.2,1.5-.3,2.3-.4.8-.1,1.7-.2,2.6-.3.9,0,1.8,0,2.7,0h0c3.6,0,6.3.6,8.1,1.9,1.8,1.3,2.7,3.3,2.7,6.1h0c0,1.8-.4,3.3-1.3,4.5-.8,1.2-2.1,2.1-3.7,2.7-1.6.6-3.5.9-5.8.9h0c-.6,0-1.1,0-1.6,0-.5,0-.9,0-1.4,0h0v10ZM1291.5,901.4h-5.1l-8.5-11.9h5l8.7,11.9ZM1278.7,888h0c2.2,0,3.8-.4,4.8-1.1,1-.7,1.5-1.9,1.5-3.5h0c0-1.1-.2-1.9-.6-2.6-.4-.7-1.1-1.2-1.9-1.5-.9-.3-2-.5-3.4-.5h0c-.7,0-1.3,0-1.9,0-.6,0-1.1.1-1.6.2h0v8.7c.4,0,.7,0,1,0,.3,0,.6,0,1,0,.3,0,.7,0,1.1,0ZM1349.2,901.4h-4.7v-21.8h-8.3v-3.9h21.2v3.9h-8.3v21.8ZM1382.6,901.4h-4.6v-25.7h4.6v10.5h11.7v-10.5h4.6v25.7h-4.6v-11.1h-11.7v11.1ZM1439.1,901.4h-17.5v-25.7h17.3v3.8h-12.7v18.2h12.9v3.8ZM1437.2,890.1h-12.8v-3.8h12.8v3.8ZM1491.6,901.4h-4.6v-25.7h17.2v3.8h-12.6v21.9ZM1502.4,890.6h-12.4v-3.8h12.4v3.8ZM1535.5,901.7h0c-2.4,0-4.4-.4-5.9-1.2-1.5-.8-2.7-1.9-3.4-3.5-.7-1.6-1.1-3.6-1.1-6h0v-15.4h4.6v15.8c0,2.2.5,3.8,1.4,4.8.9,1,2.4,1.5,4.3,1.5h0c1.9,0,3.4-.5,4.3-1.5.9-1,1.4-2.6,1.4-4.8h0v-15.8h4.6v15.4c0,2.4-.4,4.4-1.1,6-.7,1.6-1.9,2.7-3.4,3.5-1.5.8-3.5,1.2-5.8,1.2ZM1579,901.4h-4.6v-21.8h-8.3v-3.9h21.2v3.9h-8.3v21.8ZM1618,901.7h0c-2.4,0-4.4-.4-5.9-1.2s-2.7-1.9-3.4-3.5c-.7-1.6-1.1-3.6-1.1-6h0v-15.4h4.6v15.8c0,2.2.5,3.8,1.4,4.8.9,1,2.4,1.5,4.3,1.5h0c2,0,3.4-.5,4.3-1.5.9-1,1.4-2.6,1.4-4.8h0v-15.8h4.6v15.4c0,2.4-.4,4.4-1.1,6-.7,1.6-1.8,2.7-3.4,3.5-1.5.8-3.5,1.2-5.8,1.2ZM1655.5,901.4h-4.6v-25.2c.7-.2,1.5-.3,2.3-.4.8-.1,1.7-.2,2.6-.3.9,0,1.8,0,2.7,0h0c3.6,0,6.3.6,8.1,1.9,1.8,1.3,2.7,3.3,2.7,6.1h0c0,1.8-.4,3.3-1.3,4.5-.8,1.2-2.1,2.1-3.7,2.7-1.6.6-3.5.9-5.8.9h0c-.6,0-1.1,0-1.6,0-.5,0-.9,0-1.4,0h0v10ZM1671.4,901.4h-5.1l-8.5-11.9h5l8.7,11.9ZM1658.6,888h0c2.2,0,3.8-.4,4.8-1.1,1-.7,1.5-1.9,1.5-3.5h0c0-1.1-.2-1.9-.6-2.6-.4-.7-1.1-1.2-1.9-1.5-.9-.3-2-.5-3.4-.5h0c-.7,0-1.3,0-1.9,0-.6,0-1.1.1-1.6.2h0v8.7c.4,0,.7,0,1,0,.3,0,.6,0,1,0,.3,0,.7,0,1.1,0ZM1709.6,901.4h-17.5v-25.7h17.3v3.8h-12.7v18.2h12.9v3.8ZM1707.7,890.1h-12.8v-3.8h12.8v3.8Z"/>
    <path class="cls-3" d="M222.1,788h0c0,9.6-3.5,16.9-10.6,21.9-7.1,5-17.5,7.5-31.1,7.5h-45.3l18.6-95.6h37.9c10.7,0,18.9,1.9,24.6,5.7,5.7,3.8,8.5,9.2,8.5,16.3h0c0,12.7-7.4,20.4-22.3,23.3h0c6.2,1,11,3.4,14.5,7.2,3.5,3.7,5.2,8.3,5.2,13.6ZM168.6,735.2l-5,25.8h20.8c7.9,0,13.7-1.2,17.2-3.5,3.5-2.4,5.3-6.1,5.3-11.2h0c0-3.8-1.4-6.7-4.1-8.5-2.7-1.8-7.1-2.7-13.2-2.7h-21.1ZM161.1,774.3l-5.8,29.8h23.1c9.5,0,16.2-1.3,20.1-3.9,3.9-2.6,5.9-6.8,5.9-12.5h0c0-4.3-1.6-7.6-4.9-9.9-3.3-2.3-8.3-3.5-15.2-3.5h-23.2ZM307.6,771.1h0c0,5.1-.6,10.1-1.8,15-1.2,4.9-3,9.3-5.3,13.2h0c-3.6,6.3-8.5,11.1-14.6,14.5-6.1,3.4-13.1,5.1-20.9,5.1h0c-9.5,0-17-2.7-22.6-8-5.6-5.3-8.3-12.6-8.3-21.8h0c0-9.2,1.9-17.3,5.3-24.3h0c3.5-7,8.4-12.5,14.7-16.3,6.3-3.8,13.6-5.7,22-5.7h0c10.3,0,18.1,2.5,23.5,7.4,5.4,5,8.1,11.9,8.1,20.9ZM290.1,772h0c0-11.8-5-17.6-15-17.6h0c-5.5,0-9.8,1.4-13.1,4.3h0c-2.2,1.9-4,4.5-5.6,7.8-1.6,3.3-2.7,6.9-3.5,10.8-.8,3.9-1.2,7.6-1.2,11.2h0c0,6.1,1.3,10.8,3.8,13.9,2.5,3.1,6.3,4.7,11.3,4.7h0c3.2,0,6-.5,8.2-1.5,2.3-1,4.3-2.4,6-4.4h0c2.7-2.8,4.8-6.8,6.4-12,1.6-5.2,2.5-10.9,2.8-17.3ZM363.8,804.9h-.2c-3.6,5-7.3,8.5-11.3,10.6-4,2.1-8.6,3.2-13.8,3.2h0c-6.8,0-11.9-1.7-15.4-5s-5.2-8.1-5.2-14.3h0c0-.8,0-1.9.2-3.2s.3-2.7.5-4.1c.2-1.4.4-2.7.7-3.7h0l8.6-44.3h16.7l-8.2,41.5c-1,5.1-1.6,8.7-1.6,10.8h0c0,6.4,3.6,9.6,10.9,9.6h0c3.3,0,6.4-.9,9.4-2.6,2.9-1.8,5.5-4.2,7.6-7.4,2.1-3.1,3.5-6.7,4.3-10.8h0l8-41.1h16.8l-11.2,57.7c-.4,1.9-.8,4.2-1.3,6.8-.4,2.6-.9,5.6-1.3,8.9h-16c0-.3.1-1.3.3-3s.5-3.5.8-5.3c.3-1.9.5-3.3.7-4.2h0ZM421.6,776.3h0l-8,41.1h-16.8l11.3-57.7c.4-1.9.8-4.1,1.2-6.8.4-2.6.9-5.6,1.4-8.9h15.9c0,.3,0,1.3-.3,3-.2,1.7-.4,3.5-.7,5.4-.3,1.9-.5,3.3-.7,4.2h.2c3.5-4.9,7.3-8.4,11.3-10.6,4-2.2,8.6-3.3,13.8-3.3h0c6.8,0,12,1.7,15.4,5,3.4,3.3,5.2,8.1,5.2,14.3h0c0,1.2-.1,3-.4,5.2-.3,2.3-.6,4.2-1,5.9h0l-8.6,44.3h-16.7l8.2-41.5c1-5.1,1.6-8.8,1.6-10.8h0c0-6.4-3.6-9.6-10.9-9.6h0c-3.3,0-6.4.9-9.4,2.7s-5.5,4.2-7.6,7.4c-2.1,3.1-3.5,6.7-4.3,10.8ZM503.6,818.8h0c-7,0-12.5-2.3-16.6-6.8-4-4.5-6-10.6-6-18.2h0c0-8.8,1.4-17.4,4.3-25.8h0c2.9-8.4,6.9-14.7,12-19,5.1-4.3,11.5-6.4,19.1-6.4h0c5.7,0,10.3,1.1,13.8,3.4,3.5,2.3,6,5.6,7.3,10h.3c.2-1.2.4-2.7.7-4.6.3-1.8.7-3.9,1.1-6.4h0l5.6-28.3h16.6l-16.3,85.2c-.5,2.7-1,5.4-1.3,8-.3,2.6-.6,5.1-.8,7.5h-16.6c0-2.7.4-6.3,1.2-10.9h-.3c-3.3,4.3-6.7,7.4-10.4,9.3-3.7,2-8.3,3-13.7,3ZM510.3,807h0c7.6,0,13.4-3.4,17.3-10.1h0c1.4-2.3,2.5-4.9,3.5-8,1-3.1,1.7-6.3,2.2-9.5.5-3.2.8-6.1.8-8.7h0c0-5.5-1.2-9.6-3.5-12.3-2.4-2.7-5.9-4-10.4-4h0c-4.9,0-8.8,1.6-11.9,4.7h0c-2,2.1-3.7,5-5.1,8.7-1.4,3.7-2.5,7.7-3.3,11.9-.8,4.2-1.2,8.1-1.2,11.7h0c0,5.2,1,9.1,2.9,11.7,1.9,2.6,4.9,3.9,8.8,3.9ZM620.4,818.1h0c-4.4,0-7.8-.9-10-2.8-2.3-1.9-3.4-4.4-3.4-7.6h0c0-.8,0-1.6,0-2.3,0-.7.1-1.4.3-2h-.4c-3.8,5.8-7.6,9.9-11.4,12.1-3.8,2.2-8.4,3.3-13.9,3.3h0c-6.3,0-11.4-1.9-15.3-5.7-3.8-3.8-5.8-8.6-5.8-14.5h0c0-8.4,2.9-14.7,8.8-19,5.8-4.3,15.3-6.5,28.3-6.8h0l13.8-.2c1-4.3,1.4-7.2,1.4-8.8h0c0-3.3-.9-5.8-2.6-7.4-1.8-1.6-4.3-2.4-7.7-2.4h0c-4.6,0-8.1.9-10.4,2.6-2.3,1.7-3.9,4.3-4.8,7.7h0l-15.9-2.1c1.7-6.6,5.2-11.5,10.5-14.7,5.3-3.3,12.3-4.9,21.1-4.9h0c8.8,0,15.4,1.7,19.8,5.1,4.4,3.4,6.6,8.4,6.6,14.9h0c0,2.1-.5,5.7-1.5,10.6h0l-4.9,24.5c-.4,2.2-.6,4-.6,5.3h0c0,1.8.6,3,1.7,3.6,1.1.6,2.4.9,3.6.9h0c1.4,0,2.8-.2,4.2-.5h0l-1,9.6c-1.8.6-3.5,1-5.3,1.1-1.8.2-3.6.2-5.4.2ZM577.9,796.2h0c0,3.3,1,5.8,2.9,7.7,1.9,1.9,4.5,2.9,7.6,2.9h0c3.9,0,7.4-1.2,10.6-3.7h0c2.2-1.6,4.1-3.5,5.6-5.9,1.5-2.4,2.6-4.9,3.3-7.7h0l1.6-7h-11.9c-3.6.1-6.6.5-9,1.2-2.4.7-4.4,1.5-6,2.7h0c-1.5,1.1-2.7,2.5-3.5,4.1-.8,1.6-1.3,3.6-1.3,5.7ZM693.6,743.6l-2.8,14c-2.7-.7-5.1-1-7.2-1h0c-3.5,0-6.7,1-9.5,2.9-2.8,1.9-5.2,4.7-7.1,8.4-1.9,3.7-3.4,8.2-4.5,13.5h0l-7,36h-16.8l10.9-56.3c.3-1.4.5-2.8.8-4.2.3-1.4.5-2.8.7-4.2h0c.3-1.4.5-2.9.7-4.3.2-1.4.4-2.9.6-4.3h16l-1.6,11.6-.5,3.4h.3c3.2-6.1,6.4-10.3,9.5-12.7,3.1-2.4,6.6-3.6,10.7-3.6h0c2,0,4.3.3,6.8.9h0ZM692.2,846.2h0c-3.9,0-7.5-.4-10.8-1.2h0l2.4-11.9c2,.4,3.9.6,5.7.6h0c3.8,0,7.1-1.2,10-3.5,2.9-2.4,5.7-6,8.6-11h0l1.9-3.2-14.5-72h17.3l5.8,36c.2,1.5.5,3.3.8,5.5.3,2.1.6,4.3.8,6.5.3,2.2.5,4.2.7,5.9.2,1.7.3,2.9.3,3.6h0c.2-.5.4-.9.7-1.4.2-.5.4-1,.7-1.5h0l9-18.4,19.2-36.3h18.1l-43.7,76c-4.9,8-8.9,13.6-11.9,16.7h0c-3,3.2-6.2,5.6-9.5,7.2-3.3,1.6-7.1,2.3-11.3,2.3ZM822.7,721.8h36.1c10.9,0,19.4,2.5,25.6,7.4s9.2,11.8,9.2,20.4h0c0,6.7-1.6,12.6-4.7,17.5-3.2,4.9-7.6,8.7-13.3,11.4-5.7,2.6-12.5,4-20.4,4h-26.7l-6.8,34.9h-17.6l18.5-95.6ZM837.7,735.7l-6.4,33.2h21.8c7.5,0,13.2-1.5,17-4.4,3.8-2.9,5.7-7.6,5.7-13.8h0c0-4.9-1.6-8.6-4.7-11.2-3.1-2.5-7.7-3.8-13.6-3.8h-19.7ZM971.6,771.1h0c0,5.1-.6,10.1-1.8,15-1.2,4.9-3,9.3-5.3,13.2h0c-3.6,6.3-8.5,11.1-14.6,14.5-6.1,3.4-13.1,5.1-20.9,5.1h0c-9.5,0-17-2.7-22.6-8-5.6-5.3-8.3-12.6-8.3-21.8h0c0-9.2,1.9-17.3,5.3-24.3h0c3.5-7,8.4-12.5,14.7-16.3,6.3-3.8,13.6-5.7,22-5.7h0c10.3,0,18.1,2.5,23.5,7.4,5.4,5,8.1,11.9,8.1,20.9ZM954.1,772h0c0-11.8-5-17.6-15-17.6h0c-5.5,0-9.8,1.4-13.1,4.3h0c-2.2,1.9-4,4.5-5.6,7.8-1.6,3.3-2.7,6.9-3.5,10.8-.8,3.9-1.2,7.6-1.2,11.2h0c0,6.1,1.3,10.8,3.8,13.9,2.5,3.1,6.3,4.7,11.3,4.7h0c3.2,0,6-.5,8.2-1.5,2.3-1,4.3-2.4,6-4.4h0c2.7-2.8,4.8-6.8,6.4-12,1.6-5.2,2.5-10.9,2.8-17.3ZM997.9,716.8h16.8l-2.6,13.2h-16.8l2.6-13.2ZM992.6,744h16.8l-14.3,73.4h-16.8l14.3-73.4ZM1039.3,776.3h0l-8,41.1h-16.8l11.2-57.7c.4-1.9.8-4.1,1.2-6.8s.9-5.6,1.4-8.9h15.9c0,.3-.1,1.3-.3,3-.2,1.7-.4,3.5-.7,5.4-.3,1.9-.5,3.3-.7,4.2h.2c3.5-4.9,7.3-8.4,11.2-10.6,4-2.2,8.6-3.3,13.9-3.3h0c6.8,0,11.9,1.7,15.4,5,3.4,3.3,5.2,8.1,5.2,14.3h0c0,1.2-.1,3-.4,5.2-.3,2.3-.6,4.2-1,5.9h0l-8.6,44.3h-16.7l8.2-41.5c1-5.1,1.6-8.8,1.6-10.8h0c0-6.4-3.6-9.6-10.9-9.6h0c-3.3,0-6.4.9-9.4,2.7s-5.5,4.2-7.6,7.4c-2.1,3.1-3.5,6.7-4.3,10.8ZM1117.6,818.6h0c-5,0-8.9-1.3-11.7-3.8-2.8-2.5-4.2-6.1-4.2-10.6h0c0-3,.4-6.4,1.1-10h0l7.4-38.6h-9.5l2.2-11.5h10.2l8.6-17h10.6l-3.3,17h13.7l-2.2,11.5h-13.8l-7.5,38.8c-.5,2.7-.7,4.7-.7,6.2h0c0,2,.5,3.6,1.6,4.6,1,1,2.5,1.5,4.4,1.5h0c1.6,0,4-.3,7.1-.9h0l-1.8,11.2c-3.9,1.1-8,1.6-12.3,1.6ZM1217.7,818.8h0c-11.8,0-20.8-2.1-27.1-6.3-6.3-4.2-10.1-10.6-11.5-19.2h0l17.1-3c1,5.3,3.3,9.2,6.9,11.6,3.6,2.4,8.8,3.6,15.8,3.6h0c8.6,0,14.9-1.2,19-3.7,4.1-2.5,6.2-6.3,6.2-11.3h0c0-2.2-.5-4.1-1.4-5.7-.9-1.6-2.3-3-4.3-4.2h0c-1.5-.9-3.5-1.8-6.2-2.8-2.7-1-6-2-10-3h0c-8.1-2.2-14.1-4.4-18-6.8h0c-3.9-2.4-6.9-5.2-9-8.6-2.1-3.4-3.1-7.4-3.1-12.2h0c0-5.4,1.6-10.1,4.8-14.1,3.2-4,7.7-7.1,13.5-9.2,5.8-2.2,12.6-3.2,20.4-3.2h0c10.5,0,18.9,1.9,25.2,5.6,6.3,3.8,10.3,9.2,11.8,16.4h0l-17,4.2c-1.2-4.3-3.5-7.6-7-10-3.5-2.4-8.1-3.6-13.8-3.6h0c-6.6,0-11.7,1.2-15.2,3.5-3.5,2.3-5.3,5.6-5.3,9.8h0c0,2.3.6,4.2,1.8,5.8,1.2,1.6,3,2.9,5.3,4.1h0c1.2.6,3,1.3,5.3,2.1,2.4.8,5.3,1.7,8.9,2.6h0c6.3,1.7,11.1,3.4,14.5,4.9,3.3,1.6,6,3.3,8.1,5.1h0c2.6,2.2,4.6,4.8,6,7.7,1.4,2.9,2.1,6.4,2.1,10.4h0c0,9.6-3.7,17-11,22.1-7.3,5.1-18.3,7.6-32.8,7.6ZM1347.2,771.1h0c0,5.1-.6,10.1-1.8,15-1.2,4.9-3,9.3-5.3,13.2h0c-3.6,6.3-8.5,11.1-14.6,14.5-6.1,3.4-13.1,5.1-20.9,5.1h0c-9.5,0-17-2.7-22.6-8-5.6-5.3-8.3-12.6-8.3-21.8h0c0-9.2,1.9-17.3,5.3-24.3h0c3.5-7,8.4-12.5,14.6-16.3,6.3-3.8,13.6-5.7,22.1-5.7h0c10.3,0,18.1,2.5,23.5,7.4,5.4,5,8.1,11.9,8.1,20.9ZM1329.7,772h0c0-11.8-5-17.6-15-17.6h0c-5.5,0-9.8,1.4-13.1,4.3h0c-2.2,1.9-4,4.5-5.6,7.8-1.6,3.3-2.7,6.9-3.6,10.8-.8,3.9-1.2,7.6-1.2,11.2h0c0,6.1,1.3,10.8,3.8,13.9,2.5,3.1,6.3,4.7,11.3,4.7h0c3.2,0,5.9-.5,8.2-1.5,2.3-1,4.3-2.4,6-4.4h0c2.7-2.8,4.8-6.8,6.4-12,1.6-5.2,2.5-10.9,2.8-17.3ZM1373.5,716.8h16.8l-19.6,100.6h-16.7l19.5-100.6ZM1439.4,804.9h-.2c-3.6,5-7.4,8.5-11.3,10.6-4,2.1-8.6,3.2-13.9,3.2h0c-6.8,0-11.9-1.7-15.4-5s-5.2-8.1-5.2-14.3h0c0-.8,0-1.9.2-3.2.2-1.3.4-2.7.6-4.1.2-1.4.4-2.7.6-3.7h0l8.6-44.3h16.8l-8.2,41.5c-1,5.1-1.5,8.7-1.5,10.8h0c0,6.4,3.6,9.6,10.9,9.6h0c3.3,0,6.4-.9,9.4-2.6,2.9-1.8,5.5-4.2,7.6-7.4,2.1-3.1,3.5-6.7,4.3-10.8h0l8-41.1h16.8l-11.3,57.7c-.4,1.9-.8,4.2-1.3,6.8-.4,2.6-.9,5.6-1.3,8.9h-16c0-.3.1-1.3.3-3,.2-1.7.5-3.5.8-5.3.3-1.9.5-3.3.7-4.2h0ZM1493.3,818.6h0c-5,0-8.9-1.3-11.7-3.8-2.8-2.5-4.2-6.1-4.2-10.6h0c0-3,.4-6.4,1.1-10h0l7.5-38.6h-9.5l2.2-11.5h10.2l8.6-17h10.6l-3.3,17h13.7l-2.2,11.5h-13.8l-7.5,38.8c-.5,2.7-.8,4.7-.8,6.2h0c0,2,.5,3.6,1.6,4.6,1,1,2.5,1.5,4.4,1.5h0c1.6,0,4-.3,7.1-.9h0l-1.8,11.2c-3.9,1.1-8,1.6-12.3,1.6ZM1535.6,716.8h16.8l-2.6,13.2h-16.7l2.6-13.2ZM1530.3,744h16.8l-14.3,73.4h-16.7l14.2-73.4ZM1627.6,771.1h0c0,5.1-.6,10.1-1.8,15-1.2,4.9-3,9.3-5.3,13.2h0c-3.6,6.3-8.5,11.1-14.6,14.5-6.1,3.4-13.1,5.1-20.9,5.1h0c-9.5,0-17-2.7-22.6-8-5.6-5.3-8.4-12.6-8.4-21.8h0c0-9.2,1.9-17.3,5.3-24.3h0c3.5-7,8.4-12.5,14.7-16.3,6.3-3.8,13.6-5.7,22-5.7h0c10.3,0,18.1,2.5,23.5,7.4,5.4,5,8.1,11.9,8.1,20.9ZM1610.1,772h0c0-11.8-5-17.6-15-17.6h0c-5.5,0-9.8,1.4-13.1,4.3h0c-2.2,1.9-4,4.5-5.6,7.8-1.6,3.3-2.8,6.9-3.6,10.8-.8,3.9-1.2,7.6-1.2,11.2h0c0,6.1,1.3,10.8,3.8,13.9,2.5,3.1,6.3,4.7,11.2,4.7h0c3.2,0,6-.5,8.2-1.5,2.3-1,4.3-2.4,6-4.4h0c2.7-2.8,4.8-6.8,6.4-12,1.6-5.2,2.5-10.9,2.8-17.3ZM1659.3,776.3h0l-8,41.1h-16.8l11.3-57.7c.4-1.9.8-4.1,1.2-6.8.4-2.6.9-5.6,1.4-8.9h15.9c0,.3,0,1.3-.3,3-.2,1.7-.4,3.5-.7,5.4-.3,1.9-.5,3.3-.7,4.2h.2c3.5-4.9,7.3-8.4,11.3-10.6,4-2.2,8.6-3.3,13.8-3.3h0c6.8,0,12,1.7,15.4,5,3.4,3.3,5.2,8.1,5.2,14.3h0c0,1.2-.1,3-.4,5.2-.3,2.3-.6,4.2-1,5.9h0l-8.6,44.3h-16.7l8.2-41.5c1-5.1,1.6-8.8,1.6-10.8h0c0-6.4-3.6-9.6-10.9-9.6h0c-3.3,0-6.4.9-9.4,2.7-3,1.8-5.5,4.2-7.6,7.4-2.1,3.1-3.5,6.7-4.3,10.8ZM1780.1,795.2h0c0,7.7-2.9,13.5-8.6,17.6-5.7,4-14.1,6-25,6h0c-8.7,0-15.5-1.5-20.6-4.5-5-3-8.5-7.7-10.3-14.1h0l14.6-2.9c1.1,3.6,3.1,6.2,5.8,7.8,2.7,1.6,6.6,2.4,11.8,2.4h0c11.1,0,16.6-3.5,16.6-10.5h0c0-2.4-1-4.4-3-6h0c-2-1.4-6.4-2.9-13.2-4.6h0c-5.6-1.5-10-3.1-13.2-4.9h0c-3.6-2-6.3-4.4-7.9-7.1-1.7-2.8-2.5-6-2.5-9.7h0c0-7,2.8-12.4,8.3-16.1,5.5-3.8,13.4-5.6,23.6-5.6h0c8.9,0,15.6,1.5,20.2,4.6,4.5,3.1,7.3,7.8,8.4,14.2h0l-15,1.9c-.8-3.3-2.4-5.7-4.8-7.1-2.4-1.4-5.6-2.2-9.8-2.2h0c-5,0-8.7.7-11.3,2.2-2.6,1.5-3.8,3.7-3.8,6.6h0c0,1.6.5,3,1.4,4.1.9,1.1,2.3,2.1,4,2.9h0c1.7.8,5.7,2.1,12.1,3.7h0c6.1,1.5,10.7,3.4,14,5.5h0c2.9,1.9,5,4.2,6.4,6.8,1.4,2.6,2.1,5.6,2.1,9.1Z"/>
  </g>
</svg>