<svg xmlns="http://www.w3.org/2000/svg" viewBox="-210.10497985839845 24.79999542236328 995.2099609375 514.9600057601929"><rect height="100%" width="100%" x="-210.10497985839845" y="24.79999542236328" fill="rgba(64, 64, 64, 1)"/> <svg xmlns="http://www.w3.org/2000/svg" xmlns:xlink="http://www.w3.org/1999/xlink" version="1.1" x="172.503" y="94.79999542236328" viewBox="62.860836029052734 62.965152740478516 366.13922119140625 364.13482666015625" xml:space="preserve" height="228.734375" width="230" preserveAspectRatio="xMinYMin" enable-background="new 0 0 500 500" style="overflow: visible;"><path class="st0" d="M262.3,63.7l-8-0.5c4.8,0.4,8.2,0.7,10.9,0.9C264.3,63.9,263.3,63.8,262.3,63.7z" style="fill: #196917; fill-opacity: 1;"></path><path class="st0" d="M283.4,66.8L283.4,66.8c-0.4-0.1-0.7-0.1-1.1-0.2c-7.8-1.5-10.9-2-17-2.6c6,0.8,13.1,1.9,18.6,2.9    C283.8,66.9,283.6,66.9,283.4,66.8z" style="fill: #196917; fill-opacity: 1;"></path><path class="st0" d="M418,184.2l-0.6-1.8c-0.1-0.2-0.2-0.4-0.2-0.6c0,0,0,0.1,0,0.1C417.5,182.6,417.7,183.4,418,184.2z" style="fill: #196917; fill-opacity: 1;"></path><path class="st0" d="M368.6,110.1l-0.6-0.5c-0.3-0.3-0.7-0.6-1.1-0.9C367.5,109.2,368,109.6,368.6,110.1    C368.5,110.1,368.6,110.1,368.6,110.1z" style="fill: #196917; fill-opacity: 1;"></path><path class="st0" d="M359.8,106c0.3-1-3.7-4.6-6.2-6.6c-5-4-11.4-8-13.7-8.6c-0.1,0-0.3,0-0.4,0.1    C339.7,92.2,357.8,106.9,359.8,106z" style="fill: #196917; fill-opacity: 1;"></path><path class="st0" d="M312.8,78.1c-0.1-0.7-2.9-2.2-6-3.5c0,0,0,0,0,0c2.9,0.2,5.2,0.7,7,1.4l-5.6-2.1c-1.7-0.6-3.8-1-6.3-1.2    c0.1,0,0.2,0.1,0.3,0.1c-5-1.8-9.9-3.1-11.7-3.2c-0.1,0-0.2,0-0.3,0c0,0,0,0.1,0,0.1C291.1,70.7,311.9,79.2,312.8,78.1z     M306.3,74.4c0.1,0,0.1,0.1,0.2,0.1c0,0,0,0,0,0C306.5,74.5,306.4,74.4,306.3,74.4z" style="fill: #196917; fill-opacity: 1;"></path><path class="st0" d="M162.9,88.4c0.6,1.8,5.1-0.8,7.1-4.5c4.4-1.8,9-3.6,13.6-5.4c0.5-0.2,0.7-0.6,0.6-0.9c0,0-1.1-3-1.4-3.5    l-0.8,0.3c-0.1,0.9-0.1,0.9,0.4,3.3c-4,1.5-8,3.1-11.8,4.7c0,0,0,0,0,0c0.2-0.8,0.2-1.6-0.9-1.3c0,0,0,0,0.1,0    c1.4-1.6,2.9-2.8,4.7-3.6l-0.8,0.4c-1.9,0.8-3.6,2.1-5.1,3.8c0,0,0,0,0,0c-1.6,0.9-3.6,2.5-4.7,4c0.1-0.2,0.2-0.3,0.4-0.5    c-11.1,5-23.6,11-32.8,18.1l-5.4,4.5c3.3-2.7,12-9.8,36.9-20.8C162.8,87.5,162.7,88,162.9,88.4z" style="fill: #196917; fill-opacity: 1;"></path><polygon class="st0" points="406,239.9 406,239.9 406,239.9   " style="fill: #196917; fill-opacity: 1;"></polygon><path class="st0" d="M155.2,352.9c-0.1-0.1-0.1-0.2-0.2-0.3c-11.9,7.6-20.7,14.7-25.2,20.7c-4.2,5.5-4.4,9.6-1.1,12.3l4.6,3.7    c-3.4-2.6-3.3-6.7,0.9-12.3c4.4-5.9,13-12.8,24.7-20.3C158.3,356.3,156.8,354.9,155.2,352.9z" style="fill: #196917; fill-opacity: 1;"></path><path class="st0" d="M379.2,226c-3.6,0.9-5.2,5.9-5.1,11.3c-7.2,1.2-15.1,2.8-23.5,4.7c-9.9-10.8-25.1-25.7-27.3-25.4    c-9.2,2.4-18.8,5.2-28.8,8.3c0.1,0.2,0.1,0.3,0.2,0.5c-2.4-5.1-7.3-9-13.1-7.5c-9.8,3.9-7.6,19.8,1.3,24.8    c7.7,4.4,14.8-2.5,13.5-12c9.7-3,19-5.6,27.8-8c5.1,4.5,11.9,10.4,16.5,15.4c9.3,10,9.3,10,10.2,10c8.6-2,16.6-3.6,23.9-5.2    c0.7,3.4,2,6.6,3.9,8.3c4.2,4,8.8-2.1,8.5-11.4C386.8,233,383.7,225.8,379.2,226z" style="fill: #196917; fill-opacity: 1;"></path><path class="st0" d="M405.2,207.6c2.8,1.6,4.1-3.3,2.8-10.2c0,0.2,0.1,0.3,0.1,0.5c9.6,0.8,15.2,3.4,16.2,7.8l-1.5-6l-0.1-0.3    l-2.2-7.7l-1-3c1.1,3.3,2.1,6.6,2.9,10c-1.7-3.7-7.2-5.9-15.8-6.6c0.1,0.2,0.1,0.3,0.2,0.5c-1.8-5.4-4.7-10.5-7.3-10.9    c-0.1,0-0.3,0-0.4,0.1C394.5,183,399.6,204.6,405.2,207.6z" style="fill: #196917; fill-opacity: 1;"></path><path class="st0" d="M420.3,299.7c-0.1,0.5-0.2,1.1-0.4,1.7l1.7-5.7c0.2-0.7,0.3-1.3,0.3-1.9l0,0c-0.3,0.5-1.5,4.8-1.6,5.5    C420.3,299.4,420.3,299.5,420.3,299.7z" style="fill: #196917; fill-opacity: 1;"></path><path class="st0" d="M428.7,243.5L428.7,243.5L428.7,243.5c0-0.1,0-0.3,0-0.5c-0.1-6.1-8.3-9.1-22.8-9c0,0.4,0.1,0.7,0.1,1    c-0.4-6.1-2.6-12.2-5.9-12.4c-1.2,0.2-2.1,1.2-2.8,2.6c-12-20.7-18.7-30-40.1-51.2c-0.5-0.4-0.6-0.5-1.1-0.6    c-4.2,0.7-8.3,1.5-12.5,2.3c-3.2-8.3-6.8-16.1-10.6-23.6c23.7-4.9,42.5-6.9,54.8-5.8c0.1,0,0.2-0.1,0.2-0.2c0-0.2,0-0.4,0-0.5    c-5.4-20.7-14.4-29.9-22.3-38c0,0-0.1-0.1-0.1-0.1c0.4,0.4,0.9,0.7,1.3,1.1c-4.7-4-12.5-10.3-17.7-13.8c3.9,2.9,8.7,6.6,13.1,10.1    c12,12.1,16.5,18.5,22.2,36.4c-12.2-1-30.7,1-54.1,5.8c-2.6-4.9-5.4-9.6-8.4-14.2c-0.1-0.2-0.2-0.3-0.4-0.4c0,0,0.1,0.1,0.1,0.1    c2.9-1.8,2.4-5.5,0.5-9c0,0.1,0.1,0.1,0.1,0.2c7.2-1.4,13.9-2.5,20-3.2c0.4-0.1,0.5-0.2,0.4-0.7c-2.1-10.3-2.9-12.1-6.9-20.8    c5-0.3,9.3-0.2,12.9,0.2c-1.6-1.2-2.9-2.2-4.3-3.4c-3.7-0.4-8.1-0.4-13.1-0.1c-0.1,0-0.1,0.1-0.2,0.1c0,0.1,0,0.3,0.1,0.4    c4.3,8.3,4.8,10.3,7.1,20.2c-5.9,0.8-12.3,1.8-19.2,3.1c0.1,0.1,0.2,0.3,0.3,0.4c-3.4-3.7-8.4-6.7-12.7-6.1    c-0.5,0.2-1.2,0.4-1.8,0.8c-4.5,3.9,3.6,16.8,13.3,18.3c-0.1-0.3-0.2-0.6-0.2-1c0-0.4,0.3-0.8,0.7-0.9c-0.4,0.2-1.2,0.7-0.2,2.6    c2.8,4.5,5.5,9.2,8.1,14.1c-4.2,0.9-8.5,1.9-12.9,2.9c0.1,0.2,0.2,0.3,0.3,0.5c-2.9-4.4-8-8-13-7c-0.4,0.1-0.8,0.3-1.2,0.4    c-1.1,0.6-2,1.4-2.5,2.4c-15.1-8.7-17.5-10-32.8-17.6c-0.8-0.3-1-0.3-1.7-0.2c-3.3,1-6.7,2-10.1,3.1c-5.5,1.7-11.1,3.5-16.6,5.3    c0.2,0.3,0.4,0.5,0.6,0.8c-2.8-4.1-7.9-6.2-12.3-4.8c0.6-0.2,1.3-0.3,2-0.4c-1.9-4.1-3.7-7.9-5.5-11.6c7.1-2.4,14.3-4.8,21.5-7    c15.8-4.9,30.4-8.9,43.6-11.9c0.2-0.1,0.4-0.3,0.5-0.4c-0.7-10.4-0.7-10.6-2.4-15.9c24-4.7,41-5.3,47.9-1.6l-5.3-2.7    c-7-3.4-23.5-2.8-46.8,1.8c-0.1,0.1-0.3,0.3-0.4,0.4c2.2,8.3,2.3,8.8,2.6,15.1c-12.7,3-26.8,6.8-42,11.5c-7,2.2-14.1,4.5-21,6.9    c-3.7-7.6-7.3-14.3-10.7-20c-0.1,0-0.1,0.1-0.2,0.1c2.6-1.4,3.9-4.4,2.2-7.2c-1.3-2.3-5.3-5-9.9-3.6c-0.3,0.1-0.8,0.3-1.1,0.5    c-4.6,2.7-2.8,9.5,3,11c1.1,0.3,2.2,0.4,3.2,0.2c3.1,5.9,6.5,12.7,10,20.3c-7.1,2.5-14.1,5-21,7.6c-15.8-8.5-19.2-10.6-27.9-16.4    c0.4-1.1,0.7-2.3,0.7-3.6c0.1-3.4-2-6.1-5.4-4.7c0.4-0.2,0.7-0.3,1.1-0.3c0.3-3.6,0.8-6.8,1.4-9.6c8.5-3.5,21.4-8.9,40.4-15    c-0.3-0.2-0.9-0.5-1.4-1c1.7,1.5,5.4,2.8,8.6,2.3c-0.1,0-0.1,0-0.2,0c4.3,3.5,8.9,8.3,13.6,14.1c0,0,0,0,0.1,0    c-0.2,0.1-0.3,0.2-0.5,0.3c-4.8,3.6,0,11.6,7.6,12.7c6.7,1,10.6-3.9,7.1-8.9c-1.1-1.6-2.8-2.9-4.7-3.8c0,0,0.1,0,0.1,0.1    c1.2-8.3,1.4-9.4,0.9-14.4c12.7-3.4,24-5.9,33.6-7.4l6.8,1.6c4.3,2.9,16.3,7.4,19.1,6.6c1.7-0.5-0.5-2.7-4.9-4.7    c-5-2.4-11.9-4.2-14.9-4c-0.3,0.1-0.6,0.1-0.7,0.3c-0.1,0.2-0.1,0.4,0.1,0.7l-8-1.8c-0.5-0.1-0.6-0.1-1-0.1    c-9.5,1.4-20.7,3.9-33.3,7.3c-0.5,0.2-0.5,0.2-0.2,5.6c0.1,2.8-0.7,6.5-1.2,9.2c0.2,0,0.4,0.1,0.5,0.1c-1.3-0.3-2.6-0.3-3.8-0.2    c0.2,0,0.3-0.1,0.5-0.1c-4.9-5.7-9.7-10.4-14.3-13.8c0,0,0,0,0,0c1.7-0.9,1.7-2.5-0.1-3.7c0,0,0.1,0,0.1,0.1    c17.3-4.7,27.8-7.5,42.6-9.2c10,1.3,21.4,2.7,36,6.7c-0.8-0.3-1.7-0.7-2.4-1.1c-0.1,0-15.3-4.5-36.9-6.2c-0.3,0-0.6,0-0.8,0    c-10.4,1-24.2,3.9-40.6,8.8c0.1,0,0.2,0.1,0.2,0.1c-2.2-0.8-5-1.1-7.2-0.7c0,0,0.1,0,0.1,0c-4.7-2-9.1-2.5-13.1-1.3l-0.8,0.2    l-0.3,0.1c3.7-1.1,7.8-0.6,12.3,1.5c0,0,0,0,0,0c-0.3,0.2-0.6,0.4-0.8,0.7c-0.4,0.7-0.1,1.6,0.7,2.4c-0.1-0.1-0.1-0.1-0.2-0.2    c-13.3,4.2-26.3,9-38.2,14.1c0.2-0.5,0.3-1,0.5-1.5l-0.1,0.1c-0.6,0.4-1.1,0.6-1.6,0.7c-0.2,0.5-0.4,1-0.6,1.6    c-22.6,9.7-41,20.1-48.7,27.8l-4.3,4.6c9.3-9.1,26.9-19.2,52.3-30.2c-0.8,2.9-1.4,6.2-1.8,9.8c0.1-0.1,0.2-0.1,0.2-0.1    c-4.4,2.7-6.8,10.1-4,12.9c2,2,5.5,0.8,7.9-2c0,0,0,0,0,0c9.1,6.2,12.2,8.2,28.8,17.4c0.6,0.3,0.8,0.3,1.5,0.1    c7.3-2.8,14.7-5.5,22.2-8.1c1.7,3.7,3.5,7.6,5.3,11.7c0,0,0,0,0,0c-3.2,2-4.3,5.8-3.7,9.5c-24,8.2-47.1,17.5-67.8,27    c-1.9-11.6-3-22.4-3.2-32.3c-0.2,0.2-0.4,0.3-0.6,0.4c2.8-1.9,5.4-6.1,5.6-10.7c0.2-3.4-1.2-8.1-5.8-6.3    c-3.5,1.8-6.1,6.4-6.7,10.5c0-0.3,0.1-0.6,0.2-0.9c-22.7,10.5-41.3,21.3-52.4,30.4c2.2-5.5,4.6-10.8,7.4-16    c12-9.9,34-21.9,60.3-33.5c0-0.5-0.1-1.5,0.2-3c-25.7,11.2-47.1,23-58.6,32.6c0,0,0,0.1,0,0.1c0,0-0.1,0-0.1,0    c-0.4,0.5-0.6,0.8-0.8,1.1c0.5-0.7,0.7-1,0.8-1.1c0,0,0.1-0.1,0.1-0.1c-2.8,2.3-5,4.6-6.6,6.6c-0.4,0.5-0.7,0.9-1,1.4l-3.1,5.2    c0.3-0.6,0.8-1.2,1.3-1.9c1.5-2,3.6-4.1,6.3-6.4c-2.8,5.2-5.3,10.5-7.6,16.1c-3,2.5-5.3,4.9-7,7.1c-1,1.3-1.7,2.5-2.2,3.6    l-2.2,5.5c0.7-1.2,1.7-2.8,2.3-4c1.7-2.3,4.1-4.7,7.2-7.3c-5.3,14.5-8.4,30.1-9.3,46.3c-3.7,3.1-6.6,6.1-8.6,8.8    c-1.1,1.5-1.9,2.8-2.5,4.1l-0.3,5.2c0-0.5,0.1-1,0.1-1.5c0.6-10.6,0.6-10.6,0.5-11c0,0,0,0,0,0c0,0,0,0,0,0c0.3-2.3,0.7-4.5,1-6.7    c1-4.2,1.9-8.4,2.9-12.6c1.4-5.8,2.6-9.8,3-11.2l-1.2,3.9c-1.7,6.1-3.6,14.4-4.9,20.7c0,0,0,0.1,0,0.1c0,0,0,0.1,0,0.1    c-0.4,2.2-0.8,4.5-1.1,6.8c0,0,0-0.1,0-0.1c-0.1,0.8-0.3,1.9-0.3,2.4c-0.6,5.2-1,12.1-1.3,17.2c-0.1,3.4,0,5.3,0.2,5.5    c0,0,0,0,0,0c0.2,19.6,3.7,39.5,10.9,59c4,10.9,9.1,21.3,14.9,30.9c-0.4,1.9-0.1,3.5,0.7,4.9l3.3,5.2c-1.1-2.9-2.2-5.6,2.8-12.1    c1.7-2.2,3.9-4.6,6.6-7.1c2.2,2.9,4.7,5.1,7,5.4c0.4,0.1,0.7,0,1,0c-0.1,0-0.1,0-0.2,0.1c1.3,2,2.7,3.9,4.1,5.8    c-1.8,4.9,8.5,18.6,15.4,19.7c4.7,0.7,2.8-5.8-2-12.2c-4-5.3-9.5-9.7-12.2-8.7c0.1-0.1,0.3-0.1,0.5-0.1c-1.4-1.9-2.8-3.9-4.1-5.9    c-0.1,0.3-0.3,0.5-0.4,0.7c1.3-1.6,0.7-5.9-1.6-10.9c5.2-4,11.4-8.2,18.4-12.6c7.1,12.4,15.1,24.1,24,34.8    c-3.2,4.8,6.9,17.5,15.4,18.5c6,0.7,5.1-5.8,0.2-11.9c-3.9-4.8-9.9-8.9-13.7-8c0.1,0,0.2-0.1,0.3-0.1    c-8.5-10.8-16.5-22.5-23.6-34.9c16-9.7,36-20,58.5-30.1c1.6,2.2,3.7,4.1,6.2,5c1.4,0.6,2.8,0.8,4,0.6c2.4,5.2,4.9,10.3,7.5,15.3    c-7.4,3.3-14.5,6.5-21.3,9.8c-1.1,0.8-2.8,19.1,1.6,45.9c0,0,0,0,0,0c-1.6-0.4-3.1-0.4-4.4,0.2c-0.1,0.1-0.3,0.2-0.5,0.3    c-5,4,5.7,16.6,14.8,17.5c0.7,0.1,1.2,0,1.7,0c0,0-0.1,0-0.1,0c5.1,4.5,10.2,8.8,15.5,12.7c-15,8.6-25.5,15.4-31.7,23.1    c-3.4,4.5-3.3,7.7-0.2,9.7c-9.7-3.5-19.1-7.8-28-12.9c-3.7-2.4-3.8-6.2,0.2-11.5c5.3-7.1,17.3-15.8,33.6-25.2    c-0.6-0.5-2.2-1.7-3.8-3.5c-0.1-0.1-0.1-0.2-0.2-0.3c-16.7,9.6-29,18.6-34.5,25.8c-4.1,5.5-4,9.4-0.2,11.8l-3.4-2.2    c1.1,0.7,2.3,1.5,3.4,2.2c0.1,0,0.1,0.1,0.2,0.1l5.1,3l4.1,2.3c7.7,4.2,15.8,7.7,24.1,10.7c0.5,0.3,1,0.5,1.7,0.7l5.7,1.9    c-5.3-1.7-6.5-5.2-2.4-10.5c4.7-6.2,15.6-14,30.5-22.3c1.1,0.7,2.1,1.5,3.2,2.2c0,0,0,0,0-0.1c-1.2,2,2.3,5.3,6.8,7.8    c-0.9-0.5-1.7-1-2.6-1.6c-12,6.9-20.8,13.3-24.7,18.5c-4,5.3-2.4,8.6,3.6,9.9l6,1.3c-6.3-1.2-8-4.3-4.1-9.6    c3.7-4.9,12.1-11.1,23.5-17.6c3.6,1.7,7.5,2.8,10.1,2.4c0,0-0.1,0-0.1,0c13.7,7.1,27.6,11.8,41.2,13.7c1.7,0.2,2.1,0.2,2.4,0.1    c-0.2-0.2-0.3-0.2-1.8-0.5c-13.3-2.1-26.9-7-40.3-14.2l0,0.1c0,0,0,0-0.1,0.1c0.8-1.1-1.1-3.5-4.1-5.7c4.5-2.4,9.4-4.8,14.5-7.2    c12.5,11,25,19.2,36.7,23.6c1.1,0.4,1.4,0.4,1.8,0.4c-0.1-0.4-0.1-0.4-1-0.8c-11.8-4.9-24.5-13.7-37.1-25.7    c-1.1-0.9-1.9-1.3-2.7-1c-5.8,2.7-11.2,5.4-16.2,8.1c0,0,0,0,0.1,0c-4.1-2.3-8-3.5-10.3-3c0.1,0,0.1,0,0.2-0.1    c-1-0.7-2.1-1.5-3.1-2.2c12.5-6.8,27.6-14,44.1-20.8c1.5,1.8,3.5,3.4,5.7,4.2c1,0.4,1.9,0.5,2.7,0.4c0,0-0.1,0-0.1,0    c9.3,16,18,28.6,25.4,36.5c0.6,0.6,0.8,0.7,1.1,0.7c0.1,0,0.1-0.1,0.2-0.1c0-0.2-0.1-0.4-0.5-0.9c-6.8-8.1-15-20.9-24-37.1    l-0.1,0.1c-0.1,0.1-0.1,0.1-0.2,0.1c2-1.5,2.4-5,1.2-8.7c0,0.1,0.1,0.2,0.1,0.3c13.1-5.1,26.9-9.9,40.6-14.2    c9.1-2.8,17.7-5.2,25.7-7.3c0.6-0.4,0.6-0.4,1-0.9c0.1-0.1,10.1-17.6,19.1-34.3c3.3,4.5,8.3-1.6,9.8-9.4c0,0.1,0,0.2,0,0.3    c7.6-1.3,14.4-2.2,20.4-2.7c-0.4,3.8-0.3,7.2,0.7,8.7c0.2,0.2,0.3,0.4,0.5,0.5c0,0-0.1,0-0.1,0c-0.4,1.4-0.7,2.8-1.1,4.2    c0,0,0.1,0,0.1-0.1c-2.2,1.3-4.9,6.5-6.7,11.7c0.2-0.6,0.4-1.3,0.7-2c0-0.1,0.1-0.2,0.1-0.3c-3.6,0.3-7.5,0.7-11.8,1.4    c-0.5,0.3-0.5,0.3-7.6,11.5c-0.1,0.1-8.2,13-20,30c0,0.1,0.1,0.2,0.1,0.3c-0.3-1-0.9-1.5-1.8-1.4c-2.5,0.8-4.9,4.6-6.5,8.6    c-6.7,1.6-13.9,3.6-21.7,6c-6.9,2.2-13.9,4.5-20.7,7c-0.3,0.2-0.8,0.5-0.5,1.9c3.3,9.6,6.1,17.6,8.1,23.6c0.3,0.8,0.5,0.8,0.8,0.9    c0.2-0.3,0.3-0.5,0.1-1.2c-1.5-5.8-3.7-13.3-6.4-22.2c6.1-2.2,12.3-4.3,18.5-6.2c7.3-2.3,14.2-4.2,20.4-5.7    c-0.6,2.4-0.8,4.5-0.5,5.5c0.1,0.4,0.3,0.6,0.6,0.7c0,0,0,0-0.1,0c-3.7,8.2-8,15.5-12.9,21.9c-0.8,1.1-0.8,1.2-0.9,1.5    c0.1,0,0.4-0.1,1.7-1.6c5.2-6.5,9.7-13.9,13.6-22.1c0,0,0,0,0,0c1.9-1.2,4.6-4.9,6.4-8.8c1.1-2.3,1.7-4.4,1.9-6.1    c0,0.1,0,0.1,0,0.2c12.7-17.9,15.9-22.7,26.6-39.3c4-0.6,7.6-1,11-1.3c-1,3.6-1.4,6.8-0.8,8.2c0.1,0.3,0.3,0.4,0.4,0.6    c-0.1,0-0.1-0.1-0.2-0.1c-11,26.4-27.4,49.7-48.5,67.2c-1.1,0.9-1.3,1.1-1.8,1.5c0.5-0.2,0.6-0.2,2.3-1.6    c21.5-17.5,38.3-40.8,49.5-67.2c-0.1,0.1-0.2,0.1-0.3,0.2c1.7-0.8,4.4-4.6,6.6-9.4c-0.1,0.1-0.1,0.2-0.2,0.4    c6.3,0,11,0.7,13.7,2.3c-1.9,4.3-3.3,8-3,8.9c0,0,0,0,0,0c-14.4,25.9-35.1,48.8-61,65.8c-1.4,0.9-1.6,1.1-2.3,1.5    c0.8-0.4,0.8-0.4,2.4-1.4c26-16.9,46.8-39.7,61.3-65.8l-0.1,0c0,0,0,0,0,0c0.8-0.4,2.9-3.4,5.1-7.5c-0.1,0.1-0.1,0.3-0.2,0.4    c0.5,0.8,0.8,1.6,0.7,2.6l0-0.1c0-0.1,0.1-0.3,0.2-0.5c-0.1,0.3-0.2,0.5-0.2,0.6c0,0.1,0,0.3,0,0.4c-0.1,0.9-0.4,2-1,3.1l2.6-5.3    c0.6-1.2,0.9-2.3,0.9-3.2l0,0c0-1-0.2-1.8-0.7-2.6c-0.1,0.3-0.3,0.6-0.4,0.9c2.8-6.1,4.3-11.2,3.7-12c0.1,0.1,0.1,0.3,0.1,0.5    c0.4-1.1,0.8-2.2,1.2-3.3l0,0c0,0-0.1,0-0.1,0c0.8-0.4,2.6-4.2,4.2-9c-0.1,0.2-0.1,0.4-0.2,0.7c0.6,0.9,0.9,1.9,0.8,3l0-0.1    c0.2-1.1,1.4-4.8,1.6-5.3c0-1.1-0.3-2.1-0.8-3c0,0.1,0,0.2-0.1,0.3c1.4-5.5,2.1-10.3,1.4-11.3c0,0-0.1-0.1-0.1-0.1    c-0.7,0-2.3,4-3.8,8.8c-3.3-1.8-8.8-2.7-16.3-2.7c0,0.1,0,0.2,0,0.3c0.7-5.3,0-9.4-1.9-10c0.1,0,0.2,0.1,0.3,0.1    c0.3-1.4,0.5-2.8,0.7-4.2c15.4-0.6,24.1,2.2,24,8.3l0-0.1c0.1-0.4,0.2-1,0.3-1.7c-0.2,0.9-0.3,1.6-0.3,1.9c0,0.2,0,0.3,0,0.5    c0,0.3-0.1,0.5-0.1,0.8l0.9-4.9l0.2-0.9c0.1-0.4,0.1-0.7,0.1-1.1l0,0c0.1-6.2-8.7-9-24.4-8.5c0.5-5.8,0.8-11.6,0.8-17.5    c-0.6,0.4-1.1,0.4-1.7,0.3c2.4,0.7,4.5-3.4,5-9.4c0,0.1,0,0.2,0,0.3c14.7-0.1,22.8,2.9,22.7,9.1c0,0,0-0.4,0-1c0,0.4,0,0.8,0,0.9    l0-1.1l0-0.6c0-0.6,0-1.2,0-1.9c0,0,0-0.1,0-0.1c0-0.1,0-0.1,0-0.2C428.7,244.5,428.7,244,428.7,243.5z M319.2,131.2    c0.3,0,0.6,0,1,0.2C319.9,131.3,319.6,131.2,319.2,131.2z M97.7,142.8c-0.1,0.2-0.2,0.5-0.6,1.1C97.3,143.6,97.5,143.2,97.7,142.8    z M96.5,144.1c-0.1,0.2-0.3,0.5-0.5,0.8C96.2,144.6,96.3,144.3,96.5,144.1z M66.2,213.5c-0.1,0.3-0.1,0.5-0.1,0.6    C66.2,213.8,66.2,213.6,66.2,213.5z M241.7,399.7c-0.1,0.1-0.2,0.1-0.4,0.2C241.5,399.8,241.6,399.8,241.7,399.7z M223.6,388    c-0.3,0.1-0.6,0.2-0.9,0.3C222.9,388.2,223.2,388.1,223.6,388z M385.3,328.6c0.2,0.1,0.5,0,0.7-0.1    C385.7,328.7,385.5,328.7,385.3,328.6z M163.9,166.9C163.9,166.9,163.9,166.9,163.9,166.9c0,0-0.1,0-0.1-0.1    C163.8,166.8,163.8,166.8,163.9,166.9z M163.5,166.7c-0.4-0.1-0.9,0-1.3,0.2C162.7,166.6,163.1,166.6,163.5,166.7z M162.1,167    c-0.3,0.4-0.6,0.7-0.8,1.2C161.4,167.7,161.7,167.3,162.1,167z M93,328.8C93,328.8,93,328.8,93,328.8c-1.7,2.3-2.8,4.3-3.4,6.1    c-5.9-9.7-10.9-20-14.9-31c-7.2-19.5-10.7-39.4-11-59c0,0,0,0,0,0c0.2-1.6,0.4-5.2,0.9-12.1c0.6-1.3,1.4-2.6,2.5-4.1    c2.1-2.8,5-5.8,8.8-8.9c-0.5,22.1,3.3,45.2,11.8,68.2c2.8,7.5,5.9,14.7,9.5,21.7c-1.2,2.5,0.1,7.4,2.5,12    C96.9,324.2,94.7,326.6,93,328.8z M107.1,315.4c0.1,0.1,0.2,0.3,0.2,0.4c-3.1-4.8-7.1-8.5-9.3-7.2c0,0,0.1-0.1,0.1-0.1    c-2.9-7.2-6-14.4-8.8-21.9c-8.5-23-12.3-46.1-11.9-68.1c5.4-4.4,12.3-9.2,20.3-14.2c0.7,21.2,5.1,43.9,13.6,66.9    c4,10.9,8.8,21.5,14.2,31.6C118.5,307.2,112.3,311.4,107.1,315.4z M97.7,201.7c0-0.1,0-0.2,0-0.3c0,0.6,0,1,0,1.5    C97.7,202.5,97.7,202.1,97.7,201.7z M99.6,198.4c0.3,0.2,0.5,0.8,0.6,1.8C100.1,199.7,99.8,198.9,99.6,198.4z M128.2,301.2    c-5.4-10.1-10.2-20.6-14.2-31.6c-8.5-23-13-45.6-13.8-66.8c3-1.8,6.1-3.6,9.4-5.5c-0.1-0.6-0.4-2.4-0.1-4.8c0-0.1,0-0.3,0-0.4    c-3.7,2.1-7.3,4.2-10.7,6.2c0.3-0.1,0.5-0.1,0.7,0c-0.3,0.1-0.6,0.1-0.9,0.2c-0.5,0.8-0.7,1.2-0.9,2.4c0.2-1.5,0.7-2.1,0.9-2.4    c0.1-0.1,0.2-0.1,0.2-0.2c-8.4,5.2-15.6,10.1-21.2,14.7c0.8-16.1,3.9-31.6,9-46.1c11.4-9.4,30.6-20.5,54-31.5    c0.1,1.5,0.6,2.7,1.5,3.6c0.9,0.9,2,1.2,3.1,1c0.1,9.9,1,20.8,2.8,32.5c-9.3,4.3-18.1,8.6-26.3,12.9c0.2,0.6,0.3,1.3,0.4,2.2    c-0.7-5.1-3.3-8.9-7-7.1c0.4-0.2,0.9-0.4,1.4-0.5c0-2,0-4,0-5.9c2.4-2.3,4.6-6.9,5.1-12.1c0.4-4.3-0.5-10-4.7-8.1    c-5.6,3.5-9.1,16.4-5.6,20.5c0.7,0.9,1.6,1.2,2.5,1.1c0,2-0.1,3.9,0,5.9c0,0,0.1-0.1,0.1-0.1c-5.2,4.7-6.4,18-1.4,21.8    c1,0.8,2.1,1,3.2,0.8c1.8,18,6.5,37.1,13.7,56.6c4,10.9,8.7,21.6,13.9,31.7C138,295.5,132.9,298.4,128.2,301.2z M146.4,290.9    c-5.2-10.2-9.8-20.8-13.9-31.8c-7.2-19.5-11.9-38.5-14.2-56.5c0,0,0,0-0.1,0.1c2.4-2.4,4.2-7,4.2-12.2c8.2-4.3,17.1-8.7,26.5-13    c3.4,19.8,9.4,41.6,17.9,64.6c4,10.9,8.5,21.7,13.2,32.1C167.9,279.8,156.6,285.4,146.4,290.9z M188.6,274.6    c-0.7-1.3-1.2-2.4-1.6-3.6c-1.1,0.5-2.2,1-3.3,1.5c-4.7-10.4-9.1-21.2-13.2-32.1c-8.5-23-14.5-44.8-18.1-64.5    c3-1.4,6.1-2.8,9.2-4.1c4.1,19.5,10.4,41.2,18.9,64.2c2.8,7.5,5.7,14.9,8.7,22.1c0.4-0.3,0.7-0.5,1-0.8    C185.2,260.3,185.1,268.4,188.6,274.6z M191,256.8c0.6-0.3,1.2-0.4,2-0.5c-3-7.3-5.9-14.7-8.7-22.1c-8.5-23-14.9-44.6-19.2-64    c17.5-7.6,36.3-15.1,55.7-22c1.4,2.4,3.6,4.4,6.5,5.4c7.7,2.7,13.8-4,11.5-11.6c5.5-1.8,11-3.6,16.6-5.3c3.2-1,6.3-1.9,9.4-2.9    c14.4,7.4,18.3,9.4,32,17.5c0-0.3,0-0.7,0.1-1.2c-0.6,5.9,4,14.1,10.9,16.6c7,2.5,11.3-3.3,8.9-10.8c4.5-1.1,8.8-2.1,13-3    c3.8,7.5,7.3,15.3,10.5,23.6c-17.7,3.8-37.9,9.1-60,16c-8.5,2.6-17.1,5.4-25.5,8.3c0.2,0.3,0.3,0.6,0.4,0.8    c-2.6-5.1-7.8-9-13.7-7.3c-8.7,3.7-7.6,16.2-1,22.5c-4.7,15.7-6.4,21.5-10.5,36.2c-8.8,3.4-17.4,7-25.8,10.5    c0.2,0.3,0.4,0.7,0.5,1C201.4,258.3,195.6,254.9,191,256.8z M393.9,286.2c-6.1,0.5-13.1,1.4-20.8,2.8c0,0.2,0,0.4,0,0.6    c0-5.2-1.9-9.7-5.5-9.3c-5.9,1.7-7.9,13.5-6.2,20.2c0-0.2-0.1-0.3-0.1-0.5c-6.7,12.6-9.4,17.8-18.5,34.1    c-8.1,2.1-16.9,4.5-26.2,7.4c-14.3,4.4-28.6,9.5-42.2,14.8c0,0,0,0.1,0.1,0.1c-2.3-3.5-5.6-5.5-8.6-5.2c0.1,0,0.2,0,0.2,0    c-4.7-9.2-9.6-19.1-14.5-29.6l-0.2,0.1c-0.3,0.2-0.7,0.4-1,0.6c1.3-0.6,2.3-1.7,2.9-3.1c12.9,8.1,15.6,9.7,25.3,16.4    c0.6,0.4,0.8,0.3,1.4,0.3c11.3-4.2,22.9-8.1,34.5-11.7c5.5-1.7,10.8-3.3,16-4.7c0.5-0.3,0.7-0.4,1.1-1l3.8-8    c4.7,3.6,10.1-3.3,10.4-11.7c0.2-5.5-2.1-12.7-7.9-11.6c-7.3,2.5-8,15.4-4.3,21.3c-0.2-0.3-0.4-0.7-0.6-1.1c-1,2.2-2.4,5-3.4,7.2    c-5.1,1.4-10.3,3-15.8,4.7c-11.7,3.6-23.4,7.6-34.8,11.8c-12.8-8.7-13.6-9.3-24.7-16.2c0-1.7-0.3-3.6-1-5.6    c-1.7-4.6-6.9-11.1-13.7-9c-8.5,4.1-4.1,18.4,4.7,22.1c1.4,0.6,2.7,0.8,3.9,0.7c0,0,0,0-0.1,0c5.1,10.4,10.1,20.3,15.1,29.4    c-2.1,1.8-2.2,5.4-0.8,8.8c-17.1,7.1-32.9,14.5-45.9,21.6c-5.2-4-10.2-8.3-15.2-12.8c1.3-2-0.2-6-3.5-9.8c-1.7-2-3.9-3.8-6.1-5.2    c0,0,0.1,0,0.1,0.1c-2.4-15.1-3.3-20.8-2.4-43.2c6.5-3.1,13.3-6.2,20.4-9.4c5.4,10.4,11.1,20.4,16.8,29.8    c-4.7,4.4,0.7,16.1,9.3,18.8c7.2,2.3,9.5-4.6,6-11.6c-3.1-6.1-9.3-9.9-13.7-8.2c0.5-0.2,1-0.3,1.6-0.4c-5.6-9.5-11.1-19.5-16.5-30    c22.1-9.6,46.3-18.9,71-27.2c13.5,10.1,14.9,11.1,22.7,17.6c0.3,0.1,0.7,0.3,0.9,0.4c0.7-0.1,0.8-0.1,0.9-0.2    c38.2-11.9,69.7-18.4,90.3-19.5c-0.2,1.4-0.3,2.9-0.5,4.3c0,0,0,0,0,0C396.8,277.6,395,281.6,393.9,286.2z M401.2,291.1    c0,0.1-0.1,0.2-0.1,0.4c7.3,0,12.7,0.8,15.9,2.6c-1.2,4.5-2,8.6-1.9,10.1c-0.4,1.1-0.8,2.2-1.2,3.3c0.1-0.1,0.2-0.1,0.3-0.1    c-0.7,0-3.1,4.2-5.5,9.2c-2.9-1.6-7.7-2.4-14.2-2.3c0,0.1-0.1,0.3-0.1,0.4c1.6-5.4,1.5-9.7-0.4-9.8c0.3,0,0.5,0.1,0.7,0.3    c0.4-1.4,0.8-2.8,1.1-4.2c-0.1,0.1-0.2,0.1-0.3,0.2C397.4,300.2,399.7,296.2,401.2,291.1z M400.6,248.8c0,5.9-0.2,11.7-0.7,17.5    c-20.8,1.1-52.8,7.7-91.5,19.7c-13.3-10.7-13.5-10.9-23-17.8c-0.3-0.1-0.7-0.3-1.1-0.4c-25.9,8.6-50.7,18.1-73.4,28    c-2.5-5-4.9-10.1-7.3-15.3c2.5-2.2,3.6-6.4,2.6-11.3c8.7-3.7,17.6-7.3,26.7-10.9c0.5-0.3,0.8-0.5,1.1-1.4    c3.7-12.3,7.1-24.8,10.9-37.1c0,0,0,0-0.1,0c7.6,2.8,13.6-4.2,11.9-13.2c8.5-2.9,17-5.7,25.5-8.3c22.2-6.9,42.4-12.2,60.1-16    c2.2,5.8,4.1,11.7,5.9,17.6c0.1-0.1,0.2-0.1,0.2-0.1c-6,3.5-4.4,18.8,3.1,24.3c6.1,4.4,11.4-2.2,9.7-12    c-1.4-7.7-6.6-13.7-11.3-12.9c0.5-0.1,1-0.1,1.7,0c-1.7-5.9-3.7-11.8-5.8-17.6c4-0.8,7.8-1.6,11.5-2.2    c19.1,19.6,26.6,28.6,38.9,50.5c-0.8,6.5,0.6,15.4,3.6,18.4c0.4,0.4,0.7,0.6,1.1,0.7C400.7,248.9,400.6,248.8,400.6,248.8z     M406,239.4c0-0.4,0-0.9,0.1-1.4C406,238.6,406,239,406,239.4z M406.1,237.8c0-0.5,0-0.9,0-1.4C406.1,237,406.1,237.4,406.1,237.8    z" style="fill: #196917; fill-opacity: 1;"></path><path class="st0" d="M343.8,399.9l1.7-1.1c-0.7,0.5-1.4,0.9-2.1,1.3C343.5,400.1,343.7,400,343.8,399.9z" style="fill: #196917; fill-opacity: 1;"></path><path class="st1" d="M268.1,91.9c5.3,2.4,9.5,3.3,11.5,2.9c0,0-0.1,0-0.1,0l-0.1,0c1,0.5,1.9,1,2.8,1.6c0,0,0-0.1,0.1-0.1    c-0.6,1.5,1.8,4.3,5.1,6.8c-0.1-0.1-0.2-0.2-0.3-0.2c-7.6,4.6-16.7,9.5-26.7,14.4c1.4,1.1,2.5,2.2,3.5,3.5    c10.4-5.1,19.8-10.1,27.7-14.9c-0.1,0-0.2-0.1-0.2-0.1c7.4,4.4,13.1,4.6,12.8,1.4c-0.6-5.4-15.3-12.7-20.4-11.7c0,0,0.1,0,0.1,0    c-1-0.5-1.9-1-2.9-1.6c0,0,0,0,0,0c0.1-0.2,0-0.5-0.1-0.9c-1.7-4.3-16.3-9.5-20.9-8.6c-25.1-9.4-51.2-12.3-75.9-7.2l0,0    c24.3-4.8,49.9-1.6,74.7,8c0-0.1,0.1-0.1,0.1-0.2c-0.7,1.4,3.9,4.2,7.2,5.9c-0.9-0.5-1.6-0.9-2.2-1.2c-6.1,3.7-13.4,7.7-21.5,11.6    c0.1,0,0.2,0.1,0.2,0.2c1.8,1.2,2.9,2.3,3.3,2.7c8.4-4.1,16-8.2,22.5-12.1C268.2,92,268.2,91.9,268.1,91.9z" style="fill: #0de809; fill-opacity: 1;"></path><path class="st1" d="M162.8,100.4c-0.6,1-0.6,1.3-0.6,1.5c0,0,0.1,0.1,0.1,0.1c4.2-1,8.8-2.3,13.8-3.8c4-1.2,8-2.6,12-4    c0,0,0,0,0-0.1c1.6,4.1,4.7,4.8,5.8,2.7c0.1-0.2,0.2-0.4,0.2-0.6c0,0,0,0.1,0,0.1c10.4,8.3,26.9,16.7,28.8,17.6    c0.6,0.3,0.8,0.2,1.1,0.2c4.5-1.9,8.8-3.8,13-5.7c0,0,0,0-0.1-0.1c3.4,2.8,6.9,4,9.1,3.8c0.8,0.8,1.7,1.7,2.5,2.5    c0.5-0.6,1.2-1,2.3-1.1c-0.9-0.8-1.7-1.7-2.6-2.5c0.3-0.4,0.5-1,0.5-1.7c-0.2-5.2-10.7-11.6-15.4-11c0,0,0.1,0,0.1,0    c-17.3-13.3-34.3-21-49.4-21l0,0c14.5,0.4,30.9,8.3,47.7,21.8c0.1-0.1,0.2-0.2,0.2-0.2c-1.3,1.3-0.1,4.1,2.2,6.7    c-0.1-0.1-0.1-0.2-0.2-0.2c-3.8,1.8-7.8,3.5-11.9,5.3C205.5,102,202.8,100.2,194,94c0.1,0.5,0.1,0.9,0.1,1.3    c0.1-3.4-3.3-8.4-5.5-8.5c-2-4.3-3.5-7.5-4.7-9.6l0,0c0.9,2.2,2.2,5.6,3.9,9.9c0.1-0.1,0.2-0.2,0.4-0.3c-1,0.4-1.2,2.8-0.7,5.1    c0-0.1,0-0.2-0.1-0.3c-3.5,1.3-7.1,2.5-10.7,3.6c-4.2,1.3-8.2,2.4-11.8,3.3c5.4-8.7,11.7-15.9,19-21.3l0.1-0.1l-0.1,0.1    C175.7,83.1,168.7,90.9,162.8,100.4z" style="fill: #0de809; fill-opacity: 1;"></path><path class="st1" d="M136.2,114.4c-2.2,0.1-4.1,0-5.7-0.2c-0.5,0.6-2.4,2.5-3.9,4.1c1.8,0.2,4,0.3,6.6,0.1c0.3-0.1,1-0.8,2.2-2.1    c13.4-16.3,29.6-29.7,48.4-39.2l0.1-0.1c0,0,0,0-0.1,0.1C165.5,86.3,149.5,99.1,136.2,114.4z" style="fill: #0de809; fill-opacity: 1;"></path><path class="st1" d="M66.1,213.9c0.4-1.9,0.8-3.9,1.3-6C66.7,210.9,66.5,211.9,66.1,213.9z" style="fill: #0de809; fill-opacity: 1;"></path><path class="st1" d="M72.3,189.2c0,0.1-0.1,0.1-0.1,0.2l-1.2,3.9c-1.1,4.3-2.5,9.7-3.6,14.7c0.8-3.1,2.1-8.2,4.9-18.6    C72.3,189.3,72.3,189.2,72.3,189.2z" style="fill: #0de809; fill-opacity: 1;"></path><path class="st1" d="M183.7,239.9c1.9-3,2.3-7,1.6-10.8c0.1,0.7,0.2,1.2,0.2,1.6c1.5-0.1,2.9-0.5,4.4-1c8.1-2.5,16.2-5.2,24.2-7.9    c0.5-0.3,1.9-1,11.8-35.6c9-3.3,17.8-6.8,26.4-10.3c-0.1-0.1-0.1-0.2-0.2-0.3c4.8,7.2,13.4,8.6,15.8,2c2.8-7.8-6.4-20.7-15-17.8    c-5.2,2.6-4,9.9-1.9,14c-0.4-0.8-0.8-1.6-1.1-2.7c-8.6,3.5-17.5,7-26.6,10.4c-0.8,0.5-0.8,0.5-4.7,13.7c-1.9,6.5-4.9,15.1-7,21.5    c-7.6,2.6-15.3,5.1-23,7.5c-1.4,0.4-2.9,0.9-4.3,1.3c-1.9-4.8-5.8-8.3-10.8-7.2c-6.5,2.4-7.3,11-5.8,16.4    C170.3,244.1,179.3,247.1,183.7,239.9z" style="fill: #0de809; fill-opacity: 1;"></path><path class="st1" d="M359,149.3c-0.1,0.1-0.3,0.2-0.4,0.2c-2.8,2.5-0.2,8.8,2.5,13.1c-0.3-0.5-0.7-1.1-1-1.7    c-10.9,7.2-24.5,14.9-40,22.8c0.1,0.1,0.2,0.2,0.2,0.3c1.6,2.2,2.4,4.1,2.7,4.8c15.7-7.9,29.5-15.7,40.4-23    c-0.2-0.2-0.4-0.4-0.5-0.7c2,2.4,6,6.7,9.7,6.5c7.9,12.6,14.6,26.2,19.9,40.6c0.9,2.3,1.7,4.6,2.4,6.9c0.1-0.2,0.3-0.4,0.4-0.5    c-2.6,3-2.2,10.9-0.3,17.1c2.5,8,6.8,10.9,9.1,6.1c3.7-7.7-1.6-24.9-7-24.2c-0.8-2.3-1.6-4.6-2.4-6.9c-5.3-14.4-12-27.9-19.9-40.6    c1.3-3.1,0.2-7.1-2.1-10.9c0.4-0.3,0.9-0.7,1.3-1c-0.1,0-0.2,0.1-0.4,0.1c-0.2,0-0.3-0.1-0.5-0.2c0.3,0.1,0.6,0.2,0.9,0.1    c0.4-0.3,0.8-0.6,1.1-0.9c5.4-4.3,9.6-8.3,12.4-12c2.7-3.5,3.9-6.5,3.7-9c4.1,5.1,5.2,6.3,5.6,6.6c0,0,0,0,0,0c0,0,0,0,0,0l0,0    c11.6,17.8,14.9,24,23.7,48.7l-3.2-9.4c-1.6-4.3-4.1-9.9-5.9-14.2c-4.3-9.2-9.3-17.8-14.8-25.7c-2.1-3.8-13.8-18.7-16.1-20    c0,0,0,0.1,0,0.1c0.4,0.8,1.6,2.5,7.1,9.3c0.2,2.4-1,5.4-3.6,8.9c-2.9,3.9-7.5,8.1-13.4,12.7c-0.5,0.4-0.9,0.7-1.4,1.1    C365.7,150.7,361.5,148.2,359,149.3z M366.2,161.4c-0.4-1.1-0.2-1.7,0.2-1.9C365.9,159.8,365.8,160.5,366.2,161.4z M366.5,159.5    c0.1,0,0.2,0,0.3,0c0.4,0.1,0.7,0.3,1.1,0.5C367.3,159.7,366.9,159.6,366.5,159.5z M395.9,218.1c-0.2,0.1-0.3,0.3-0.5,0.5    C395.6,218.4,395.8,218.2,395.9,218.1z M369,161.3c-0.1-0.2-0.3-0.4-0.4-0.5C368.7,161,368.9,161.2,369,161.3z" style="fill: #0de809; fill-opacity: 1;"></path><path class="st1" d="M110.7,123l-1.5,1.7c1.2-1.4,2.5-2.7,3.7-4c0.3-0.4,0.6-0.7,0.9-1.1L110.7,123z" style="fill: #0de809; fill-opacity: 1;"></path><path class="st1" d="M192.7,70.9l-0.8,0.2l-0.3,0.1c-2.9,0.9-5.5,2.9-7.8,5.9l0,0c0,0,0,0,0,0C186.5,73.9,189.5,71.9,192.7,70.9z" style="fill: #0de809; fill-opacity: 1;"></path><path class="st1" d="M189,73.5c-1.7,1.1-3.4,2.2-5.1,3.6C186.1,75.5,187.7,74.4,189,73.5z" style="fill: #0de809; fill-opacity: 1;"></path><path class="st1" d="M201.2,68.6c-1.8,0.4-3.6,0.9-5.4,1.6c1.1-0.4,2.4-0.8,4.1-1.3L201.2,68.6z" style="fill: #0de809; fill-opacity: 1;"></path><path class="st1" d="M183.9,77.1C183.9,77.1,184,77.1,183.9,77.1C184,77.1,183.9,77.1,183.9,77.1L183.9,77.1z" style="fill: #0de809; fill-opacity: 1;"></path><path class="st1" d="M195.9,70.2c-2.8,0.9-4.4,1.7-6.8,3.4C191.3,72.1,193.5,71,195.9,70.2z" style="fill: #0de809; fill-opacity: 1;"></path><path class="st1" d="M254.4,63.1c-0.1,0-0.3,0-0.4,0c0.2,0,0.4,0,0.6,0L254.4,63.1z" style="fill: #0de809; fill-opacity: 1;"></path><path class="st1" d="M213.5,65.9c-0.8,0.2-1.8,0.3-3,0.6C211.5,66.3,212.5,66.1,213.5,65.9z" style="fill: #0de809; fill-opacity: 1;"></path><path class="st1" d="M249.1,63c1.9,0,3.5,0.1,4.9,0.1C252.4,63.1,250.7,63,249.1,63z" style="fill: #0de809; fill-opacity: 1;"></path><path class="st1" d="M254.6,63.2l5.8,0.4C258.4,63.4,256.5,63.2,254.6,63.2z" style="fill: #0de809; fill-opacity: 1;"></path><path class="st1" d="M278.2,65.8c-5-0.7-9.2-1.3-12.8-1.8c4.6,0.6,9.9,1.4,14.6,2.2C279.5,66.1,278.9,65.9,278.2,65.8z" style="fill: #0de809; fill-opacity: 1;"></path><path class="st1" d="M262.3,63.7l-2-0.1c1.6,0.1,3.3,0.3,5,0.5C264.3,63.9,263.3,63.8,262.3,63.7z" style="fill: #0de809; fill-opacity: 1;"></path><path class="st1" d="M182.9,74.2l-0.8,0.3c0.3,0,0.4,0.1,1.8,2.7l0,0l0,0C183.1,75,183.1,74.9,182.9,74.2z" style="fill: #0de809; fill-opacity: 1;"></path><path class="st1" d="M174.5,77.5l-0.8,0.4c2.9-1.3,6.3-1.5,10.1-0.7c0,0,0,0,0.1,0c0,0,0,0,0,0C180.3,76.3,177.2,76.4,174.5,77.5z    " style="fill: #0de809; fill-opacity: 1;"></path><path class="st1" d="M272,75c0,0-0.1-0.1-0.1-0.1c0,0,0-0.1,0-0.1c0.2,0.9,4.1,2.4,7.3,3.5c-1.3,1.3-2.9,2.6-4.6,4    c-1.6,1.2-3.3,2.5-5.2,3.7c0.1,0,0.3,0.1,0.4,0.1c2.4,0.8,4,1.6,4.6,1.9c2-1.3,3.7-2.6,5.4-3.9c0.2-0.2,0.4-0.3,0.7-0.5    c1.6-1.2,3-2.4,4.2-3.6c-0.1,0-0.1,0-0.2-0.1c6.3,1.9,10.2,2.5,11.6,2.1c0,0-0.1,0-0.1,0l-0.1,0c1.1,0.4,2.2,0.8,3.3,1.3    c-0.1-0.2,0-0.3,0.1-0.5c-0.7,1.3,5,4.5,8.1,6.2c-0.3-0.1-0.5-0.3-0.8-0.4c-1.6,1.6-3.6,3.2-5.8,4.9c-1.9,1.5-4.1,3-6.4,4.6    c1.8,0.9,3.2,1.8,4.7,2.8c2.4-1.6,4.6-3.2,6.6-4.8c-0.1,0-0.1,0.1-0.2,0.1c-0.1,0-0.2,0-0.3,0c0.2,0,0.4,0,0.5-0.1    c0.3-0.2,0.5-0.4,0.8-0.6c1.9-1.5,3.7-3,5.2-4.5c-0.1-0.1-0.3-0.1-0.4-0.2c7,3.2,12,4.1,11.4,2c-0.5-1.6-3.6-3.8-7.4-5.8    c0,0,0.1-0.1,0.1-0.1c2.8-3.6,3.3-6.5,1.9-8.6c0,0-2.2-0.9-5.3-2.1c1.4,2,0.8,4.8-1.8,8.3c0,0,0,0.1-0.1,0.1    c-4.3-1.7-8.5-2.8-10.3-2.3c-1.1-0.4-2.1-0.8-3.2-1.2c-0.8-1.8-7.6-4.4-13.9-5.9c2.5,0.6,4.3,1.1,5,1.3c0,0,0.1-0.1,0.1-0.1    c2.2-3,2.7-5.3,1.5-7c-1.4-0.3-4.4-0.9-5.6-1.2c1.1,1.6,0.7,3.8-1.5,6.6c0,0-0.1,0.1-0.1,0.1c-4.2-1-8-1.5-9.6-1    c-28.9-6.4-59.2-5.9-88.5,2.9l0,0C213.1,68.6,243.3,68.4,272,75z M300.8,93.8c0,0.5,0.9,1.1,1.6,1.5    C301.4,94.8,300.7,94.2,300.8,93.8z M272.2,74.5C272.2,74.5,272.2,74.4,272.2,74.5C272.2,74.5,272.2,74.5,272.2,74.5    C272.2,74.5,272.2,74.5,272.2,74.5z" style="fill: #0de809; fill-opacity: 1;"></path><path class="st1" d="M227.4,64.1c2-0.3,3.7-0.5,5.1-0.6c6.8-0.3,11.9-0.5,16.5-0.5c-4.8-0.1-10.7,0-16,0.5    c1.4-0.1,2.6-0.2,3.4-0.3c-3.5,0.1-7.2,0.5-10.7,0.9c-1.5,0.1-3.2,0.3-5,0.6c-3.2,0.5-4.2,0.6-7.3,1.2c2.4-0.4,4.8-0.7,7.2-1.1    c-3.8,0.6-6.5,1.3-6.7,1.5c0,0,0,0,0,0c-10,2.3-20.1,5.9-30,10.8l-0.1,0.1c10.1-5,20.3-8.6,30.5-10.9    C218.8,65.8,223.1,64.7,227.4,64.1z" style="fill: #0de809; fill-opacity: 1;"></path><path class="st1" d="M428.7,243.2C428.7,243.3,428.7,243.3,428.7,243.2l0,0.2l0-0.4C428.7,243.1,428.7,243.2,428.7,243.2    c-0.1,2.3-1.2,5.1-3.7,8.3c-4.3,5.7-12.1,12.3-22.7,19.4c0.2,1.4,0.2,2.6,0.2,3.5c0-6.3-2.3-11.9-5.4-11.3c-0.3,0.1-0.7,0.3-1,0.4    c-1.3,1-2.3,2.6-3,4.5c0,0,0-0.1,0-0.1c-19.8-22.5-41.5-37.9-43.1-37.4c-4,2.1-8.2,4.2-12.5,6.3c-4.8-12.4-10.2-24.4-16.1-35.9    c7.5-6.4-2-22.7-10.8-23.1c-1.4-0.1-2.1,0.2-2.9,0.6c-5.5,3.2-3.3,11.5-0.6,16c1.3,2.2,4.9,7.2,10.6,7.7    c5.9,11.7,11.4,23.9,16.3,36.5c-19.3,9.3-40.9,18.7-63.7,27.5c-3.1-8.4-6.3-16.7-9.5-25c5.1-2,10.1-3.9,15-5.9    c0.7-0.4,0.8-0.6,1.1-1.4c6.7-28.4,8.6-40.4,10.6-64c-1.2-0.5-2.1-0.9-3.2-1.7c5.1,3.5,10.7,3,11.7-2.4c1.4-7.7-8.5-18-15.3-16.9    c0.1,0,0.1,0,0.2,0c-3.2-4.4-6.4-8.6-9.7-12.6c21.6-10.3,39.5-20.6,51-29.4c0.3-0.2,0.6-0.5,0.9-0.7c4.3-3.4,7.7-6.6,9.9-9.5    c3.5-4.6,3.8-8,1.4-10.4c5,2.7,9.9,5.6,14.6,8.8c2.5,2.1,5.2,4,7.8,5.9c1.7,2.5,1,6-2.4,10.5c-2.6,3.4-6.7,7.3-12,11.4    c-11.9,9.2-30,19.7-51.8,30.3c0.1,0.1,0.2,0.2,0.3,0.3c1.8,1.8,2.7,3.4,3.2,4c22.1-10.8,40.5-21.5,52.5-30.8    c0.3-0.3,0.7-0.5,1-0.8c4.9-3.9,8.7-7.5,11.2-10.8c3.4-4.6,4.2-8.1,2.4-10.7c2.5,2,4.8,4.1,7.4,5.9l-0.6-0.5    c-5.5-4.6-13-10.5-18.8-14.7c-0.5-0.4-0.7-0.4-0.9-0.6c-4.7-3.2-9.6-6.1-14.5-8.8c-0.4-0.3-0.8-0.6-1.3-0.8l-5.3-2.7    c0.6,0.3,1.1,0.6,1.6,1c-1.2-0.6-2.4-1.2-3.6-1.8c-1.4-1-5.7-2.9-10.1-4.7c-0.4-0.2-0.7-0.4-1.2-0.5l-5.6-2.1    c0.6,0.2,1.1,0.5,1.6,0.7c-3.9-1.4-7.2-2.4-8.1-2.3c0,0,0,0,0.1,0c-1.3-0.4-2.6-0.8-3.9-1.1c-1.2-0.7-5.6-1.9-10.4-2.9    c-0.9-0.5-2.1-0.9-3.6-1.2c-1.2-0.2-2.6-0.5-3.9-0.7c0.7,0.2,1.4,0.5,2,0.8c-4-0.7-7.5-1.2-8.7-1c0,0,0,0,0,0    c-29.1-3.8-59.7-0.5-89.2,11.1l0,0c29.7-11.5,60.4-14.7,89.6-10.8c0,0,0,0,0,0c0.8,0.2,3.5,0.8,13.3,2.9    c10.8,2.3,10.9,2.3,11.3,2.2c0,0,0,0-0.1,0l0,0c1.4,0.4,2.8,0.8,4.2,1.2c-0.3-0.1-0.4-0.2-0.5-0.3c0.4,0.2,0.6,0.3,13.3,5.3    c9.4,3.7,10.2,4,10.4,3.9c0,0,0,0,0,0l0,0c1.3,0.6,2.6,1.2,3.8,1.9c2.4,2.3,2,5.6-1.3,10.1c-2.3,3-5.8,6.4-10.5,9.9    c-11.2,8.6-28.6,18.6-49.6,28.6c-0.8-1-1.7-2-2.5-2.9c0,0,0,0,0,0c0.5-0.5,0.8-1.2,0.9-2.1c0.7-6.8-11.8-15.5-16.8-13.3    c-2.7,1.3-1.8,5.2,0.6,8.8c-0.1-0.1-0.1-0.2-0.2-0.3c-7.4,3.4-15.2,6.7-23.2,10c-2.6-3.4-6.3-5.6-9.6-4.6    c-1.6,0.8-2.5,2.3-2.9,4.1c0.1-0.4,0.2-0.8,0.3-1.3c-11.3-7.4-16.5-11.8-16.5-11.8c-6.6-5.7-6.6-5.7-7.2-5.7    c-5.5,1.9-11,3.8-16.6,5.5c-11.3,3.5-21.5,6.2-30.4,8.2c1.3-3.5,1.9-6.4,1.1-7c0,0,0,0,0,0c9.9-18.1,23-32.8,38.8-42.6l0.1-0.1    c0,0,0,0-0.1,0.1c-16.3,9.9-29.8,24.7-40.2,42.9c0.1,0,0.3-0.2,0.2-0.1c0.1,0,0.1,0,0.1-0.1c-1.7,0.8-4.6,4.3-6.9,8.1    c0.1-0.1,0.1-0.2,0.2-0.3c-9.3,1.5-16.5,1.9-20.9,1c0.9-1.1,1.8-2.2,2.7-3.3c-0.2,0.1-0.2,0.1-0.4,0.1c0,0,0,0,0-0.1    c1.7,0.4,16.9-16.7,18.2-18.2c0,0,0,0,0,0c13.8-12.3,29.6-22.6,47.1-30.2l0,0c-17.7,7.6-33.6,17.8-47.5,30.1    c0.1,0,0.2-0.1,0.3-0.1c0,0,0,0,0,0c-1.1,0.4-4.9,3.4-8.7,7c0.1-0.1,0.3-0.3,0.4-0.4c-3-1-3.6-3-1.3-6.1c1.7-2,1.8-2.1,4.6-4.5    l-5.4,4.5c-1.5,1.3-1.8,1.6-3.5,3.6c-2.5,3.3-1.8,5.5,1.4,6.6c0.1-0.1,0.1-0.1,0.2-0.2c-3.4,3.6-5.8,6.8-5.8,7.8c0,0,0-0.1,0-0.1    l0-0.1c-0.9,1.1-1.9,2.2-2.8,3.3c-4.7-1.1-5.9-3.8-2.7-8c-1.3,1.3-2.5,2.7-3.7,4c-3.4,4.5-2.1,7.3,2.8,8.5    c-4.4,5.8-8.6,11.8-12.2,18c0.1,0,0.1,0,0.2-0.1c-1.3,0.5-4.1,4.1-6.7,8.6c0.1-0.1,0.1-0.2,0.2-0.4c-4.8-1.6-6.1-4.6-3.2-9.2    l-3.1,5.2c-2.6,4.5-1.2,7.5,3.6,9.1c0.1-0.2,0.1-0.3,0.2-0.5c-3,6.2-3.7,10.7-2.1,10.1c2.8-1.1,12.2-19.8,11.6-22.6c0,0,0,0,0,0    c3.7-6.3,7.8-12.3,12.2-18.1c4.7,0.9,12.3,0.5,22.2-1.1c0.1-0.1,0.1-0.3,0.2-0.4c-2,4.5-2,7.4-0.6,7.8c-0.1,0-0.2-0.1-0.3-0.1    c-4.1,10.2-7.4,21-9.8,32.4c0.5-0.3,0.8-0.4,1.2-0.5c-3.2,0.7-6.8,7.4-7.7,14.1c-1,7.6,2,12.2,5.9,9.2c4-3.2,6.2-13.1,5.3-18.9    c0,0.1,0,0.2,0,0.3c5.8-10.1,7.8-13.4,15.1-25.7c9.3-2.2,19.5-5,30.5-8.4c2.9-0.9,5.7-1.8,8.6-2.7c1.2,1.2,2.9,2.9,4.1,4.1    c-0.4,2.2-0.3,4.6,0.3,6.8c2.1,7.7,9.3,9.9,12.5,3.9c3.4-6.5-1.5-18.8-8.5-17c-1.3,0.5-2.2,1.5-3,2.7c0,0,0,0,0-0.1    c-5-4.9-5-4.9-5.6-4.8c-2.9,1-5.8,1.9-8.8,2.8c-10.7,3.3-20.7,6.1-29.8,8.2c-0.5,0.3-0.5,0.3-0.8,0.8    c-7.1,11.5-7.5,12.1-15.8,26.1c-0.4-0.7-1-1.1-1.6-1.2c0.1,0,0.2,0,0.3,0.1c2.3-11.4,5.4-22.2,9.3-32.3c2-1.2,4.3-4.6,6.1-8.3    c9.3-1.9,20.1-4.7,32.1-8.4c5.8-1.8,11.5-3.7,17.2-5.7c7.2,6.7,15.4,12.4,22.7,17.4c0-0.1,0-0.3,0-0.4c0,2.1,0.7,4.4,1.7,6.4    c4,7.7,11.6,8.4,13.6,2.9c0.7-2.1,0.5-4.5-0.4-6.8c8.4-3.4,16.4-6.9,24.1-10.4c0,0,0,0-0.1-0.1c3.5,3.3,7.2,4.8,9.9,4.5    c0.8,1,1.6,2,2.4,3c-25.8,12.1-56.7,24.2-87.8,33.8c-1.9,0.6-3.8,1.2-6.1,2c-0.2,0.2-0.4,0.6-0.6,0.8c-1.2,2.7-7.2,15.7-12,26.2    c-20.5,5.6-38.3,9.3-52.6,11.1c1.3-11.6,3.6-22.8,6.5-33.6c0,0,0,0,0,0c5-2.8,11.5-21.9,7.6-22.7c-0.1,0-0.2,0-0.4,0    c-2.8,0.7-6.8,7.2-8.7,12.7c-1.8,5.2-1.8,9.2-0.3,10.1c-3.2,10.8-5.5,22.1-7,33.7c-4.5,0.5-8.5,0.8-12.2,0.9    c-2.3-19-1.3-24.6,1.4-39.5c-1,1.7-1.6,2.5-2.4,3.6c-1.9,10.9-3.9,22.2-0.8,40.8c0.1,0.6,0.3,0.7,0.5,0.8c3.8-0.1,8.1-0.4,12.9-1    c-0.5,5.5-0.9,11.1-1,16.7c0.3-0.2,0.5-0.3,0.8-0.4c-2.4,0.8-4.4,5-4.9,10.1c0-0.1,0-0.2,0-0.2c-8.1,0.8-14.9,0.9-20.2,0.3    c0,0.1,0,0.2,0,0.4c0,2.7-0.1,4.8-0.2,5.5c4.4,0.5,9.7,0.5,15.9,0c0.5,23.5,4.8,47.3,13.2,70.3c4,10.9,8.9,21.2,14.3,30.7    c-6.6,0.4-12.3,0.4-16.9,0c1.4,2.2,2.3,3.7,2.9,4.9c4.7,0.5,10.3,0.5,16.9,0.1c7.2,11.7,15.3,22.1,24.8,31.1c0,0,0.1,0,0.1,0    c-2.1,0.5-0.9,3.4,2.5,6.9c-0.1-0.1-0.1-0.1-0.2-0.2c-9.8,0.4-16.9-0.5-21-2.7c-12.8-10.7-24.2-23.4-33.6-37.9    c1.1,0.6,2.5,1.1,4.1,1.6c0,0-0.1-0.1-0.1-0.1c4.1,5.8,8.6,9.9,9.1,8c0.7-2.7-10.3-20.5-14.3-21.8c0.2,0,0.4,0.1,0.8,0.4    c-3.6-6.8-6.7-14-9.5-21.4c-7.3-19.8-11.1-40.1-11.8-60.2c0,0-0.1,0-0.1,0c0.2-0.1,0.3-0.2,0.5-0.3c2.7-2.8,3.9-24.4,0.1-25.8    c-1.8,0-3.2,4.9-3.7,10.2c0-0.2,0-0.4,0.1-0.7c-0.8-0.2-1.5-0.5-2.2-0.7c0,0.1,0,0.3,0,0.4l0,0c-0.1,2.6-0.2,4.7-0.2,5.4    c0.7,0.3,1.4,0.5,2.1,0.7c0-0.2,0-0.3,0-0.5c0,5.3,1,9.6,2.2,11c0,0,0,0,0,0c0.5,20.2,4.3,40.6,11.6,60.3    c2.8,7.5,5.9,14.6,9.5,21.4c0.1,0,0.2-0.2,0.3-0.1c0.1,0,0.1,0,0.2,0c-1.6,0.1-0.2,4.5,2.9,9.8c-0.2-0.3-0.4-0.6-0.5-0.9    c-1.5-0.4-2.9-0.9-4-1.5c-5.8-9.6-10.8-19.9-14.8-30.8c-7.2-19.5-10.8-39.6-11.4-59.4c0,0,0,0,0,0c0.1,0,0.1,0,0.2-0.1    c2-1.9,2.8-24.2,1-26c0.1,0.1,0.2,0.2,0.3,0.5c1.3-10.8,3.6-21.4,6.6-31.7c0,0-0.1,0-0.1,0c1.2-0.5,3.7-6.2,5.6-11.4    c1.3-3.5,4.2-11.7,3.3-12.8c-0.9-0.2-3.3,3.6-5.4,8.6c0-0.1,0.1-0.2,0.1-0.3c-1.8-1.6-2.2-3.9-1-6.7l-2.2,5.5    c-1.1,2.7-0.7,4.9,1.1,6.5c0.1-0.2,0.1-0.3,0.2-0.5c-1.8,5.1-2.6,9.3-2.3,10.6c0,0,0-0.1,0-0.1c-3.2,10.3-5.4,20.9-6.8,31.7    c0,0,0.1-0.1,0.1,0c0.1-0.1,0.2-0.1,0.4,0c-1.3-0.3-2.5,6-2.8,12c0.1-1.5,0.2-2.7,0.3-3.7c-1.2-1.1-1.9-2.4-2-3.8    c0.3-3.1,0.5-6.2,0.8-8.8c-0.2,1.8-0.5,4.6-0.8,8c0,0,0,0,0,0c0,0.1,0,0.3,0,0.4c0,0,0,0.1,0,0.1c-0.1,1.5-0.2,3.2-0.3,4.9    c0,0.1,0,0.2,0,0.3c0,0,0,0,0,0c-0.1,1.1-0.1,2.2-0.1,3.4c0-0.9,0.1-2,0.2-3c0.1,1.6,0.8,3,2,4.2c0-0.1,0-0.2,0-0.3    c-0.2,5.7,0.4,10.4,1.2,11.9c0,0-0.1-0.1-0.1-0.1C67,273,70.6,293,77.8,312.6c4,10.9,9,21.2,14.9,30.8c-1.1-0.7-2-1.6-2.6-2.5    l3.3,5.2c0.6,0.9,1.4,1.7,2.5,2.3c9.5,14.5,20.9,27.2,33.7,38c-0.3-0.2-0.6-0.4-0.9-0.6l4.6,3.7c0.2,0.2,0.4,0.3,0.7,0.5    c4,3.2,8.2,6.1,12.5,8.9l3.6,2.3l5.1,3l4.1,2.3c-1.3-0.7-2.6-1.4-3.9-2.1c5,2.7,15.1,3.1,29.2,1.5c-0.1-0.1-0.2-0.1-0.3-0.2    c6.4,3.8,13.8,5.6,13.5,2.9c-0.4-3.2-12.9-12.1-19.1-11.5c-2.9,0.6-1.2,3.5,2.2,6.3c-0.1-0.1-0.3-0.2-0.4-0.3    c-14.5,1.7-24.9,1.2-30-1.5c-5.5-3.4-10.8-7.1-15.8-11c4,2.1,11,3,20.6,2.6c-0.1-0.1-0.2-0.1-0.2-0.2c6.1,4.7,13,7.3,13,4.6    c0-3.4-11.6-13.4-17.5-14.6c0,0,0.1,0,0.1,0c-8.9-9.2-17-19.7-24.1-31.3c15-1.2,34.4-4.7,57.1-10.3c3.2,4.2,7.7,6.3,11.3,6    c-0.3,0-0.6,0-0.9,0c2.5,4.6,5,9,7.7,13.3c-7.5,1.9-14.7,3.7-21.4,5.1c-0.5,0.2-0.6,0.3-0.7,0.9c-0.5,16.5,0.3,20.1,3.5,31.2    c0.2,0.1,0.4,0.1,0.5,0.2c1.7,0.6,3.2,1.4,3.9,1.7c-3.8-12.1-3.8-16.9-3.5-29.9c6.5-1.4,13.3-3.1,20.5-4.9    c5.6,8.7,11.4,16.6,17.4,23.5c0.5-0.3,1-0.5,1.5-0.6c-4.4,1.2-4.2,5.8,0.3,9.7c6,5.1,16,6.2,15.7,0.3c-0.3-4.8-8.3-10.9-14.7-10.3    c0.2,0,0.4,0,0.6,0c-5.8-7-11.5-14.9-17-23.6c9.2-2.4,18.9-5.2,29-8.4c14.7-4.6,29.4-9.6,43.7-14.8c23,12.7,23,12.7,23.8,12.6    c36.3-14.3,68.9-30,91-44c-0.1,1.3-0.3,2.5-0.5,3.8c0,0,0.1-0.1,0.1-0.1c-2.2,2.3-4.1,6.8-5.2,11.1c0-0.1,0.1-0.3,0.1-0.4    c-6.5,4-13.9,8-21.9,12.2c0.1,1.5,0,2.8-0.4,4.5c7.8-4,15-8,21.4-11.9c0,0,0-0.1,0-0.1c-0.4,3.5,0,6.1,1.6,5.9c0,0,0,0,0,0l-0.1,0    c-0.3,1.2-0.7,2.3-1,3.5c0.4-0.4,0.7-0.6,1-0.8c-2.3,1.5-5,6.3-7,10.8c0.1-0.1,0.1-0.3,0.2-0.4c-3.8,2.3-8,4.7-12.4,7.1    c-0.4,0.3-0.5,0.4-1,1c-9.8,15.2-16.9,23.8-25.9,34.7c-0.1-0.1-0.1-0.1-0.2-0.2c-0.5-0.3-1.3,0.1-1.7,0.2    c-2.8,1.4-5.2,4.7-6.5,6.9c0.1-0.2,0.2-0.3,0.3-0.5c-12.5,5.7-26.7,11.4-41.4,16.4c-0.5,0.3-0.6,0.6-0.3,1c3.6,3.7,6.7,5.5,9,5.1    c0.5-0.1,0.6-0.2,0.9-0.3c-1.9,0.2-4.4-1.4-7.4-4.8c13.4-4.6,26.4-9.8,37.9-15.1c0,0,0-0.1,0-0.1c-0.5,1.2-1,2.9,0.3,2.5    c0,0-0.1,0-0.1,0c-3.3,4.3-7.2,7.6-11.7,9.8c-0.1,0.1-0.3,0.1-0.4,0.2l0.9-0.4c0.1,0,0.2-0.1,0.3-0.1c4.7-2.3,8.9-5.7,12.4-10.1    c3-1.8,7.3-6.8,7.8-9.4c11.9-13.4,15.1-17.6,25.9-33.2c4.1-2.2,8-4.5,11.6-6.6c0-0.1,0-0.1,0.1-0.2c-1,3-1.4,5.7-0.2,5.4l-0.1,0    c-9,18.1-21.9,33.1-38.4,43.5l1.7-1.1c16.3-10.6,29.2-25.5,38.1-43.2c2.1-1.7,4.6-5.5,6.4-9.3c6.8-4.6,12-8.8,15.3-12.6    c-1,1.9-2,3.7-2.7,5.7c-1.6,2.7-3.2,5.4-5,8l0.8-1.1c1.5-2.3,3-4.7,4.4-7.1c1.2-1.4,5-8.7,7.8-14.5l0.2-0.4c0,0.1-0.1,0.2-0.1,0.2    c1.9-3.9,3.2-7.2,3.1-7.6c0,0,0,0,0,0c0,0,0,0,0,0c0.4-1,0.8-2,1.2-3c1-1.8,2.7-6.2,4.2-10.7c0.4-0.7,0.6-1.3,0.8-1.9l1.7-5.7    c-0.2,0.7-0.5,1.4-0.9,2.2c1-3.5,1.6-6.5,1.3-7.3c-0.1,0-0.2,0.1-0.3,0.2c-0.3,0.5-1.2,1.9-4.1,11.7c-3.9,4.6-10.2,9.7-18.4,15.2    c0.5-3.4,0.1-6-1.6-6.2c-0.1,0-0.2,0-0.3,0c0,0,0,0,0.1,0c0.2-1.3,0.3-2.5,0.5-3.8c11.4-7.4,19.8-14.2,24.2-20    c1.8-2.3,2.8-4.4,3.2-6.2l0.9-4.9l0.2-0.9c-0.3,1.9-1.4,4.1-3.3,6.6c-4.5,5.9-13,12.8-24.6,20.3c0.4-5.1,0.7-10.4,0.6-15.7    c2.2-2.7,3.3-6.6,3.5-10.4c10.5-7.1,18.3-13.6,22.6-19.3c2.4-3.2,3.6-5.9,3.6-8.2l0,0c0,0,0,0,0,0l0,0l0-1.2    C428.7,246.4,428.7,244.6,428.7,243.2z M312.5,191.1c0-0.7,0.3-1.1,0.7-1.3C312.9,190.1,312.6,190.4,312.5,191.1z M313.5,189.7    c0.2-0.1,0.5-0.1,0.7,0C314,189.6,313.7,189.6,313.5,189.7z M314.2,189.6c0.1,0,0.2,0,0.3,0c0.1,0.1,0.3,0.1,0.4,0.2    C314.7,189.7,314.5,189.7,314.2,189.6z M315.9,190.7c0.2,0.3,0.4,0.6,0.5,0.7C316.2,191.2,316.1,190.9,315.9,190.7z M343.1,124.5    c0.5,0.6,1,1,1,1c0.2,0.2,0.4,0.3,0.7,0.5C344.1,125.7,343.5,125.1,343.1,124.5z M360,103.2C360,103.3,360,103.3,360,103.2    C360,103.3,360,103.2,360,103.2C360,103.2,360,103.2,360,103.2z M348.8,94.7c-0.2-0.1-0.3-0.2-0.4-0.3    C348.6,94.5,348.7,94.6,348.8,94.7z M298.2,71.4c0-0.1-0.1-0.1-0.2-0.2C298.2,71.3,298.2,71.3,298.2,71.4    C298.2,71.4,298.2,71.4,298.2,71.4z M301.7,72.3C301.7,72.3,301.7,72.3,301.7,72.3C301.7,72.3,301.7,72.3,301.7,72.3    C301.7,72.3,301.7,72.3,301.7,72.3z M319.6,105.9c0.2,0.1,0.5,0.3,0.8,0.4c-0.7-0.3-1.4-0.8-2-1.3    C319,105.5,319.6,105.9,319.6,105.9z M224.5,387.3c-0.4,0-0.8,0.1-1.2,0.2C223.6,387.5,224,387.4,224.5,387.3z M93.6,243.4    c0-0.3,0-0.8,0.1-1.4C93.7,242.4,93.7,242.8,93.6,243.4z M93.8,241.9c0.1-0.5,0.3-0.9,0.5-1.2c0.1-0.1,0.1-0.1,0.2-0.2    C94.1,241.1,93.9,241.4,93.8,241.9z M94.5,240.5c0.1-0.1,0.2-0.1,0.4,0C94.8,240.5,94.7,240.5,94.5,240.5z M95,240.5    c0.2,0.1,0.5,0.4,0.7,1.1C95.5,241.2,95.3,241,95,240.5z M95.8,242.2c0,0.3,0.1,0.6,0.1,1C95.9,242.8,95.8,242.5,95.8,242.2z     M123.7,346.5c-5.4-9.5-10.2-19.8-14.3-30.8c-8.5-23-12.8-46.9-13.4-70.3c0.7-0.1,1.4-0.1,2.1-0.2c0,0,0-0.1,0-0.1    c0.5,5.4,2.6,9.4,4.9,10.3c1.7,19.9,6.1,40.1,13.3,59.6c4,10.9,8.8,21.2,14.2,30.8C128.1,346.1,125.8,346.3,123.7,346.5z     M185,324.2c-5.1,1.7-5.8,7.1-4,12.1c0-0.1-0.1-0.1-0.1-0.2c-18.2,4.5-34.3,7.7-47.8,9.4c-5.3-9.5-10.1-19.8-14.1-30.8    c-7.2-19.5-11.6-39.6-13.6-59.5c0.3-0.2,0.6-0.5,1-0.8c2-2.2,3-6.4,3.1-10.7c0,0,0,0.1,0,0.1c5.8-0.8,12.2-2,18.9-3.3    c8.5,11.2,9.3,12,21.9,25.1c0.4-2,0.8-3.2,1.7-4.7c-11.3-11.6-11.7-12.1-22.2-25.7c-0.5-0.6-0.8-0.6-1.2-0.6    c-7,1.4-13.5,2.6-19.4,3.4c0,0.1,0,0.3,0.1,0.4c0.4,2.4,0.4,4.4,0.3,5.2c0.1-6.4-1.7-13-4.8-14.1c0.1-5.6,0.4-11.1,0.9-16.6    c14.7-1.9,33.2-5.7,54.9-11.8c0.2-0.3,0.4-0.6,0.6-0.9c4-8.8,7.9-17.7,11.9-26.5c1.7-0.5,3.4-1,5.2-1.6    c32-9.9,63.7-22.3,90.2-34.8c3.2,4.1,6.4,8.3,9.5,12.7c0.4-0.4,0.8-0.7,1.3-0.9c-4.2,2.2-3.1,9,0.4,14c1.4,2,3.1,3.7,4.8,4.8    c-0.2-0.1-0.4-0.3-0.6-0.5l-0.5-0.4c-1.8,23.2-4.3,36.6-10.4,62.8c-4.6,1.9-9.3,3.7-14.1,5.6c-2.2-5.7-4.4-11.3-6.6-16.8    c1-0.8,1.9-2,2.5-3.5c3.6-8.7-4.6-22.4-14.1-19.5c-6.3,2.9-5.9,11.3-3.7,16.3c2.9,6.3,8.5,9.2,12.9,7.8c-0.5,0.1-0.9,0.3-1.5,0.3    l-0.3,0c2.2,5.6,4.4,11.2,6.5,16.9c-18.5,7.1-37.7,13.7-56.9,19.7c-10.8,3.3-21.1,6.3-30.8,8.9c0,0,0,0,0,0.1    c-2.1-5-6.1-8.9-10.9-8c-5.7,1.8-7,9.9-4.9,16.4c3.1,9.7,12.1,13.1,15.9,6.2c2-3.6,1.9-8.7,0.4-13.1c0.5,1.4,0.8,2.6,1,4.3    c9.8-2.6,20.2-5.6,31-9c19.4-6,38.7-12.7,57.3-19.8c3.1,8.2,6.3,16.6,9.4,25c-5.1,1.9-10.3,3.9-15.5,5.8c0,0.1,0.1,0.2,0.1,0.2    c-2.8-5-7.7-8.5-13.3-6.9c-7.5,3.2-6.9,12.3-4.8,17.2c0.9,2.2,2.2,4,3.7,5.4c-3.1,9.6-3.8,11.8-11.1,34.1c-1,0.3-1.9,0.6-2.9,0.9    c-8.3,2.6-16.3,4.9-23.9,7.3C195.5,326.9,190.3,323.2,185,324.2z M304.1,348.6c-22.5-13.1-23.3-13.1-24.2-13    c-14.8,5.5-29.9,10.6-45.1,15.3c-10.3,3.2-20.1,6-29.4,8.5c-2.6-4.2-5.1-8.7-7.5-13.3c1.2-0.8,2.2-2,2.7-3.8    c0.5-1.7,0.5-3.7,0-5.6c7.7-2.1,15.8-4.5,24.1-7.1c1.2-0.4,2.5-0.8,3.7-1.2c0.8-0.3,1-0.7,1.2-1.2c6.7-20.4,6.7-20.4,11.4-34.7    c4.3,1.5,8.9,0.1,11.1-4.9c1.1-2.6,1.3-5.5,0.7-8.4c0,0,0,0.1,0,0.1c5.2-1.9,10.4-3.8,15.5-5.8c2.1,5.6,4.1,11.2,6.1,16.6    c0.2,0.4,0.3,0.6,0.4,0.8c0,0,0.1-0.1,0.1-0.1c-4.3,3.4-4.9,10.4-2.5,15.7c4.3,9.3,15,10,18.3,1.3c0.9-2.4,1-4.9,0.6-7.3    c9.2-3.3,18.2-7,26.8-10.8c11.7,8,15.3,10.4,25.4,18.1c0.3,0.1,0.7,0.3,1,0.3c9-4.1,17.1-8.2,24.8-12.2c0-0.1,0-0.2-0.1-0.3    c1.7,6.7,6.2,8.6,9.8,3.6c5.7-7.9,3.1-23-3.8-21.9c-0.4,0.1-1,0.3-1.4,0.5c-4.6,2.9-5.6,10-5.1,14.8c-0.1-0.6-0.1-1.2-0.1-1.9    c-7.5,3.9-15.5,7.9-24,11.9c-11.5-8.6-12.7-9.5-25.8-18.4c-0.7-0.4-0.9-0.4-1.6-0.2c-9,3.9-18.2,7.8-27.8,11.5    c-2.4-4.2-6.6-7.1-11-6.3c0,0,0.1,0,0.1,0c-0.1-0.3-0.1-0.4-0.2-0.7c-1.9-5.4-4-10.9-6-16.6c22.8-8.8,44.4-18.2,63.7-27.5    c2.2,5.8,4.1,11.6,5.9,17.3c0.3-0.2,0.5-0.4,0.7-0.6c-4.3,3.1-5.1,11-3,16.9c3.2,8.9,10.9,10.4,14.5,2.9c4.3-8.9-1.4-22-8.6-21    c-1.8-5.7-3.7-11.5-5.9-17.3c4-2,8-4,11.8-5.9c23,17.5,29,23.6,40.4,36.5c-0.3,2.4-0.3,5,0,7.3c0.7,5.8,2.9,8.4,5,7.9    c0,0-0.1,0-0.1,0l-0.1,0c0.1,5.3-0.1,10.5-0.5,15.6C373.7,318.2,340.8,334.1,304.1,348.6z M413.6,317.1c0.1-0.1,0.1-0.2,0.2-0.2    C413.7,317,413.6,317.1,413.6,317.1z M414.4,314.8c0.1-0.1,0.2-0.2,0.3-0.4C414.6,314.6,414.5,314.7,414.4,314.8z M398.1,322.6    c8-5.4,14.1-10.4,17.9-14.9c0,0,0,0,0,0c-1.8,6.2-1.7,6.7-1.7,7c0,0,0.1,0,0.1,0.1c0,0,0,0-0.1,0c-0.4,1-0.8,2.1-1.2,3.1    c0.1-0.1,0.1-0.2,0.2-0.3c-0.4,0.8-1.4,2.8-6.5,13.3c0,0,0,0,0,0c0.3-0.6,0.6-1.2,1-2.2c-3.4,4-8.9,8.4-16,13.2    c1-2.9,1.2-5.2,0.2-5.6c-0.2-0.1-0.4-0.1-0.6,0c0,0,0.1,0,0.1,0c0.4-1.1,0.7-2.3,1.1-3.5C394.9,330.6,396.9,326.6,398.1,322.6z" style="fill: #0de809; fill-opacity: 1;"></path><path class="st1" d="M272.5,410.6c1.1-0.6,1.8-1.6,1.6-3.1c-0.1-0.7-0.3-1.3-0.7-2c0,0,0.1,0.1,0.1,0.1    c22.9-7.2,45.6-15.9,65.4-24.8c0.4-0.2,0.6-0.4,0.9-0.9c9.2-13.6,11.8-18.3,18-29.7c-0.3-0.2-0.4-0.4-0.6-0.6    c1.4,1.7,3.7,1.6,6.1-0.8c6.2-6.2,6.7-19.2,0.8-18.7c-0.6,0-1.2,0.3-1.7,0.5c-4.9,2.9-6.7,10.1-6.7,13.9c0,1.5,0.3,2.8,0.7,3.8    l0,0c-6.8,12.5-12.6,21.5-17.7,29.5c-20.5,9.2-43.8,18.1-67.2,25.6c0.1,0.1,0.2,0.1,0.2,0.2c-2.3-2-6.1-3.4-9.5-2.9    c0.1,0,0.3,0,0.4-0.1c-5-5.6-10.1-12.4-15.2-20.1c0.8-0.5,1.4-1.1,1.9-1.8c15,6.1,26.3,10.5,26.4,10.5c0.6,0.2,0.9,0.2,1.4,0.1    c17-5.7,33.7-12.1,49.5-18.8c0.2-0.2,0.5-0.5,0.7-0.8c1.1-2,2.5-4.6,3.6-6.6c-0.2-0.1-0.3-0.2-0.5-0.2c2.6,1.2,5.9-0.1,8.4-3.9    c4.4-7,1.8-16-4.4-15c-0.5,0.1-1.1,0.3-1.5,0.5c-5.7,2.9-6.7,9.6-6,13.2c0.3,1.5,0.9,2.7,1.6,3.6c0,0,0,0,0,0l-3.1,6    c-15.6,6.6-32.3,12.9-49.3,18.6c-11.4-4.7-11.4-4.7-25.7-10.6c0,0.2,0,0.4-0.1,0.6c0.7-6.4-7.1-13.8-15.2-11.9    c-6.4,2.3-5.3,8.5-2.4,12.2c3,3.9,7.5,5.7,11.3,5.4c5.3,7.7,10.6,14.3,15.8,19.9c0.2-0.1,0.5-0.2,0.7-0.4    c-2.8,1.2-3.3,3.6-1.4,5.9c0,0-0.1-0.1-0.1-0.1c-17.8,5.1-33.3,8.6-45.8,10.4c-5.3-2.4-10.6-5.1-15.8-8.2c-0.5,0.2-1,0.3-1.9,0.3    l-0.2,0c5.2,3.1,10.5,5.9,15.9,8.2c-12.1,1.6-21.1,1.6-26.2-0.2l5.7,1.9c4.9,1.6,13.4,1.6,24.8,0c1.1,0.4,2.2,0.8,3.3,1.2    c0.1-0.1,0.3-0.2,0.6-0.2c-1.3,0.2-0.7,0.8-0.2,1.2c0.8,0.6,2.4,1.2,4.4,1.8c-0.1,0-0.1,0-0.2-0.1c-7.9,0.9-14.1,0.9-18.2,0l6,1.3    c3.9,0.7,9.6,0.7,16.7-0.2c-0.3-0.1-0.5-0.1-0.8-0.2c4.2,0.9,9,1.5,11.2,1.4c-0.1,0-0.2,0-0.2,0l-0.1,0c9.3,1.6,18.7,2,28,1.2    l1.6-0.2c-5.3,0.3-12.4,0.8-17.6,0.2c-3.2-0.4-7.4-1.2-10.6-1.3c0,0-0.1,0-0.1,0c0.1,0,0.1-0.1,0.2-0.1c-0.1-0.5-1.9-1.2-4.4-2    c4.3-0.7,9-1.6,14-2.8c11.2,4,22.5,5.3,33.4,3.6l1.5-0.3c-11.2,1.9-22.9,0.3-34.7-4.4c-1.5-0.5-2.1-0.4-2.6-0.4    c-5.7,1.3-11,2.4-15.8,3.1c-4.6-1.2-9.6-2.1-11.4-1.9c0.3,0,0.6-0.1,1.1,0c-1.1-0.4-2.1-0.8-3.2-1.2c12-1.7,27-5.1,44.1-10.1    c0,0-0.1,0-0.1-0.1c3.4,2.1,8.1,2.7,10.7,1.5c-0.6,0.3-1.3,0.5-2.1,0.6c10,8.1,19.4,11.5,27.5,9.5c0.1,0,0.3-0.1,0.4-0.1l0.1,0    c0.3-0.1,0.6-0.2,0.9-0.3c-0.2,0-0.3,0.1-0.5,0.1C290.9,422.4,282,418.8,272.5,410.6z M356.7,349c0-0.1-0.1-0.1-0.1-0.2l-0.1-0.2    C356.6,348.7,356.7,348.8,356.7,349z" style="fill: #0de809; fill-opacity: 1;"></path><path class="st1" d="M419.2,210.2c-3.3,4.4-8.6,9.3-15.6,14.5c0,0.1,0.1,0.2,0.1,0.3c0.9,2.5,1.2,4.6,1.4,5.4    c6.9-5.2,12.2-10.1,15.5-14.5c2.3-3.1,3.6-5.8,3.8-8.1c0-0.2,0-0.4,0-0.6c0-0.4-0.3-1.5-0.5-2.7c0.3,1.1,0.5,2.2,0.5,2.7    c0-0.6,0-1.1-0.2-1.6l-1.5-6l0.2,1.8C423,204,421.7,206.9,419.2,210.2z M423.4,202.6c-0.1-0.5-0.3-0.9-0.4-1.1    C423.1,201.6,423.3,202.1,423.4,202.6z" style="fill: #0de809; fill-opacity: 1;"></path><path class="st1" d="M109.6,358.7c-0.3,0.3-0.7,0.2-1.5-0.3c1.4,1.9,2.7,3.7,4.2,5.5c0.1-0.1,0.3-0.1,0.5-0.1    c-1.5-0.1,0.4,3.3,3.2,6.6c0.9,1.1,1.9,2.2,3,3.4c5.1,5.4,11.1,9.8,11.4,8.5c0.4-1.7-11.9-15.7-16.6-18.2c0,0,0,0,0.1,0    C112.4,362.4,111,360.5,109.6,358.7z" style="fill: #0de809; fill-opacity: 1;"></path></svg> <svg y="456.10000228881836" viewBox="1.309999942779541 5.050000190734863 777.0999755859375 13.659998893737793" x="-101.04997680664061" height="13.659998893737793" width="777.0999755859375" style="overflow: visible;"><g fill="#03c200" fill-opacity="1" style=""><path d="M3.72 18.54L1.31 18.54L1.31 5.45Q2.21 5.27 3.15 5.17Q4.09 5.07 5.13 5.07L5.13 5.07Q7.98 5.07 9.43 6.20Q10.87 7.34 10.87 9.78L10.87 9.78Q10.87 12.10 9.46 13.30Q8.05 14.50 5.18 14.50L5.18 14.50Q4.79 14.50 4.44 14.49Q4.10 14.47 3.72 14.44L3.72 14.44L3.72 18.54ZM5.20 12.66L5.20 12.66Q6.94 12.66 7.73 11.98Q8.52 11.30 8.52 9.80L8.52 9.80Q8.52 8.28 7.74 7.59Q6.96 6.90 5.34 6.90L5.34 6.90Q4.87 6.90 4.48 6.93Q4.10 6.97 3.72 7.04L3.72 7.04L3.72 12.57Q4.09 12.62 4.44 12.64Q4.79 12.66 5.20 12.66ZM24.44 18.54L22.08 18.54L22.08 5.49Q22.64 5.37 23.28 5.27Q23.92 5.18 24.61 5.12Q25.30 5.07 26.02 5.07L26.02 5.07Q28.81 5.07 30.20 6.08Q31.59 7.09 31.59 9.23L31.59 9.23Q31.59 10.62 30.93 11.56Q30.27 12.49 29.02 12.96Q27.77 13.44 26.01 13.44L26.01 13.44Q25.55 13.44 25.19 13.42Q24.83 13.40 24.44 13.38L24.44 13.38L24.44 18.54ZM32.67 18.54L30.01 18.54L25.58 12.35L28.18 12.35L32.67 18.54ZM26.05 11.62L26.05 11.62Q27.74 11.62 28.53 11.05Q29.32 10.48 29.32 9.23L29.32 9.23Q29.32 8.41 28.99 7.88Q28.67 7.36 27.99 7.11Q27.31 6.87 26.25 6.87L26.25 6.87Q25.71 6.87 25.29 6.91Q24.86 6.96 24.44 7.03L24.44 7.03L24.44 11.54Q24.73 11.57 24.98 11.58Q25.23 11.60 25.48 11.61Q25.74 11.62 26.05 11.62ZM48.34 18.71L48.34 18.71Q46.53 18.71 45.18 17.98Q43.83 17.25 43.08 15.74Q42.33 14.23 42.33 11.88L42.33 11.88Q42.33 9.53 43.08 8.02Q43.83 6.51 45.18 5.78Q46.53 5.05 48.34 5.05L48.34 5.05Q50.16 5.05 51.51 5.78Q52.86 6.51 53.60 8.02Q54.35 9.54 54.35 11.88L54.35 11.88Q54.35 14.22 53.60 15.74Q52.86 17.25 51.50 17.98Q50.15 18.71 48.34 18.71ZM48.34 16.74L48.34 16.74Q49.44 16.74 50.23 16.26Q51.02 15.79 51.45 14.73Q51.88 13.67 51.88 11.93L51.88 11.93Q51.88 10.14 51.44 9.06Q51.01 7.98 50.22 7.50Q49.43 7.02 48.34 7.02L48.34 7.02Q47.26 7.02 46.46 7.49Q45.67 7.97 45.23 9.02Q44.80 10.08 44.80 11.83L44.80 11.83Q44.80 13.63 45.23 14.71Q45.67 15.79 46.46 16.26Q47.25 16.74 48.34 16.74ZM72.05 18.54L68.50 18.54L64.05 5.22L66.58 5.22L70.60 17.52L70.07 17.52L74.13 5.22L76.49 5.22L72.05 18.54ZM89.42 18.54L87.02 18.54L87.02 5.22L89.42 5.22L89.42 18.54ZM104.71 18.67L104.71 18.67Q104.17 18.67 103.59 18.64Q103.02 18.62 102.43 18.58Q101.84 18.53 101.23 18.46L101.23 18.46L101.23 5.49Q101.82 5.36 102.49 5.27Q103.16 5.18 103.85 5.13Q104.54 5.08 105.19 5.08L105.19 5.08Q108.70 5.08 110.49 6.74Q112.28 8.40 112.28 11.88L112.28 11.88Q112.28 14.26 111.44 15.75Q110.60 17.25 108.92 17.96Q107.24 18.67 104.71 18.67ZM105.30 16.69L105.30 16.69Q106.80 16.69 107.81 16.20Q108.81 15.72 109.31 14.66Q109.80 13.60 109.80 11.87L109.80 11.87Q109.80 10.15 109.31 9.09Q108.81 8.03 107.82 7.54Q106.82 7.05 105.35 7.05L105.35 7.05Q104.95 7.05 104.50 7.09Q104.06 7.13 103.64 7.20L103.64 7.20L103.64 16.61Q104.04 16.65 104.44 16.67Q104.84 16.69 105.30 16.69ZM126.00 18.54L123.60 18.54L123.60 5.22L126.00 5.22L126.00 18.54ZM140.08 18.54L137.81 18.54L137.81 5.22L140.24 5.22L147.02 15.61L146.57 15.61L146.57 5.22L148.83 5.22L148.83 18.54L146.40 18.54L139.63 8.15L140.08 8.15L140.08 18.54ZM167.49 18.68L167.49 18.68Q165.05 18.68 163.42 17.95Q161.79 17.23 160.97 15.73Q160.15 14.23 160.15 11.91L160.15 11.91Q160.15 9.57 160.99 8.05Q161.84 6.53 163.45 5.79Q165.06 5.05 167.34 5.05L167.34 5.05Q168.11 5.05 168.86 5.14Q169.61 5.23 170.33 5.41L170.33 5.41L170.33 7.42Q169.60 7.23 168.91 7.15Q168.23 7.07 167.54 7.07L167.54 7.07Q165.92 7.07 164.84 7.54Q163.76 8.02 163.22 9.09Q162.67 10.16 162.67 11.93L162.67 11.93Q162.67 13.61 163.18 14.66Q163.69 15.71 164.73 16.19Q165.76 16.68 167.31 16.68L167.31 16.68Q167.89 16.68 168.44 16.63Q168.98 16.59 169.45 16.51L169.45 16.51L168.44 17.42L168.44 12.06L170.69 12.06L170.69 18.40Q169.84 18.54 169.06 18.61Q168.27 18.68 167.49 18.68ZM199.54 18.67L199.54 18.67Q199.00 18.67 198.43 18.64Q197.86 18.62 197.26 18.58Q196.67 18.53 196.07 18.46L196.07 18.46L196.07 5.49Q196.65 5.36 197.32 5.27Q197.99 5.18 198.68 5.13Q199.37 5.08 200.03 5.08L200.03 5.08Q203.54 5.08 205.32 6.74Q207.11 8.40 207.11 11.88L207.11 11.88Q207.11 14.26 206.27 15.75Q205.43 17.25 203.75 17.96Q202.07 18.67 199.54 18.67ZM200.13 16.69L200.13 16.69Q201.64 16.69 202.64 16.20Q203.64 15.72 204.14 14.66Q204.63 13.60 204.63 11.87L204.63 11.87Q204.63 10.15 204.14 9.09Q203.64 8.03 202.65 7.54Q201.65 7.05 200.18 7.05L200.18 7.05Q199.78 7.05 199.34 7.09Q198.89 7.13 198.47 7.20L198.47 7.20L198.47 16.61Q198.87 16.65 199.27 16.67Q199.67 16.69 200.13 16.69ZM219.37 18.54L217.01 18.54L221.48 5.22L224.96 5.22L229.44 18.54L227.05 18.54L223.07 6.29L223.34 6.29L219.37 18.54ZM226.60 14.72L219.83 14.72L220.36 12.78L226.08 12.78L226.60 14.72ZM244.10 18.54L241.69 18.54L241.69 7.25L237.40 7.25L237.40 5.22L248.38 5.22L248.38 7.25L244.10 7.25L244.10 18.54ZM258.71 18.54L256.36 18.54L260.83 5.22L264.31 5.22L268.79 18.54L266.40 18.54L262.41 6.29L262.69 6.29L258.71 18.54ZM265.95 14.72L259.18 14.72L259.70 12.78L265.43 12.78L265.95 14.72ZM295.52 18.54L293.11 18.54L293.11 5.45Q294.01 5.27 294.95 5.17Q295.88 5.07 296.93 5.07L296.93 5.07Q299.78 5.07 301.23 6.20Q302.67 7.34 302.67 9.78L302.67 9.78Q302.67 12.10 301.26 13.30Q299.84 14.50 296.97 14.50L296.97 14.50Q296.59 14.50 296.24 14.49Q295.89 14.47 295.52 14.44L295.52 14.44L295.52 18.54ZM297.00 12.66L297.00 12.66Q298.74 12.66 299.53 11.98Q300.32 11.30 300.32 9.80L300.32 9.80Q300.32 8.28 299.54 7.59Q298.76 6.90 297.14 6.90L297.14 6.90Q296.67 6.90 296.28 6.93Q295.89 6.97 295.52 7.04L295.52 7.04L295.52 12.57Q295.88 12.62 296.24 12.64Q296.59 12.66 297.00 12.66ZM316.24 18.54L313.88 18.54L313.88 5.49Q314.44 5.37 315.08 5.27Q315.72 5.18 316.41 5.12Q317.10 5.07 317.82 5.07L317.82 5.07Q320.61 5.07 322.00 6.08Q323.39 7.09 323.39 9.23L323.39 9.23Q323.39 10.62 322.73 11.56Q322.07 12.49 320.82 12.96Q319.57 13.44 317.81 13.44L317.81 13.44Q317.35 13.44 316.99 13.42Q316.63 13.40 316.24 13.38L316.24 13.38L316.24 18.54ZM324.47 18.54L321.80 18.54L317.38 12.35L319.98 12.35L324.47 18.54ZM317.84 11.62L317.84 11.62Q319.54 11.62 320.33 11.05Q321.12 10.48 321.12 9.23L321.12 9.23Q321.12 8.41 320.79 7.88Q320.46 7.36 319.78 7.11Q319.10 6.87 318.05 6.87L318.05 6.87Q317.51 6.87 317.08 6.91Q316.66 6.96 316.24 7.03L316.24 7.03L316.24 11.54Q316.53 11.57 316.78 11.58Q317.03 11.60 317.28 11.61Q317.54 11.62 317.84 11.62ZM340.14 18.71L340.14 18.71Q338.33 18.71 336.98 17.98Q335.63 17.25 334.88 15.74Q334.13 14.23 334.13 11.88L334.13 11.88Q334.13 9.53 334.88 8.02Q335.63 6.51 336.98 5.78Q338.33 5.05 340.14 5.05L340.14 5.05Q341.96 5.05 343.31 5.78Q344.66 6.51 345.40 8.02Q346.15 9.54 346.15 11.88L346.15 11.88Q346.15 14.22 345.40 15.74Q344.66 17.25 343.30 17.98Q341.95 18.71 340.14 18.71ZM340.14 16.74L340.14 16.74Q341.24 16.74 342.03 16.26Q342.82 15.79 343.25 14.73Q343.67 13.67 343.67 11.93L343.67 11.93Q343.67 10.14 343.24 9.06Q342.81 7.98 342.02 7.50Q341.23 7.02 340.14 7.02L340.14 7.02Q339.06 7.02 338.26 7.49Q337.46 7.97 337.03 9.02Q336.60 10.08 336.60 11.83L336.60 11.83Q336.60 13.63 337.03 14.71Q337.46 15.79 338.26 16.26Q339.05 16.74 340.14 16.74ZM363.60 18.71L363.60 18.71Q362.04 18.71 360.81 18.33Q359.59 17.95 358.73 17.13Q357.88 16.32 357.43 15.02Q356.98 13.73 356.98 11.91L356.98 11.91Q356.98 9.58 357.77 8.06Q358.57 6.53 360.08 5.79Q361.59 5.05 363.74 5.05L363.74 5.05Q364.51 5.05 365.22 5.13Q365.93 5.22 366.62 5.39L366.62 5.39L366.62 7.40Q365.96 7.23 365.29 7.15Q364.62 7.07 363.92 7.07L363.92 7.07Q362.45 7.07 361.47 7.54Q360.49 8.02 360.00 9.08Q359.51 10.13 359.51 11.87L359.51 11.87Q359.51 13.66 360.00 14.72Q360.50 15.78 361.45 16.24Q362.41 16.70 363.82 16.70L363.82 16.70Q364.52 16.70 365.20 16.59Q365.89 16.48 366.62 16.25L366.62 16.25L366.62 18.26Q365.97 18.47 365.19 18.59Q364.42 18.71 363.60 18.71ZM386.56 18.54L377.51 18.54L377.51 5.22L386.47 5.22L386.47 7.17L379.89 7.17L379.89 16.59L386.56 16.59L386.56 18.54ZM385.57 12.70L378.96 12.70L378.96 10.75L385.57 10.75L385.57 12.70ZM400.79 18.71L400.79 18.71Q399.88 18.71 398.95 18.57Q398.03 18.42 397.22 18.15L397.22 18.15L397.22 16.17Q397.78 16.36 398.40 16.49Q399.02 16.61 399.63 16.68Q400.24 16.75 400.79 16.75L400.79 16.75Q402.24 16.75 402.88 16.26Q403.52 15.78 403.52 14.89L403.52 14.89Q403.52 14.12 403.04 13.70Q402.57 13.28 401.33 12.97L401.33 12.97L400.43 12.74Q398.70 12.29 397.82 11.38Q396.95 10.47 396.95 8.97L396.95 8.97Q396.95 7.14 398.26 6.09Q399.57 5.05 402.20 5.05L402.20 5.05Q403.06 5.05 403.85 5.15Q404.65 5.26 405.28 5.45L405.28 5.45L405.28 7.43Q404.62 7.22 403.86 7.11Q403.09 7.01 402.33 7.01L402.33 7.01Q401.24 7.01 400.59 7.24Q399.93 7.46 399.64 7.87Q399.35 8.28 399.35 8.85L399.35 8.85Q399.35 9.57 399.78 9.98Q400.20 10.39 401.32 10.68L401.32 10.68L402.22 10.92Q403.49 11.23 404.31 11.74Q405.14 12.25 405.53 12.98Q405.93 13.72 405.93 14.72L405.93 14.72Q405.93 15.98 405.32 16.87Q404.70 17.76 403.56 18.23Q402.41 18.71 400.79 18.71ZM420.06 18.71L420.06 18.71Q419.15 18.71 418.22 18.57Q417.29 18.42 416.49 18.15L416.49 18.15L416.49 16.17Q417.05 16.36 417.67 16.49Q418.28 16.61 418.90 16.68Q419.51 16.75 420.06 16.75L420.06 16.75Q421.51 16.75 422.15 16.26Q422.78 15.78 422.78 14.89L422.78 14.89Q422.78 14.12 422.31 13.70Q421.84 13.28 420.60 12.97L420.60 12.97L419.70 12.74Q417.97 12.29 417.09 11.38Q416.21 10.47 416.21 8.97L416.21 8.97Q416.21 7.14 417.53 6.09Q418.84 5.05 421.47 5.05L421.47 5.05Q422.33 5.05 423.12 5.15Q423.92 5.26 424.55 5.45L424.55 5.45L424.55 7.43Q423.89 7.22 423.13 7.11Q422.36 7.01 421.60 7.01L421.60 7.01Q420.51 7.01 419.85 7.24Q419.20 7.46 418.91 7.87Q418.62 8.28 418.62 8.85L418.62 8.85Q418.62 9.57 419.04 9.98Q419.47 10.39 420.59 10.68L420.59 10.68L421.49 10.92Q422.76 11.23 423.58 11.74Q424.40 12.25 424.80 12.98Q425.20 13.72 425.20 14.72L425.20 14.72Q425.20 15.98 424.58 16.87Q423.97 17.76 422.82 18.23Q421.68 18.71 420.06 18.71ZM438.64 18.54L436.24 18.54L436.24 5.22L438.64 5.22L438.64 18.54ZM452.72 18.54L450.45 18.54L450.45 5.22L452.88 5.22L459.66 15.61L459.21 15.61L459.21 5.22L461.48 5.22L461.48 18.54L459.05 18.54L452.27 8.15L452.72 8.15L452.72 18.54ZM480.13 18.68L480.13 18.68Q477.69 18.68 476.06 17.95Q474.44 17.23 473.61 15.73Q472.79 14.23 472.79 11.91L472.79 11.91Q472.79 9.57 473.63 8.05Q474.48 6.53 476.09 5.79Q477.70 5.05 479.98 5.05L479.98 5.05Q480.75 5.05 481.50 5.14Q482.25 5.23 482.98 5.41L482.98 5.41L482.98 7.42Q482.24 7.23 481.55 7.15Q480.87 7.07 480.18 7.07L480.18 7.07Q478.57 7.07 477.49 7.54Q476.41 8.02 475.86 9.09Q475.31 10.16 475.31 11.93L475.31 11.93Q475.31 13.61 475.82 14.66Q476.33 15.71 477.37 16.19Q478.40 16.68 479.95 16.68L479.95 16.68Q480.53 16.68 481.08 16.63Q481.63 16.59 482.09 16.51L482.09 16.51L481.08 17.42L481.08 12.06L483.34 12.06L483.34 18.40Q482.48 18.54 481.70 18.61Q480.92 18.68 480.13 18.68ZM511.11 18.54L508.71 18.54L508.71 5.22L517.63 5.22L517.63 7.20L511.11 7.20L511.11 18.54ZM516.72 12.95L510.27 12.95L510.27 10.97L516.72 10.97L516.72 12.95ZM533.76 18.71L533.76 18.71Q531.95 18.71 530.60 17.98Q529.25 17.25 528.50 15.74Q527.75 14.23 527.75 11.88L527.75 11.88Q527.75 9.53 528.50 8.02Q529.25 6.51 530.60 5.78Q531.95 5.05 533.76 5.05L533.76 5.05Q535.58 5.05 536.93 5.78Q538.28 6.51 539.03 8.02Q539.78 9.54 539.78 11.88L539.78 11.88Q539.78 14.22 539.03 15.74Q538.28 17.25 536.93 17.98Q535.57 18.71 533.76 18.71ZM533.76 16.74L533.76 16.74Q534.86 16.74 535.65 16.26Q536.45 15.79 536.87 14.73Q537.30 13.67 537.30 11.93L537.30 11.93Q537.30 10.14 536.87 9.06Q536.44 7.98 535.64 7.50Q534.85 7.02 533.76 7.02L533.76 7.02Q532.68 7.02 531.89 7.49Q531.09 7.97 530.66 9.02Q530.23 10.08 530.23 11.83L530.23 11.83Q530.23 13.63 530.66 14.71Q531.09 15.79 531.88 16.26Q532.67 16.74 533.76 16.74ZM553.46 18.54L551.10 18.54L551.10 5.49Q551.66 5.37 552.30 5.27Q552.94 5.18 553.63 5.12Q554.32 5.07 555.04 5.07L555.04 5.07Q557.83 5.07 559.22 6.08Q560.61 7.09 560.61 9.23L560.61 9.23Q560.61 10.62 559.95 11.56Q559.29 12.49 558.04 12.96Q556.79 13.44 555.03 13.44L555.03 13.44Q554.57 13.44 554.21 13.42Q553.85 13.40 553.46 13.38L553.46 13.38L553.46 18.54ZM561.69 18.54L559.03 18.54L554.60 12.35L557.20 12.35L561.69 18.54ZM555.07 11.62L555.07 11.62Q556.76 11.62 557.55 11.05Q558.34 10.48 558.34 9.23L558.34 9.23Q558.34 8.41 558.01 7.88Q557.69 7.36 557.01 7.11Q556.33 6.87 555.27 6.87L555.27 6.87Q554.73 6.87 554.31 6.91Q553.88 6.96 553.46 7.03L553.46 7.03L553.46 11.54Q553.75 11.57 554.00 11.58Q554.25 11.60 554.50 11.61Q554.76 11.62 555.07 11.62ZM591.62 18.54L589.20 18.54L589.20 7.25L584.92 7.25L584.92 5.22L595.90 5.22L595.90 7.25L591.62 7.25L591.62 18.54ZM608.92 18.54L606.52 18.54L606.52 5.22L608.92 5.22L608.92 10.66L614.96 10.66L614.96 5.22L617.36 5.22L617.36 18.54L614.96 18.54L614.96 12.79L608.92 12.79L608.92 18.54ZM638.22 18.54L629.17 18.54L629.17 5.22L638.13 5.22L638.13 7.17L631.55 7.17L631.55 16.59L638.22 16.59L638.22 18.54ZM637.23 12.70L630.62 12.70L630.62 10.75L637.23 10.75L637.23 12.70ZM665.42 18.54L663.02 18.54L663.02 5.22L671.94 5.22L671.94 7.20L665.42 7.20L665.42 18.54ZM671.03 12.95L664.59 12.95L664.59 10.97L671.03 10.97L671.03 12.95ZM688.16 18.71L688.16 18.71Q686.29 18.71 685.11 18.11Q683.92 17.51 683.35 16.29Q682.78 15.07 682.78 13.19L682.78 13.19L682.78 5.22L685.19 5.22L685.19 13.43Q685.19 15.16 685.92 15.93Q686.65 16.71 688.16 16.71L688.16 16.71Q689.67 16.71 690.39 15.93Q691.12 15.16 691.12 13.43L691.12 13.43L691.12 5.22L693.49 5.22L693.49 13.19Q693.49 15.07 692.92 16.29Q692.35 17.51 691.17 18.11Q689.99 18.71 688.16 18.71ZM710.72 18.54L708.31 18.54L708.31 7.25L704.02 7.25L704.02 5.22L715.00 5.22L715.00 7.25L710.72 7.25L710.72 18.54ZM730.94 18.71L730.94 18.71Q729.08 18.71 727.89 18.11Q726.70 17.51 726.13 16.29Q725.56 15.07 725.56 13.19L725.56 13.19L725.56 5.22L727.97 5.22L727.97 13.43Q727.97 15.16 728.70 15.93Q729.43 16.71 730.94 16.71L730.94 16.71Q732.46 16.71 733.18 15.93Q733.90 15.16 733.90 13.43L733.90 13.43L733.90 5.22L736.27 5.22L736.27 13.19Q736.27 15.07 735.70 16.29Q735.14 17.51 733.96 18.11Q732.78 18.71 730.94 18.71ZM750.37 18.54L748.01 18.54L748.01 5.49Q748.57 5.37 749.21 5.27Q749.85 5.18 750.54 5.12Q751.23 5.07 751.95 5.07L751.95 5.07Q754.74 5.07 756.13 6.08Q757.52 7.09 757.52 9.23L757.52 9.23Q757.52 10.62 756.86 11.56Q756.20 12.49 754.95 12.96Q753.70 13.44 751.94 13.44L751.94 13.44Q751.48 13.44 751.12 13.42Q750.76 13.40 750.37 13.38L750.37 13.38L750.37 18.54ZM758.60 18.54L755.94 18.54L751.51 12.35L754.11 12.35L758.60 18.54ZM751.98 11.62L751.98 11.62Q753.67 11.62 754.46 11.05Q755.25 10.48 755.25 9.23L755.25 9.23Q755.25 8.41 754.92 7.88Q754.60 7.36 753.92 7.11Q753.24 6.87 752.18 6.87L752.18 6.87Q751.64 6.87 751.22 6.91Q750.79 6.96 750.37 7.03L750.37 7.03L750.37 11.54Q750.66 11.57 750.91 11.58Q751.16 11.60 751.41 11.61Q751.67 11.62 751.98 11.62ZM778.41 18.54L769.36 18.54L769.36 5.22L778.32 5.22L778.32 7.17L771.74 7.17L771.74 16.59L778.41 16.59L778.41 18.54ZM777.42 12.70L770.81 12.70L770.81 10.75L777.42 10.75L777.42 12.70Z" transform="translate(0, 0)"></path></g></svg> <svg y="373.89999771118164" viewBox="1.5799999237060547 13.010000228881836 855.2099609375 67.11000061035156" x="-140.10497985839845" height="67.11000061035156" width="855.2099609375" style="overflow: visible;"><g fill="#ffffff" fill-opacity="1" style=""><path d="M46.69 49.92L46.69 49.92Q46.69 57.38 41.19 61.28Q35.68 65.18 25.07 65.18L25.07 65.18L1.58 65.18L11.21 15.64L30.87 15.64Q39.20 15.64 43.63 18.60Q48.06 21.55 48.06 27.07L48.06 27.07Q48.06 36.91 36.49 39.16L36.49 39.16Q41.31 39.97 44.00 42.87Q46.69 45.77 46.69 49.92ZM18.98 22.57L16.38 35.96L27.18 35.96Q33.36 35.96 36.12 34.14Q38.88 32.31 38.88 28.34L38.88 28.34Q38.88 25.35 36.76 23.96Q34.63 22.57 29.92 22.57L29.92 22.57L18.98 22.57ZM15.08 42.82L12.06 58.25L24.05 58.25Q31.43 58.25 34.47 56.21Q37.51 54.18 37.51 49.75L37.51 49.75Q37.51 46.41 34.98 44.61Q32.45 42.82 27.11 42.82L27.11 42.82L15.08 42.82ZM91.02 41.17L91.02 41.17Q91.02 45.11 90.09 48.92Q89.16 52.73 87.33 55.76L87.33 55.76Q84.52 60.64 79.75 63.26Q74.99 65.88 68.94 65.88L68.94 65.88Q61.56 65.88 57.23 61.75Q52.91 57.62 52.91 50.45L52.91 50.45Q52.98 43.31 55.65 37.86L55.65 37.86Q58.36 32.38 63.25 29.43Q68.13 26.47 74.67 26.47L74.67 26.47Q82.65 26.47 86.84 30.32Q91.02 34.17 91.02 41.17ZM81.95 41.66L81.95 41.66Q81.95 32.52 74.18 32.52L74.18 32.52Q69.93 32.52 67.39 34.73L67.39 34.73Q65.71 36.21 64.49 38.78Q63.28 41.34 62.65 44.37Q62.02 47.39 62.02 50.20L62.02 50.20Q62.02 54.98 63.98 57.41Q65.95 59.84 69.82 59.84L69.82 59.84Q72.32 59.84 74.09 59.08Q75.87 58.32 77.20 56.81L77.20 56.81Q79.28 54.63 80.51 50.61Q81.74 46.58 81.95 41.66ZM120.13 58.68L120.02 58.68Q117.25 62.54 114.15 64.20Q111.06 65.85 106.98 65.85L106.98 65.85Q101.71 65.85 99.02 63.28Q96.33 60.71 96.33 55.86L96.33 55.86Q96.33 55.20 96.45 54.18Q96.57 53.16 96.73 52.03Q96.89 50.91 97.07 50.10L97.07 50.10L101.53 27.14L110.21 27.14L105.96 48.66Q105.15 52.59 105.15 54.28L105.15 54.28Q105.15 59.24 110.81 59.24L110.81 59.24Q113.38 59.24 115.66 57.87Q117.95 56.50 119.58 54.05Q121.22 51.61 121.82 48.45L121.82 48.45L125.96 27.14L134.68 27.14L128.85 57.06Q128.53 58.54 128.20 60.57Q127.86 62.61 127.51 65.18L127.51 65.18L119.21 65.18Q119.21 64.93 119.39 63.63Q119.57 62.33 119.78 60.86Q119.99 59.38 120.13 58.68L120.13 58.68ZM150.12 43.88L150.12 43.88L145.97 65.18L137.25 65.18L143.09 35.26Q143.37 33.79 143.70 31.75Q144.04 29.71 144.42 27.14L144.42 27.14L152.68 27.14Q152.68 27.35 152.53 28.67Q152.37 29.99 152.16 31.45Q151.95 32.91 151.80 33.64L151.80 33.64L151.91 33.64Q154.65 29.85 157.75 28.16Q160.84 26.47 164.92 26.47L164.92 26.47Q170.23 26.47 172.90 29.04Q175.57 31.61 175.57 36.46L175.57 36.46Q175.57 37.41 175.36 39.16Q175.15 40.92 174.83 42.22L174.83 42.22L170.37 65.18L161.72 65.18L165.97 43.66Q166.78 39.66 166.78 38.04L166.78 38.04Q166.78 33.08 161.12 33.08L161.12 33.08Q158.55 33.08 156.25 34.47Q153.95 35.86 152.33 38.29Q150.71 40.71 150.12 43.88ZM192.59 65.92L192.59 65.92Q187.14 65.92 184.01 62.42Q180.88 58.92 180.88 52.98L180.88 52.98Q180.88 46.13 183.09 39.59L183.09 39.59Q185.31 33.08 189.32 29.76Q193.32 26.44 199.20 26.44L199.20 26.44Q203.63 26.44 206.37 28.21Q209.11 29.99 210.16 33.40L210.16 33.40L210.34 33.40Q210.48 32.45 210.71 31.04Q210.94 29.64 211.29 27.70L211.29 27.70L214.21 13.01L222.82 13.01L214.38 57.16Q213.96 59.27 213.70 61.29Q213.43 63.32 213.26 65.18L213.26 65.18L204.64 65.18Q204.64 63.11 205.24 59.55L205.24 59.55L205.10 59.55Q202.57 62.86 199.69 64.39Q196.80 65.92 192.59 65.92ZM196.07 59.77L196.07 59.77Q202.01 59.77 205.03 54.56L205.03 54.56Q206.09 52.80 206.82 50.40Q207.56 47.99 207.97 45.49Q208.37 43.00 208.37 40.96L208.37 40.96Q208.37 36.70 206.53 34.61Q204.68 32.52 201.13 32.52L201.13 32.52Q197.33 32.52 194.98 34.98L194.98 34.98Q193.43 36.60 192.32 39.48Q191.21 42.36 190.62 45.63Q190.02 48.90 190.02 51.68L190.02 51.68Q190.02 55.72 191.51 57.74Q193.01 59.77 196.07 59.77ZM253.16 65.53L253.16 65.53Q249.71 65.53 247.96 64.09Q246.20 62.65 246.20 60.15L246.20 60.15Q246.20 59.52 246.25 58.96Q246.30 58.39 246.38 57.90L246.38 57.90L246.16 57.90Q243.21 62.44 240.24 64.16Q237.27 65.88 233.05 65.88L233.05 65.88Q228.13 65.88 225.14 62.95Q222.15 60.01 222.15 55.41L222.15 55.41Q222.15 48.90 226.69 45.58Q231.22 42.26 241.35 42.08L241.35 42.08L248.52 41.98Q249.26 38.64 249.26 37.41L249.26 37.41Q249.26 34.84 247.89 33.59Q246.52 32.34 243.91 32.34L243.91 32.34Q240.33 32.34 238.54 33.70Q236.74 35.05 236.04 37.69L236.04 37.69L227.78 36.60Q229.11 31.50 233.21 28.97Q237.30 26.44 244.16 26.44L244.16 26.44Q251.02 26.44 254.44 29.09Q257.87 31.75 257.87 36.81L257.87 36.81Q257.87 38.46 257.10 42.33L257.10 42.33L254.57 55.02Q254.25 56.74 254.25 57.76L254.25 57.76Q254.25 59.13 255.15 59.63Q256.04 60.12 257.03 60.12L257.03 60.12Q258.15 60.12 259.21 59.87L259.21 59.87L258.71 64.83Q257.34 65.29 255.96 65.41Q254.57 65.53 253.16 65.53ZM231.12 54.21L231.12 54.21Q231.12 56.74 232.61 58.22Q234.11 59.70 236.57 59.70L236.57 59.70Q239.59 59.70 242.05 57.80L242.05 57.80Q243.77 56.57 244.97 54.74Q246.16 52.91 246.69 50.73L246.69 50.73L247.54 47.11L241.38 47.14Q238.61 47.21 236.72 47.72Q234.84 48.23 233.61 49.11L233.61 49.11Q232.42 49.96 231.77 51.24Q231.12 52.52 231.12 54.21ZM291.09 26.93L289.62 34.21Q287.51 33.68 285.89 33.68L285.89 33.68Q283.15 33.68 280.99 35.17Q278.82 36.67 277.31 39.53Q275.80 42.40 274.99 46.51L274.99 46.51L271.34 65.18L262.65 65.18L268.31 36Q268.52 34.91 268.73 33.82Q268.95 32.73 269.09 31.64L269.09 31.64Q269.30 30.52 269.47 29.39Q269.65 28.27 269.79 27.14L269.79 27.14L278.09 27.14L277.24 33.15L276.96 34.91L277.10 34.91Q279.60 30.20 282.01 28.32Q284.41 26.44 287.54 26.44L287.54 26.44Q289.13 26.44 291.09 26.93L291.09 26.93ZM290.36 80.12L290.36 80.12Q287.30 80.12 284.77 79.52L284.77 79.52L286.00 73.37Q287.54 73.69 288.95 73.69L288.95 73.69Q291.90 73.69 294.13 71.86Q296.37 70.03 298.58 66.16L298.58 66.16L299.57 64.48L292.04 27.14L301.01 27.14L304.00 45.81Q304.17 46.97 304.40 48.64Q304.63 50.31 304.82 52.03Q305.02 53.75 305.16 55.11Q305.30 56.46 305.30 56.99L305.30 56.99Q305.47 56.64 305.65 56.27Q305.82 55.90 306 55.51L306 55.51L310.68 45.98L320.63 27.14L330.01 27.14L307.34 66.52Q303.50 72.77 301.18 75.20L301.18 75.20Q298.83 77.70 296.23 78.91Q293.63 80.12 290.36 80.12ZM358.00 15.64L376.73 15.64Q385.21 15.64 389.99 19.49Q394.77 23.34 394.77 30.09L394.77 30.09Q394.77 35.33 392.33 39.16Q389.88 43.00 385.42 45.05Q380.95 47.11 374.87 47.11L374.87 47.11L361.05 47.11L357.54 65.18L348.40 65.18L358.00 15.64ZM365.77 22.82L362.43 40.04L373.75 40.04Q379.62 40.04 382.55 37.76Q385.49 35.47 385.49 30.59L385.49 30.59Q385.49 26.79 383.06 24.80Q380.64 22.82 376.00 22.82L376.00 22.82L365.77 22.82ZM435.20 41.17L435.20 41.17Q435.20 45.11 434.27 48.92Q433.34 52.73 431.51 55.76L431.51 55.76Q428.70 60.64 423.93 63.26Q419.17 65.88 413.12 65.88L413.12 65.88Q405.74 65.88 401.41 61.75Q397.09 57.62 397.09 50.45L397.09 50.45Q397.16 43.31 399.83 37.86L399.83 37.86Q402.54 32.38 407.43 29.43Q412.31 26.47 418.85 26.47L418.85 26.47Q426.83 26.47 431.02 30.32Q435.20 34.17 435.20 41.17ZM426.13 41.66L426.13 41.66Q426.13 32.52 418.36 32.52L418.36 32.52Q414.11 32.52 411.57 34.73L411.57 34.73Q409.89 36.21 408.67 38.78Q407.46 41.34 406.83 44.37Q406.20 47.39 406.20 50.20L406.20 50.20Q406.20 54.98 408.16 57.41Q410.13 59.84 414 59.84L414 59.84Q416.50 59.84 418.27 59.08Q420.05 58.32 421.38 56.81L421.38 56.81Q423.46 54.63 424.69 50.61Q425.92 46.58 426.13 41.66ZM448.84 13.01L457.56 13.01L456.19 19.86L447.50 19.86L448.84 13.01ZM446.10 27.14L454.82 27.14L447.40 65.18L438.71 65.18L446.10 27.14ZM470.29 43.88L470.29 43.88L466.14 65.18L457.42 65.18L463.25 35.26Q463.54 33.79 463.87 31.75Q464.20 29.71 464.59 27.14L464.59 27.14L472.85 27.14Q472.85 27.35 472.69 28.67Q472.54 29.99 472.32 31.45Q472.11 32.91 471.97 33.64L471.97 33.64L472.08 33.64Q474.82 29.85 477.91 28.16Q481.01 26.47 485.09 26.47L485.09 26.47Q490.39 26.47 493.07 29.04Q495.74 31.61 495.74 36.46L495.74 36.46Q495.74 37.41 495.53 39.16Q495.32 40.92 495 42.22L495 42.22L490.54 65.18L481.89 65.18L486.14 43.66Q486.95 39.66 486.95 38.04L486.95 38.04Q486.95 33.08 481.29 33.08L481.29 33.08Q478.72 33.08 476.42 34.47Q474.12 35.86 472.50 38.29Q470.88 40.71 470.29 43.88ZM510.89 65.78L510.89 65.78Q506.99 65.78 504.83 63.81Q502.66 61.84 502.66 58.32L502.66 58.32Q502.66 55.97 503.23 53.12L503.23 53.12L507.09 33.12L502.17 33.12L503.33 27.14L508.61 27.14L513.07 18.35L518.59 18.35L516.90 27.14L524.00 27.14L522.88 33.12L515.71 33.12L511.80 53.23Q511.42 55.30 511.42 56.43L511.42 56.43Q511.42 58.01 512.23 58.80Q513.04 59.59 514.51 59.59L514.51 59.59Q515.78 59.59 518.20 59.13L518.20 59.13L517.25 64.93Q514.20 65.78 510.89 65.78ZM562.78 65.88L562.78 65.88Q553.61 65.88 548.72 62.63Q543.83 59.38 542.78 52.66L542.78 52.66L551.64 51.08Q552.45 55.20 555.22 57.08Q558 58.96 563.41 58.96L563.41 58.96Q570.06 58.96 573.26 57.02Q576.46 55.09 576.46 51.15L576.46 51.15Q576.46 49.43 575.75 48.22Q575.05 47.00 573.54 46.05L573.54 46.05Q572.41 45.35 570.32 44.58Q568.23 43.80 565.14 43.00L565.14 43.00Q558.88 41.31 555.79 39.48L555.79 39.48Q552.73 37.65 551.11 35.03Q549.49 32.41 549.49 28.69L549.49 28.69Q549.49 24.47 551.99 21.38Q554.48 18.28 559.00 16.59Q563.52 14.91 569.60 14.91L569.60 14.91Q577.76 14.91 582.68 17.82Q587.60 20.74 588.80 26.33L588.80 26.33L580.01 28.51Q579.09 25.17 576.37 23.33Q573.64 21.48 569.21 21.48L569.21 21.48Q564.08 21.48 561.32 23.27Q558.56 25.07 558.56 28.34L558.56 28.34Q558.56 30.13 559.48 31.34Q560.39 32.55 562.25 33.47L562.25 33.47Q563.17 33.93 565.01 34.54Q566.86 35.16 569.60 35.89L569.60 35.89Q574.49 37.23 577.09 38.44Q579.69 39.66 581.27 41.06L581.27 41.06Q583.31 42.79 584.40 45.07Q585.49 47.36 585.49 50.48L585.49 50.48Q585.49 57.97 579.80 61.93Q574.10 65.88 562.78 65.88ZM629.89 41.17L629.89 41.17Q629.89 45.11 628.96 48.92Q628.03 52.73 626.20 55.76L626.20 55.76Q623.39 60.64 618.63 63.26Q613.86 65.88 607.82 65.88L607.82 65.88Q600.43 65.88 596.11 61.75Q591.79 57.62 591.79 50.45L591.79 50.45Q591.86 43.31 594.53 37.86L594.53 37.86Q597.23 32.38 602.12 29.43Q607.01 26.47 613.55 26.47L613.55 26.47Q621.53 26.47 625.71 30.32Q629.89 34.17 629.89 41.17ZM620.82 41.66L620.82 41.66Q620.82 32.52 613.05 32.52L613.05 32.52Q608.80 32.52 606.27 34.73L606.27 34.73Q604.58 36.21 603.37 38.78Q602.16 41.34 601.52 44.37Q600.89 47.39 600.89 50.20L600.89 50.20Q600.89 54.98 602.86 57.41Q604.83 59.84 608.70 59.84L608.70 59.84Q611.19 59.84 612.97 59.08Q614.74 58.32 616.08 56.81L616.08 56.81Q618.15 54.63 619.38 50.61Q620.61 46.58 620.82 41.66ZM643.54 13.01L652.25 13.01L642.09 65.18L633.41 65.18L643.54 13.01ZM677.67 58.68L677.57 58.68Q674.79 62.54 671.70 64.20Q668.60 65.85 664.52 65.85L664.52 65.85Q659.25 65.85 656.56 63.28Q653.87 60.71 653.87 55.86L653.87 55.86Q653.87 55.20 653.99 54.18Q654.12 53.16 654.28 52.03Q654.43 50.91 654.61 50.10L654.61 50.10L659.07 27.14L667.76 27.14L663.50 48.66Q662.70 52.59 662.70 54.28L662.70 54.28Q662.70 59.24 668.36 59.24L668.36 59.24Q670.92 59.24 673.21 57.87Q675.49 56.50 677.13 54.05Q678.76 51.61 679.36 48.45L679.36 48.45L683.51 27.14L692.23 27.14L686.39 57.06Q686.07 58.54 685.74 60.57Q685.41 62.61 685.05 65.18L685.05 65.18L676.76 65.18Q676.76 64.93 676.93 63.63Q677.11 62.33 677.32 60.86Q677.53 59.38 677.67 58.68L677.67 58.68ZM705.59 65.78L705.59 65.78Q701.68 65.78 699.52 63.81Q697.36 61.84 697.36 58.32L697.36 58.32Q697.36 55.97 697.92 53.12L697.92 53.12L701.79 33.12L696.87 33.12L698.03 27.14L703.30 27.14L707.77 18.35L713.29 18.35L711.60 27.14L718.70 27.14L717.57 33.12L710.40 33.12L706.50 53.23Q706.11 55.30 706.11 56.43L706.11 56.43Q706.11 58.01 706.92 58.80Q707.73 59.59 709.21 59.59L709.21 59.59Q710.47 59.59 712.90 59.13L712.90 59.13L711.95 64.93Q708.89 65.78 705.59 65.78ZM727.52 13.01L736.24 13.01L734.87 19.86L726.19 19.86L727.52 13.01ZM724.78 27.14L733.50 27.14L726.08 65.18L717.40 65.18L724.78 27.14ZM775.23 41.17L775.23 41.17Q775.23 45.11 774.30 48.92Q773.37 52.73 771.54 55.76L771.54 55.76Q768.73 60.64 763.96 63.26Q759.20 65.88 753.15 65.88L753.15 65.88Q745.77 65.88 741.45 61.75Q737.12 57.62 737.12 50.45L737.12 50.45Q737.19 43.31 739.86 37.86L739.86 37.86Q742.57 32.38 747.46 29.43Q752.34 26.47 758.88 26.47L758.88 26.47Q766.86 26.47 771.05 30.32Q775.23 34.17 775.23 41.17ZM766.16 41.66L766.16 41.66Q766.16 32.52 758.39 32.52L758.39 32.52Q754.14 32.52 751.61 34.73L751.61 34.73Q749.92 36.21 748.71 38.78Q747.49 41.34 746.86 44.37Q746.23 47.39 746.23 50.20L746.23 50.20Q746.23 54.98 748.20 57.41Q750.16 59.84 754.03 59.84L754.03 59.84Q756.53 59.84 758.30 59.08Q760.08 58.32 761.41 56.81L761.41 56.81Q763.49 54.63 764.72 50.61Q765.95 46.58 766.16 41.66ZM791.65 43.88L791.65 43.88L787.50 65.18L778.78 65.18L784.62 35.26Q784.90 33.79 785.23 31.75Q785.57 29.71 785.95 27.14L785.95 27.14L794.21 27.14Q794.21 27.35 794.06 28.67Q793.90 29.99 793.69 31.45Q793.48 32.91 793.34 33.64L793.34 33.64L793.44 33.64Q796.18 29.85 799.28 28.16Q802.37 26.47 806.45 26.47L806.45 26.47Q811.76 26.47 814.43 29.04Q817.10 31.61 817.10 36.46L817.10 36.46Q817.10 37.41 816.89 39.16Q816.68 40.92 816.36 42.22L816.36 42.22L811.90 65.18L803.25 65.18L807.50 43.66Q808.31 39.66 808.31 38.04L808.31 38.04Q808.31 33.08 802.65 33.08L802.65 33.08Q800.09 33.08 797.78 34.47Q795.48 35.86 793.86 38.29Q792.25 40.71 791.65 43.88ZM854.30 53.65L854.30 53.65Q854.30 59.63 849.83 62.75Q845.37 65.88 836.86 65.88L836.86 65.88Q830.11 65.88 826.19 63.53Q822.27 61.17 820.83 56.21L820.83 56.21L828.42 54.70Q829.30 57.52 831.43 58.75Q833.55 59.98 837.53 59.98L837.53 59.98Q846.14 59.98 846.14 54.56L846.14 54.56Q846.14 52.66 844.56 51.47L844.56 51.47Q842.98 50.38 837.74 49.08L837.74 49.08Q833.41 47.92 830.88 46.55L830.88 46.55Q828.07 45 826.77 42.86Q825.47 40.71 825.47 37.83L825.47 37.83Q825.47 32.38 829.78 29.46Q834.08 26.54 841.99 26.54L841.99 26.54Q848.92 26.54 852.45 28.93Q855.98 31.32 856.79 36.28L856.79 36.28L848.99 37.27Q848.36 34.70 846.49 33.57Q844.63 32.45 841.43 32.45L841.43 32.45Q837.56 32.45 835.58 33.61Q833.59 34.77 833.59 37.02L833.59 37.02Q833.59 38.29 834.31 39.13Q835.03 39.97 836.37 40.64L836.37 40.64Q837.67 41.27 842.66 42.57L842.66 42.57Q847.37 43.77 849.90 45.42L849.90 45.42Q852.15 46.90 853.22 48.92Q854.30 50.94 854.30 53.65Z" transform="translate(0, 0)"></path></g></svg></svg>