<?xml version="1.0" encoding="UTF-8"?>
<svg id="Layer_1" data-name="Layer 1" xmlns="http://www.w3.org/2000/svg" version="1.1" viewBox="0 0 995.2 515">
  <defs>
    <style>
      .cls-1 {
        fill: #020202;
      }

      .cls-1, .cls-2, .cls-3, .cls-4 {
        stroke-width: 0px;
      }

      .cls-2 {
        fill: #0de809;
      }

      .cls-3 {
        fill: #03c200;
      }

      .cls-4 {
        fill: #196917;
      }
    </style>
  </defs>
  <path class="cls-4" d="M507.9,70.5l-5-.3c3,.3,5.2.4,6.8.6-.6-.1-1.2-.2-1.8-.3Z"/>
  <path class="cls-4" d="M521.1,72.4h0c-.3,0-.4,0-.7-.1-4.9-.9-6.8-1.3-10.7-1.6,3.8.5,8.2,1.2,11.7,1.8,0,0-.2,0-.3,0Z"/>
  <path class="cls-4" d="M605.7,146.2l-.4-1.1c0-.1-.1-.3-.1-.4h0c.2.5.3,1,.5,1.5Z"/>
  <path class="cls-4" d="M574.7,99.6l-.4-.3c-.2-.2-.4-.4-.7-.6.4.3.7.6,1.1.9,0,0,0,0,0,0Z"/>
  <path class="cls-4" d="M569.1,97c.2-.6-2.3-2.9-3.9-4.1-3.1-2.5-7.2-5-8.6-5.4,0,0-.2,0-.3,0,.1.8,11.5,10.1,12.8,9.5Z"/>
  <path class="cls-4" d="M539.6,79.5c0-.4-1.8-1.4-3.8-2.2h0c1.8.1,3.3.4,4.4.9l-3.5-1.3c-1.1-.4-2.4-.6-4-.8,0,0,.1,0,.2,0-3.1-1.1-6.2-1.9-7.3-2h-.2c.6.7,13.6,6,14.2,5.3ZM535.5,77.2c0,0,0,0,.1,0h0s0,0-.1,0Z"/>
  <path class="cls-4" d="M445.4,86c.4,1.1,3.2-.5,4.5-2.8,2.8-1.1,5.7-2.3,8.5-3.4.3-.1.4-.4.4-.6,0,0-.7-1.9-.9-2.2l-.5.2q0,.6.3,2.1c-2.5.9-5,1.9-7.4,3h0c.1-.5.1-1-.6-.8h0c.9-1,1.8-1.8,3-2.3l-.5.3c-1.2.5-2.3,1.3-3.2,2.4h0c-1,.6-2.3,1.6-3,2.5,0-.1.1-.2.3-.3-7,3.1-14.8,6.9-20.6,11.4l-3.4,2.8c2.1-1.7,7.5-6.2,23.2-13.1-.1.3-.2.6,0,.9Z"/>
  <path class="cls-4" d="M598.2,181.1h0Z"/>
  <path class="cls-4" d="M440.6,252.1c0,0,0-.1-.1-.2-7.5,4.8-13,9.2-15.8,13-2.6,3.5-2.8,6-.7,7.7l2.9,2.3c-2.1-1.6-2.1-4.2.6-7.7,2.8-3.7,8.2-8,15.5-12.8-.4-.3-1.3-1.1-2.3-2.4Z"/>
  <path class="cls-4" d="M581.3,172.4c-2.3.6-3.3,3.7-3.2,7.1-4.5.8-9.5,1.8-14.8,3-6.2-6.8-15.8-16.1-17.1-16-5.8,1.5-11.8,3.3-18.1,5.2,0,.1,0,.2.1.3-1.5-3.2-4.6-5.7-8.2-4.7-6.2,2.4-4.8,12.4.8,15.6,4.8,2.8,9.3-1.6,8.5-7.5,6.1-1.9,11.9-3.5,17.5-5,3.2,2.8,7.5,6.5,10.4,9.7q5.8,6.3,6.4,6.3c5.4-1.3,10.4-2.3,15-3.3.4,2.1,1.3,4.1,2.4,5.2,2.6,2.5,5.5-1.3,5.3-7.2-.3-4.3-2.2-8.8-5-8.7Z"/>
  <path class="cls-4" d="M597.7,160.9c1.8,1,2.6-2.1,1.8-6.4,0,.1,0,.2,0,.3,6,.5,9.5,2.1,10.2,4.9l-.9-3.8v-.2c0,0-1.4-4.8-1.4-4.8l-.6-1.9c.7,2.1,1.3,4.1,1.8,6.3-1.1-2.3-4.5-3.7-9.9-4.1,0,.1,0,.2.1.3-1.1-3.4-3-6.6-4.6-6.8,0,0-.2,0-.3,0-2.9.8.3,14.3,3.8,16.2Z"/>
  <path class="cls-4" d="M607.1,218.7c0,.3-.1.7-.3,1.1l1.1-3.6c.1-.4.2-.8.2-1.2h0c-.2.3-.9,3-1,3.5v.3Z"/>
  <path class="cls-4" d="M612.4,183.4h0v-.3c0-3.8-5.2-5.7-14.3-5.7,0,.3,0,.4,0,.6-.3-3.8-1.6-7.7-3.7-7.8-.8.1-1.3.8-1.8,1.6-7.5-13-11.7-18.8-25.2-32.2-.3-.3-.4-.3-.7-.4-2.6.4-5.2.9-7.9,1.4-2-5.2-4.3-10.1-6.7-14.8,14.9-3.1,26.7-4.3,34.4-3.6,0,0,.1,0,.1-.1v-.3c-3.4-13-9-18.8-14-23.9h0c.3.2.6.4.8.6-3-2.5-7.9-6.5-11.1-8.7,2.4,1.8,5.5,4.1,8.2,6.3,7.5,7.6,10.4,11.6,13.9,22.9-7.7-.6-19.3.6-34,3.6-1.6-3.1-3.4-6-5.3-8.9,0-.1-.1-.2-.3-.3h0c1.8-1.1,1.5-3.4.3-5.6,0,0,0,0,0,.1,4.5-.9,8.7-1.6,12.6-2,.3,0,.3-.1.3-.4-1.3-6.5-1.8-7.6-4.3-13.1,3.1-.2,5.8-.1,8.1.1-1-.8-1.8-1.4-2.7-2.1-2.3-.3-5.1-.3-8.2,0,0,0,0,0-.1,0,0,0,0,.2,0,.3,2.7,5.2,3,6.5,4.5,12.7-3.7.5-7.7,1.1-12.1,1.9,0,0,.1.2.2.3-2.1-2.3-5.3-4.2-8-3.8-.3.1-.8.3-1.1.5-2.8,2.4,2.3,10.6,8.4,11.5,0-.2-.1-.4-.1-.6s.2-.5.4-.6c-.3.1-.8.4-.1,1.6,1.8,2.8,3.5,5.8,5.1,8.9-2.6.6-5.3,1.2-8.1,1.8,0,.1.1.2.2.3-1.8-2.8-5-5-8.2-4.4-.3,0-.5.2-.8.3-.7.4-1.3.9-1.6,1.5-9.5-5.5-11-6.3-20.6-11.1-.5-.2-.6-.2-1.1-.1-2.1.6-4.2,1.3-6.3,1.9-3.5,1.1-7,2.2-10.4,3.3.1.2.3.3.4.5-1.8-2.6-5-3.9-7.7-3,.4-.1.8-.2,1.3-.3-1.2-2.6-2.3-5-3.5-7.3,4.5-1.5,9-3,13.5-4.4,9.9-3.1,19.1-5.6,27.4-7.5.1,0,.3-.2.3-.3-.4-6.5-.4-6.7-1.5-10,15.1-3,25.8-3.3,30.1-1l-3.3-1.7c-4.4-2.1-14.8-1.8-29.4,1.1,0,0-.2.2-.3.3,1.4,5.2,1.4,5.5,1.6,9.5-8,1.9-16.8,4.3-26.4,7.2-4.4,1.4-8.9,2.8-13.2,4.3-2.3-4.8-4.6-9-6.7-12.6,0,0,0,0-.1,0,1.6-.9,2.4-2.8,1.4-4.5-.8-1.4-3.3-3.1-6.2-2.3-.2,0-.5.2-.7.3-2.9,1.7-1.8,6,1.9,6.9.7.2,1.4.3,2,.1,1.9,3.7,4.1,8,6.3,12.8-4.5,1.6-8.9,3.1-13.2,4.8-9.9-5.3-12.1-6.7-17.5-10.3.3-.7.4-1.4.4-2.3,0-2.1-1.3-3.8-3.4-3,.3-.1.4-.2.7-.2.2-2.3.5-4.3.9-6,5.3-2.2,13.4-5.6,25.4-9.4-.2-.1-.6-.3-.9-.6,1.1.9,3.4,1.8,5.4,1.4h-.1c2.7,2.2,5.6,5.2,8.5,8.9h0c-.1,0-.2.1-.3.2-3,2.3,0,7.3,4.8,8,4.2.6,6.7-2.4,4.5-5.6-.7-1-1.8-1.8-3-2.4,0,0,0,0,0,0,.8-5.2.9-5.9.6-9,8-2.1,15.1-3.7,21.1-4.6l4.3,1c2.7,1.8,10.2,4.6,12,4.1,1.1-.3-.3-1.7-3.1-3-3.1-1.5-7.5-2.6-9.4-2.5-.2,0-.4,0-.4.2,0,.1,0,.3,0,.4l-5-1.1c-.3,0-.4,0-.6,0-6,.9-13,2.4-20.9,4.6q-.3.1-.1,3.5c0,1.8-.4,4.1-.8,5.8.1,0,.3,0,.3,0-.8-.2-1.6-.2-2.4-.1.1,0,.2,0,.3,0-3.1-3.6-6.1-6.5-9-8.7h0c1.1-.6,1.1-1.6,0-2.3,0,0,0,0,0,0,10.9-3,17.5-4.7,26.8-5.8,6.3.8,13.4,1.7,22.6,4.2-.5-.2-1.1-.4-1.5-.7,0,0-9.6-2.8-23.2-3.9h-.5c-6.5.6-15.2,2.4-25.5,5.5,0,0,.1,0,.1,0-1.4-.5-3.1-.7-4.5-.4h0c-3-1.3-5.7-1.6-8.2-.8h-.5c0,.1-.2.2-.2.2,2.3-.7,4.9-.4,7.7.9h0c-.2.1-.4.3-.5.4-.3.4,0,1,.4,1.5q0,0-.1-.1c-8.4,2.6-16.5,5.7-24,8.9.1-.3.2-.6.3-.9h0c-.4.3-.7.4-1,.5-.1.3-.3.6-.4,1-14.2,6.1-25.8,12.6-30.6,17.5l-2.7,2.9c5.8-5.7,16.9-12.1,32.9-19-.5,1.8-.9,3.9-1.1,6.2,0,0,.1,0,.1,0-2.8,1.7-4.3,6.3-2.5,8.1s3.5.5,5-1.3h0c5.7,3.9,7.7,5.2,18.1,10.9.4.2.5.2.9,0,4.6-1.8,9.2-3.5,13.9-5.1,1.1,2.3,2.2,4.8,3.3,7.3h0c-2,1.3-2.7,3.6-2.3,6-15.1,5.2-29.6,11-42.6,17-1.2-7.3-1.9-14.1-2-20.3-.1.1-.3.2-.4.3,1.8-1.2,3.4-3.8,3.5-6.7.1-2.1-.8-5.1-3.6-4-2.2,1.1-3.8,4-4.2,6.6,0-.2,0-.4.1-.6-14.3,6.6-25.9,13.4-32.9,19.1,1.4-3.5,2.9-6.8,4.6-10.1,7.5-6.2,21.4-13.8,37.9-21,0-.3,0-.9.1-1.9-16.1,7-29.6,14.4-36.8,20.5h0c0,0,0,0,0,0-.3.3-.4.5-.5.7.3-.4.4-.6.5-.7h0c-1.8,1.4-3.1,2.8-4.1,4.1-.3.3-.4.6-.6.9l-1.9,3.3c.2-.4.5-.8.8-1.2.9-1.3,2.3-2.6,4-4-1.8,3.3-3.3,6.6-4.8,10.1-1.9,1.6-3.3,3.1-4.4,4.5-.6.8-1.1,1.6-1.4,2.3l-1.4,3.5c.4-.8,1.1-1.8,1.4-2.5,1.1-1.4,2.6-3,4.5-4.6-3.3,9.1-5.3,18.9-5.8,29.1-2.3,1.9-4.1,3.8-5.4,5.5-.7.9-1.2,1.8-1.6,2.6l-.2,3.3c0-.3,0-.6,0-.9q.4-6.7.3-6.9h0c.2-1.4.4-2.8.6-4.2.6-2.6,1.2-5.3,1.8-7.9.9-3.6,1.6-6.2,1.9-7l-.8,2.4c-1.1,3.8-2.3,9-3.1,13h0c-.3,1.5-.5,3-.7,4.4h0c0,.4-.2,1.1-.2,1.4-.4,3.3-.6,7.6-.8,10.8,0,2.1,0,3.3.1,3.5h0c.1,12.3,2.3,24.8,6.8,37.1,2.5,6.8,5.7,13.4,9.4,19.4-.3,1.2,0,2.2.4,3.1l2.1,3.3c-.7-1.8-1.4-3.5,1.8-7.6,1.1-1.4,2.4-2.9,4.1-4.5,1.4,1.8,3,3.2,4.4,3.4.3,0,.4,0,.6,0q0,0-.1,0c.8,1.3,1.7,2.4,2.6,3.6-1.1,3.1,5.3,11.7,9.7,12.4,3,.4,1.8-3.6-1.3-7.7-2.5-3.3-6-6.1-7.7-5.5,0,0,.2,0,.3,0-.9-1.2-1.8-2.4-2.6-3.7,0,.2-.2.3-.3.4.8-1,.4-3.7-1-6.8,3.3-2.5,7.2-5.2,11.6-7.9,4.5,7.8,9.5,15.1,15.1,21.9-2,3,4.3,11,9.7,11.6,3.8.4,3.2-3.6.1-7.5-2.4-3-6.2-5.6-8.6-5,0,0,.1,0,.2,0-5.3-6.8-10.4-14.1-14.8-21.9,10.1-6.1,22.6-12.6,36.7-18.9,1,1.4,2.3,2.6,3.9,3.1.9.4,1.8.5,2.5.4,1.5,3.3,3.1,6.5,4.7,9.6-4.6,2.1-9.1,4.1-13.4,6.2-.7.5-1.8,12,1,28.8h0c-1-.3-1.9-.3-2.8.1,0,0-.2.1-.3.2-3.1,2.5,3.6,10.4,9.3,11,.4,0,.8,0,1.1,0h0c3.2,2.8,6.4,5.5,9.7,8-9.4,5.4-16,9.7-19.9,14.5-2.1,2.8-2.1,4.8-.1,6.1-6.1-2.2-12-4.9-17.6-8.1-2.3-1.5-2.4-3.9.1-7.2,3.3-4.5,10.9-9.9,21.1-15.8-.4-.3-1.4-1.1-2.4-2.2,0,0,0-.1-.1-.2-10.5,6-18.2,11.7-21.7,16.2-2.6,3.5-2.5,5.9-.1,7.4l-2.1-1.4c.7.4,1.4.9,2.1,1.4,0,0,0,0,.1,0l3.2,1.9,2.6,1.4c4.8,2.6,9.9,4.8,15.1,6.7.3.2.6.3,1.1.4l3.6,1.2c-3.3-1.1-4.1-3.3-1.5-6.6,3-3.9,9.8-8.8,19.2-14,.7.4,1.3.9,2,1.4h0c-.8,1.2,1.4,3.3,4.3,4.8-.6-.3-1.1-.6-1.6-1-7.5,4.3-13.1,8.4-15.5,11.6-2.5,3.3-1.5,5.4,2.3,6.2l3.8.8c-4-.8-5-2.7-2.6-6,2.3-3.1,7.6-7,14.8-11.1,2.3,1.1,4.7,1.8,6.3,1.5h0c8.6,4.5,17.3,7.4,25.9,8.6,1.1.1,1.3.1,1.5,0-.1-.1-.2-.1-1.1-.3-8.4-1.3-16.9-4.4-25.3-8.9h0q0,0,0,.1c.5-.7-.7-2.2-2.6-3.6,2.8-1.5,5.9-3,9.1-4.5,7.9,6.9,15.7,12.1,23.1,14.8.7.3.9.3,1.1.3q0-.3-.6-.5c-7.4-3.1-15.4-8.6-23.3-16.1-.7-.6-1.2-.8-1.7-.6-3.6,1.7-7,3.4-10.2,5.1h0c-2.6-1.4-5-2.2-6.5-1.9q0,0,.1,0c-.6-.4-1.3-.9-1.9-1.4,7.9-4.3,17.3-8.8,27.7-13.1.9,1.1,2.2,2.1,3.6,2.6.6.3,1.2.3,1.7.3h0c5.8,10.1,11.3,18,16,22.9.4.4.5.4.7.4s0,0,.1,0c0-.1,0-.3-.3-.6-4.3-5.1-9.4-13.1-15.1-23.3h0q0,.1-.1.1c1.3-.9,1.5-3.1.8-5.5,0,0,0,.1,0,.2,8.2-3.2,16.9-6.2,25.5-8.9,5.7-1.8,11.1-3.3,16.1-4.6q.4-.3.6-.6c0,0,6.3-11.1,12-21.5,2.1,2.8,5.2-1,6.2-5.9v.2c4.8-.8,9-1.4,12.8-1.7-.3,2.4-.2,4.5.4,5.5.1.1.2.3.3.3h0c-.3.9-.4,1.8-.7,2.6,0,0,0,0,0,0-1.4.8-3.1,4.1-4.2,7.3.1-.4.3-.8.4-1.3,0,0,0-.1,0-.2-2.3.2-4.7.4-7.4.9q-.3.2-4.8,7.2c0,0-5.2,8.2-12.6,18.8,0,0,0,.1,0,.2-.2-.6-.6-.9-1.1-.9-1.6.5-3.1,2.9-4.1,5.4-4.2,1-8.7,2.3-13.6,3.8-4.3,1.4-8.7,2.8-13,4.4-.2.1-.5.3-.3,1.2,2.1,6,3.8,11.1,5.1,14.8.2.5.3.5.5.6.1-.2.2-.3,0-.8-.9-3.6-2.3-8.4-4-13.9,3.8-1.4,7.7-2.7,11.6-3.9,4.6-1.4,8.9-2.6,12.8-3.6-.4,1.5-.5,2.8-.3,3.5,0,.3.2.4.4.4h0c-2.3,5.2-5,9.7-8.1,13.8-.5.7-.5.8-.6.9,0,0,.3,0,1.1-1,3.3-4.1,6.1-8.7,8.5-13.9h0c1.2-.8,2.9-3.1,4-5.5.7-1.4,1.1-2.8,1.2-3.8h0c8-11.1,10-14.1,16.7-24.6,2.5-.4,4.8-.6,6.9-.8-.6,2.3-.9,4.3-.5,5.2,0,.2.2.3.3.4,0,0,0,0-.1,0-6.9,16.6-17.2,31.2-30.5,42.2-.7.6-.8.7-1.1.9.3-.1.4-.1,1.4-1,13.5-11,24.1-25.6,31.1-42.2,0,0-.1,0-.2.1,1.1-.5,2.8-2.9,4.1-5.9,0,0,0,.1-.1.3,4,0,6.9.4,8.6,1.4-1.2,2.7-2.1,5-1.9,5.6h0c-9,16.3-22,30.7-38.3,41.3-.9.6-1,.7-1.4.9q.5-.3,1.5-.9c16.3-10.6,29.4-24.9,38.5-41.3h0c.5-.3,1.8-2.1,3.2-4.7,0,0,0,.2-.1.3.3.5.5,1,.4,1.6h0c0-.1,0-.3.1-.4,0,.2-.1.3-.1.4v.3c0,.6-.3,1.3-.6,1.9l1.6-3.3c.4-.8.6-1.4.6-2h0c0-.6-.1-1.1-.4-1.6,0,.2-.2.4-.3.6,1.8-3.8,2.7-7,2.3-7.5,0,0,0,.2,0,.3.3-.7.5-1.4.8-2.1h0c.5-.3,1.6-2.6,2.6-5.7,0,.1,0,.3-.1.4.4.6.6,1.2.5,1.9h0c.1-.8.9-3.1,1-3.4,0-.7-.2-1.3-.5-1.9,0,0,0,.1,0,.2.9-3.5,1.3-6.5.9-7.1h0c-.4,0-1.4,2.4-2.4,5.5-2.1-1.1-5.5-1.7-10.2-1.7v.2c.4-3.3,0-5.9-1.2-6.3,0,0,.1,0,.2,0,.2-.9.3-1.8.4-2.6,9.7-.4,15.1,1.4,15.1,5.2h0c0-.3.1-.7.2-1.1-.1.6-.2,1-.2,1.2v.3c0,.2,0,.3,0,.5l.6-3.1v-.6c.2-.3.2-.4.2-.7h0c0-3.9-5.5-5.7-15.3-5.3.3-3.6.5-7.3.5-11-.4.3-.7.3-1.1.2,1.5.4,2.8-2.1,3.1-5.9v.2c9.2,0,14.3,1.8,14.3,5.7v-.6.6-2.3h0v-.2c.2-.8.2-1.1.2-1.4ZM543.6,112.9c.2,0,.4,0,.6.1-.2,0-.4-.1-.6-.1ZM404.5,120.1c0,.1-.1.3-.4.7.1-.2.3-.4.4-.7ZM403.7,121c0,.1-.2.3-.3.5.1-.2.2-.4.3-.5ZM384.7,164.6c0,.2,0,.3,0,.4,0-.2,0-.3,0-.4ZM494.9,281.5c0,0-.1,0-.3.1.1,0,.2,0,.3-.1ZM483.6,274.2c-.2,0-.4.1-.6.2.1,0,.3-.1.6-.2ZM585.2,236.9c.1,0,.3,0,.4,0-.2.1-.3.1-.4,0ZM446.1,135.3h0s0,0,0,0h0ZM445.8,135.2c-.3,0-.6,0-.8.1.3-.2.6-.2.8-.1ZM444.9,135.4c-.2.3-.4.4-.5.8,0-.3.3-.6.5-.8ZM401.5,237h0c-1.1,1.4-1.8,2.7-2.1,3.8-3.7-6.1-6.8-12.6-9.4-19.5-4.5-12.2-6.7-24.7-6.9-37.1h0c.1-1,.3-3.3.6-7.6.4-.8.9-1.6,1.6-2.6,1.3-1.8,3.1-3.6,5.5-5.6-.3,13.9,2.1,28.4,7.4,42.8,1.8,4.7,3.7,9.2,6,13.6-.8,1.6,0,4.6,1.6,7.5-1.8,1.6-3.1,3.1-4.2,4.5ZM410.4,228.6c0,0,.1.2.1.3-1.9-3-4.5-5.3-5.8-4.5h0c-1.8-4.6-3.8-9.1-5.5-13.8-5.3-14.4-7.7-29-7.5-42.8,3.4-2.8,7.7-5.8,12.8-8.9.4,13.3,3.2,27.6,8.5,42,2.5,6.8,5.5,13.5,8.9,19.8-4.4,2.8-8.3,5.4-11.6,7.9ZM404.5,157.1v-.2.9-.8ZM405.7,155.1c.2.1.3.5.4,1.1,0-.3-.3-.8-.4-1.1ZM423.7,219.6c-3.4-6.3-6.4-12.9-8.9-19.8-5.3-14.4-8.2-28.6-8.7-42,1.9-1.1,3.8-2.3,5.9-3.5,0-.4-.3-1.5,0-3v-.3c-2.3,1.3-4.6,2.6-6.7,3.9.2,0,.3,0,.4,0-.2,0-.4,0-.6.1-.3.5-.4.8-.6,1.5.1-.9.4-1.3.6-1.5,0,0,.1,0,.1-.1-5.3,3.3-9.8,6.3-13.3,9.2.5-10.1,2.4-19.8,5.7-29,7.2-5.9,19.2-12.9,33.9-19.8,0,.9.4,1.7.9,2.3.6.6,1.3.8,1.9.6,0,6.2.6,13.1,1.8,20.4-5.8,2.7-11.4,5.4-16.5,8.1.1.4.2.8.3,1.4-.4-3.2-2.1-5.6-4.4-4.5.3-.1.6-.3.9-.3v-3.7c1.5-1.4,2.9-4.3,3.2-7.6.3-2.7-.3-6.3-3-5.1-3.5,2.2-5.7,10.3-3.5,12.9.4.6,1,.8,1.6.7,0,1.3,0,2.4,0,3.7h0c-3.3,2.9-4,11.2-.9,13.6.6.5,1.3.6,2,.5,1.1,11.3,4.1,23.3,8.6,35.6,2.5,6.8,5.5,13.6,8.7,19.9-3.3,2.1-6.5,3.9-9.5,5.7ZM435.1,213.2c-3.3-6.4-6.2-13.1-8.7-20-4.5-12.2-7.5-24.2-8.9-35.5h0c1.5-1.4,2.6-4.3,2.6-7.6,5.2-2.7,10.7-5.5,16.6-8.2,2.1,12.4,5.9,26.1,11.2,40.6,2.5,6.8,5.3,13.6,8.3,20.2-7.6,3.5-14.7,7-21.1,10.5ZM461.6,202.9c-.4-.8-.8-1.5-1-2.3-.7.3-1.4.6-2.1.9-3-6.5-5.7-13.3-8.3-20.2-5.3-14.4-9.1-28.1-11.4-40.5,1.9-.9,3.8-1.8,5.8-2.6,2.6,12.2,6.5,25.9,11.9,40.3,1.8,4.7,3.6,9.4,5.5,13.9.3-.2.4-.3.6-.5-3.1,1.9-3.2,7-1,10.9ZM463.1,191.8c.4-.2.8-.3,1.3-.3-1.9-4.6-3.7-9.2-5.5-13.9-5.3-14.4-9.4-28-12.1-40.2,11-4.8,22.8-9.5,35-13.8.9,1.5,2.3,2.8,4.1,3.4,4.8,1.7,8.7-2.5,7.2-7.3,3.5-1.1,6.9-2.3,10.4-3.3,2-.6,4-1.2,5.9-1.8,9,4.6,11.5,5.9,20.1,11,0-.2,0-.4,0-.8-.4,3.7,2.5,8.9,6.8,10.4,4.4,1.6,7.1-2.1,5.6-6.8,2.8-.7,5.5-1.3,8.2-1.9,2.4,4.7,4.6,9.6,6.6,14.8-11.1,2.4-23.8,5.7-37.7,10.1-5.3,1.6-10.7,3.4-16,5.2.1.2.2.4.3.5-1.6-3.2-4.9-5.7-8.6-4.6-5.5,2.3-4.8,10.2-.6,14.1-3,9.9-4,13.5-6.6,22.7-5.5,2.1-10.9,4.4-16.2,6.6.1.2.3.4.3.6-2-3.9-5.7-6-8.5-4.8ZM590.6,210.2c-3.8.3-8.2.9-13.1,1.8v.4c0-3.3-1.2-6.1-3.5-5.8-3.7,1.1-5,8.5-3.9,12.7,0-.1,0-.2,0-.3-4.2,7.9-5.9,11.2-11.6,21.4-5.1,1.3-10.6,2.8-16.5,4.6-9,2.8-18,6-26.5,9.3,0,0,0,0,0,0-1.4-2.2-3.5-3.5-5.4-3.3h.1c-3-5.8-6-12-9.1-18.6h-.1c-.2.2-.4.3-.6.4.8-.4,1.4-1.1,1.8-1.9,8.1,5.1,9.8,6.1,15.9,10.3.4.3.5.2.9.2,7.1-2.6,14.4-5.1,21.7-7.3,3.5-1.1,6.8-2.1,10.1-3,.3-.2.4-.3.7-.6l2.4-5c3,2.3,6.3-2.1,6.5-7.3.1-3.5-1.3-8-5-7.3-4.6,1.6-5,9.7-2.7,13.4-.1-.2-.3-.4-.4-.7-.6,1.4-1.5,3.1-2.1,4.5-3.2.9-6.5,1.9-9.9,3-7.3,2.3-14.7,4.8-21.9,7.4-8-5.5-8.5-5.8-15.5-10.2,0-1.1-.2-2.3-.6-3.5-1.1-2.9-4.3-7-8.6-5.7-5.3,2.6-2.6,11.6,3,13.9.9.4,1.7.5,2.4.4h0c3.2,6.5,6.3,12.8,9.5,18.5-1.3,1.1-1.4,3.4-.5,5.5-10.7,4.5-20.7,9.1-28.8,13.6-3.3-2.5-6.4-5.2-9.5-8,.8-1.3-.1-3.8-2.2-6.2-1.1-1.3-2.4-2.4-3.8-3.3,0,0,0,0,0,0-1.5-9.5-2.1-13.1-1.5-27.1,4.1-1.9,8.4-3.9,12.8-5.9,3.4,6.5,7,12.8,10.6,18.7-3,2.8.4,10.1,5.8,11.8,4.5,1.4,6-2.9,3.8-7.3-1.9-3.8-5.8-6.2-8.6-5.2.3-.1.6-.2,1-.3-3.5-6-7-12.2-10.4-18.8,13.9-6,29.1-11.9,44.6-17.1,8.5,6.3,9.4,7,14.3,11.1.2,0,.4.2.6.3.4,0,.5,0,.6-.1,24-7.5,43.8-11.6,56.7-12.2-.1.9-.2,1.8-.3,2.7h0c-1.1.8-2.3,3.3-3,6.2ZM595.1,213.3c0,0,0,.1,0,.3,4.6,0,8,.5,10,1.6-.8,2.8-1.3,5.4-1.2,6.3-.3.7-.5,1.4-.8,2.1,0,0,.1,0,.2,0-.4,0-1.9,2.6-3.5,5.8-1.8-1-4.8-1.5-8.9-1.4,0,0,0,.2,0,.3,1-3.4.9-6.1-.3-6.2.2,0,.3,0,.4.2.3-.9.5-1.8.7-2.6,0,0-.1,0-.2.1,1.2-.6,2.6-3.1,3.6-6.3ZM594.8,186.7c0,3.7-.1,7.3-.4,11-13.1.7-33.2,4.8-57.5,12.4-8.4-6.7-8.5-6.8-14.4-11.2-.2,0-.4-.2-.7-.3-16.3,5.4-31.8,11.4-46.1,17.6-1.6-3.1-3.1-6.3-4.6-9.6,1.6-1.4,2.3-4,1.6-7.1,5.5-2.3,11.1-4.6,16.8-6.8.3-.2.5-.3.7-.9,2.3-7.7,4.5-15.6,6.8-23.3h0c4.8,1.8,8.5-2.6,7.5-8.3,5.3-1.8,10.7-3.6,16-5.2,13.9-4.3,26.6-7.7,37.8-10.1,1.4,3.6,2.6,7.3,3.7,11.1,0,0,.1,0,.1,0-3.8,2.2-2.8,11.8,1.9,15.3,3.8,2.8,7.2-1.4,6.1-7.5-.9-4.8-4.1-8.6-7.1-8.1.3,0,.6,0,1.1,0-1.1-3.7-2.3-7.4-3.6-11.1,2.5-.5,4.9-1,7.2-1.4,12,12.3,16.7,18,24.4,31.7-.5,4.1.4,9.7,2.3,11.6s.4.4.7.4c-.1,0-.2-.1-.2-.1ZM598.2,180.8c0-.3,0-.6,0-.9,0,.4,0,.6,0,.9ZM598.2,179.8v-.9.9Z"/>
  <path class="cls-4" d="M559.1,281.6l1.1-.7c-.4.3-.9.6-1.3.8,0,0,.2,0,.3-.1Z"/>
  <path class="cls-2" d="M511.5,88.2c3.3,1.5,6,2.1,7.2,1.8h-.1c.6.3,1.2.6,1.8,1,0,0,0,0,0,0-.4.9,1.1,2.7,3.2,4.3,0,0-.1-.1-.2-.1-4.8,2.9-10.5,6-16.8,9,.9.7,1.6,1.4,2.2,2.2,6.5-3.2,12.4-6.3,17.4-9.4,0,0-.1,0-.1,0,4.6,2.8,8.2,2.9,8,.9-.4-3.4-9.6-8-12.8-7.3h0c-.6-.3-1.2-.6-1.8-1h0c0-.1,0-.3,0-.6-1.1-2.7-10.2-6-13.1-5.4-15.8-5.9-32.2-7.7-47.7-4.5h0c15.3-3,31.3-1,46.9,5,0,0,0,0,0-.1-.4.9,2.4,2.6,4.5,3.7-.6-.3-1-.6-1.4-.8-3.8,2.3-8.4,4.8-13.5,7.3,0,0,.1,0,.1.1,1.1.8,1.8,1.4,2.1,1.7,5.3-2.6,10.1-5.2,14.1-7.6-.1,0-.1-.1-.2-.1Z"/>
  <path class="cls-2" d="M445.4,93.5c-.4.6-.4.8-.4.9h0c2.6-.6,5.5-1.4,8.7-2.3,2.5-.8,5-1.6,7.5-2.5h0c1,2.5,3,3,3.6,1.6,0-.1.1-.3.1-.4h0c6.5,5.3,16.9,10.6,18.1,11.1.4.2.5.1.7.1,2.8-1.2,5.5-2.4,8.2-3.6h0c2.1,1.7,4.3,2.4,5.7,2.3l1.6,1.6c.3-.4.8-.6,1.4-.7-.6-.5-1.1-1.1-1.6-1.6.2-.3.3-.6.3-1.1-.1-3.3-6.7-7.3-9.7-6.9h0c-10.9-8.4-21.5-13.2-31-13.2h0c9.1.3,19.4,5.2,30,13.7,0,0,.1-.1.1-.1-.8.8,0,2.6,1.4,4.2,0,0,0-.1-.1-.1-2.4,1.1-4.9,2.2-7.5,3.3-10.4-5.5-12.1-6.6-17.6-10.5,0,.3,0,.6,0,.8,0-2.1-2.1-5.3-3.5-5.3-1.3-2.7-2.2-4.7-3-6h0c.6,1.4,1.4,3.5,2.4,6.2,0,0,.1-.1.3-.2-.6.3-.8,1.8-.4,3.2,0,0,0-.1,0-.2-2.2.8-4.5,1.6-6.7,2.3-2.6.8-5.2,1.5-7.4,2.1,3.4-5.5,7.3-10,11.9-13.4h0c0,0,0,0,0,0-5.2,3.7-9.5,8.6-13.3,14.6Z"/>
  <path class="cls-2" d="M428.7,102.3c-1.4,0-2.6,0-3.6-.1-.3.4-1.5,1.6-2.4,2.6,1.1.1,2.5.2,4.1,0,.2,0,.6-.5,1.4-1.3,8.4-10.2,18.6-18.7,30.4-24.6h0q0,0,0,0c-11.5,5.8-21.5,13.8-29.9,23.4Z"/>
  <path class="cls-2" d="M384.6,164.8c.3-1.2.5-2.4.8-3.8-.4,1.9-.6,2.5-.8,3.8Z"/>
  <path class="cls-2" d="M388.5,149.3c0,0,0,0,0,.1l-.8,2.4c-.7,2.7-1.6,6.1-2.3,9.2.5-1.9,1.3-5.2,3.1-11.7,0,0,0-.1,0-.1Z"/>
  <path class="cls-2" d="M458.5,181.1c1.2-1.9,1.4-4.4,1-6.8,0,.4.1.8.1,1,.9,0,1.8-.3,2.8-.6,5.1-1.6,10.2-3.3,15.2-5,.3-.2,1.2-.6,7.4-22.4,5.7-2.1,11.2-4.3,16.6-6.5,0,0,0-.1-.1-.2,3,4.5,8.4,5.4,9.9,1.3,1.8-4.9-4-13-9.4-11.2-3.3,1.6-2.5,6.2-1.2,8.8-.3-.5-.5-1-.7-1.7-5.4,2.2-11,4.4-16.7,6.5q-.5.3-3,8.6c-1.2,4.1-3.1,9.5-4.4,13.5-4.8,1.6-9.6,3.2-14.4,4.7-.9.3-1.8.6-2.7.8-1.2-3-3.6-5.2-6.8-4.5-4.1,1.5-4.6,6.9-3.6,10.3,1.6,5.9,7.3,7.8,10.1,3.3Z"/>
  <path class="cls-2" d="M568.6,124.2c0,0-.2.1-.3.1-1.8,1.6-.1,5.5,1.6,8.2-.2-.3-.4-.7-.6-1.1-6.8,4.5-15.4,9.4-25.1,14.3,0,0,.1.1.1.2,1,1.4,1.5,2.6,1.7,3,9.9-5,18.5-9.9,25.4-14.4-.1-.1-.3-.3-.3-.4,1.3,1.5,3.8,4.2,6.1,4.1,5,7.9,9.2,16.5,12.5,25.5.6,1.4,1.1,2.9,1.5,4.3,0-.1.2-.3.3-.3-1.6,1.9-1.4,6.8-.2,10.7,1.6,5,4.3,6.8,5.7,3.8,2.3-4.8-1-15.6-4.4-15.2-.5-1.4-1-2.9-1.5-4.3-3.3-9-7.5-17.5-12.5-25.5.8-1.9.1-4.5-1.3-6.8.3-.2.6-.4.8-.6,0,0-.1,0-.3,0s-.2,0-.3-.1c.2,0,.4.1.6,0,.3-.2.5-.4.7-.6,3.4-2.7,6-5.2,7.8-7.5,1.7-2.2,2.4-4.1,2.3-5.7,2.6,3.2,3.3,4,3.5,4.1h0c7.3,11.2,9.4,15.1,14.9,30.6l-2-5.9c-1-2.7-2.6-6.2-3.7-8.9-2.7-5.8-5.8-11.2-9.3-16.1-1.3-2.4-8.7-11.7-10.1-12.6h0c.3.6,1,1.6,4.5,5.9.1,1.5-.6,3.4-2.3,5.6-1.8,2.4-4.7,5.1-8.4,8-.3.3-.6.4-.9.7-2.2-2.3-4.8-3.9-6.4-3.2ZM573.2,131.8c-.3-.7-.1-1.1.1-1.2-.3.2-.4.6-.1,1.2ZM573.3,130.6h.2c.3,0,.4.2.7.3-.4-.2-.6-.3-.9-.3ZM591.8,167.4c-.1,0-.2.2-.3.3.1-.1.3-.3.3-.3ZM574.9,131.8c0-.1-.2-.3-.3-.3,0,.1.2.3.3.3Z"/>
  <path class="cls-2" d="M412.7,107.7l-.9,1.1c.8-.9,1.6-1.7,2.3-2.5.2-.3.4-.4.6-.7l-1.9,2.1Z"/>
  <path class="cls-2" d="M464.2,75h-.5c0,.1-.2.2-.2.2-1.8.6-3.5,1.8-4.9,3.7h0c1.7-2,3.6-3.3,5.6-3.9Z"/>
  <path class="cls-2" d="M461.8,76.6c-1.1.7-2.1,1.4-3.2,2.3,1.4-1,2.4-1.7,3.2-2.3Z"/>
  <path class="cls-2" d="M469.5,73.5c-1.1.3-2.3.6-3.4,1,.7-.3,1.5-.5,2.6-.8l.8-.2Z"/>
  <path class="cls-2" d="M458.6,78.9s0,0,0,0c0,0,0,0,0,0h0Z"/>
  <path class="cls-2" d="M466.2,74.5c-1.8.6-2.8,1.1-4.3,2.1,1.4-.9,2.8-1.6,4.3-2.1Z"/>
  <path class="cls-2" d="M502.9,70.1h-.3.4-.1Z"/>
  <path class="cls-2" d="M477.2,71.8c-.5.1-1.1.2-1.9.4.6-.1,1.3-.3,1.9-.4Z"/>
  <path class="cls-2" d="M499.6,70c1.2,0,2.2,0,3.1,0-1,0-2.1,0-3.1,0Z"/>
  <path class="cls-2" d="M503.1,70.1l3.6.3c-1.3-.1-2.4-.3-3.6-.3Z"/>
  <path class="cls-2" d="M517.9,71.8c-3.1-.4-5.8-.8-8-1.1,2.9.4,6.2.9,9.2,1.4-.3,0-.7-.2-1.1-.3Z"/>
  <path class="cls-2" d="M507.9,70.5h-1.3c1,0,2.1.1,3.1.3-.6-.1-1.3-.2-1.9-.3Z"/>
  <path class="cls-2" d="M458,77.1l-.5.2c.2,0,.3,0,1.1,1.7h0c-.5-1.4-.5-1.4-.6-1.9Z"/>
  <path class="cls-2" d="M452.7,79.1l-.5.3c1.8-.8,4-.9,6.3-.4h0c-2.3-.6-4.2-.5-5.9.2Z"/>
  <path class="cls-2" d="M514,77.6h0c.1.4,2.6,1.4,4.6,2.1-.8.8-1.8,1.6-2.9,2.5-1,.8-2.1,1.6-3.3,2.3,0,0,.2,0,.3,0,1.5.5,2.5,1,2.9,1.2,1.3-.8,2.3-1.6,3.4-2.4.1-.1.3-.2.4-.3,1-.8,1.9-1.5,2.6-2.3q0,0-.1,0c4,1.2,6.4,1.6,7.3,1.3h-.1c.7.3,1.4.5,2.1.8,0-.1,0-.2,0-.3-.4.8,3.1,2.8,5.1,3.9-.2,0-.3-.2-.5-.3-1,1-2.3,2-3.6,3.1-1.2.9-2.6,1.9-4,2.9,1.1.6,2,1.1,3,1.8,1.5-1,2.9-2,4.1-3,0,0,0,0-.1,0h-.2c.1,0,.3,0,.3,0,.2-.1.3-.3.5-.4,1.2-.9,2.3-1.9,3.3-2.8,0,0-.2,0-.3-.1,4.4,2,7.5,2.6,7.2,1.3-.3-1-2.3-2.4-4.6-3.6h0c1.8-2.3,2.1-4.1,1.2-5.5,0,0-1.4-.6-3.3-1.3.9,1.3.5,3-1.1,5.2,0,0,0,0,0,0-2.7-1.1-5.3-1.8-6.5-1.4-.7-.3-1.3-.5-2-.8-.5-1.1-4.8-2.8-8.7-3.7,1.6.4,2.7.7,3.1.8h0c1.4-1.9,1.7-3.4.9-4.5-.9-.2-2.8-.6-3.5-.8.7,1,.4,2.4-.9,4.1h0c-2.6-.6-5-.9-6-.6-18.2-4-37.2-3.7-55.6,1.8h0c18.3-5.2,37.2-5.3,55.3-1.1ZM532.1,89.4c0,.3.6.7,1,.9-.6-.3-1.1-.7-1-.9ZM514.1,77.2s0,0,0,0h0Z"/>
  <path class="cls-2" d="M486,70.7c1.3-.2,2.3-.3,3.2-.4,4.3-.2,7.5-.3,10.4-.3-3,0-6.7,0-10.1.3.9,0,1.6-.1,2.1-.2-2.2,0-4.5.3-6.7.6-.9,0-2,.2-3.1.4-2,.3-2.6.4-4.6.8,1.5-.3,3-.4,4.5-.7-2.4.4-4.1.8-4.2.9h0c-6.3,1.4-12.6,3.7-18.8,6.8h0c6.3-3.1,12.8-5.3,19.2-6.8,2.8-.3,5.5-1,8.2-1.4Z"/>
  <path class="cls-2" d="M612.4,183.2q0,0,0,0h0c0,.1,0-.1,0-.1h0c0,1.6-.8,3.3-2.3,5.3-2.7,3.6-7.6,7.7-14.3,12.2.1.9.1,1.6.1,2.2,0-4-1.4-7.5-3.4-7.1-.2,0-.4.2-.6.3-.8.6-1.4,1.6-1.9,2.8h0c-12.4-14.2-26.1-23.9-27.1-23.6-2.5,1.3-5.2,2.6-7.9,4-3-7.8-6.4-15.3-10.1-22.6,4.7-4-1.3-14.3-6.8-14.5-.9,0-1.3.1-1.8.4-3.5,2-2.1,7.2-.4,10.1.8,1.4,3.1,4.5,6.7,4.8,3.7,7.3,7.2,15,10.2,22.9-12.1,5.8-25.7,11.7-40,17.3-1.9-5.3-4-10.5-6-15.7,3.2-1.3,6.3-2.4,9.4-3.7.4-.3.5-.4.7-.9,4.2-17.8,5.4-25.4,6.7-40.2-.8-.3-1.3-.6-2-1.1,3.2,2.2,6.7,1.9,7.3-1.5.9-4.8-5.3-11.3-9.6-10.6h.1c-2-2.8-4-5.4-6.1-7.9,13.6-6.5,24.8-12.9,32-18.5.2-.1.4-.3.6-.4,2.7-2.1,4.8-4.1,6.2-6,2.2-2.9,2.4-5,.9-6.5,3.1,1.7,6.2,3.5,9.2,5.5,1.6,1.3,3.3,2.5,4.9,3.7,1.1,1.6.6,3.8-1.5,6.6-1.6,2.1-4.2,4.6-7.5,7.2-7.5,5.8-18.8,12.4-32.5,19,0,0,.1.1.2.2,1.1,1.1,1.7,2.1,2,2.5,13.9-6.8,25.4-13.5,33-19.3.2-.2.4-.3.6-.5,3.1-2.4,5.5-4.7,7-6.8,2.1-2.9,2.6-5.1,1.5-6.7,1.6,1.3,3,2.6,4.6,3.7l-.4-.3c-3.5-2.9-8.2-6.6-11.8-9.2-.3-.3-.4-.3-.6-.4-3-2-6-3.8-9.1-5.5-.3-.2-.5-.4-.8-.5l-3.3-1.7c.4.2.7.4,1,.6-.8-.4-1.5-.8-2.3-1.1-.9-.6-3.6-1.8-6.3-3-.3-.1-.4-.3-.8-.3l-3.5-1.3c.4.1.7.3,1,.4-2.4-.9-4.5-1.5-5.1-1.4h0c-.8-.3-1.6-.5-2.4-.7-.8-.4-3.5-1.2-6.5-1.8-.6-.3-1.3-.6-2.3-.8-.8-.1-1.6-.3-2.4-.4.4.1.9.3,1.3.5-2.5-.4-4.7-.8-5.5-.6h0c-18.3-2.4-37.5-.3-56,7h0c18.7-7.2,37.9-9.2,56.3-6.8h0c.5.1,2.2.5,8.4,1.8,6.8,1.4,6.8,1.4,7.1,1.4h0c.9.3,1.8.5,2.6.8-.2,0-.3-.1-.3-.2.3.1.4.2,8.4,3.3,5.9,2.3,6.4,2.5,6.5,2.4h0c.8.4,1.6.8,2.4,1.2,1.5,1.4,1.3,3.5-.8,6.3-1.4,1.9-3.6,4-6.6,6.2-7,5.4-18,11.7-31.2,18-.5-.6-1.1-1.3-1.6-1.8h0c.3-.3.5-.8.6-1.3.4-4.3-7.4-9.7-10.6-8.4-1.7.8-1.1,3.3.4,5.5,0,0,0-.1-.1-.2-4.6,2.1-9.5,4.2-14.6,6.3-1.6-2.1-4-3.5-6-2.9-1,.5-1.6,1.4-1.8,2.6,0-.3.1-.5.2-.8-7.1-4.6-10.4-7.4-10.4-7.4q-4.1-3.6-4.5-3.6c-3.5,1.2-6.9,2.4-10.4,3.5-7.1,2.2-13.5,3.9-19.1,5.2.8-2.2,1.2-4,.7-4.4h0c6.2-11.4,14.4-20.6,24.4-26.8h0q0,0,0,0c-10.2,6.2-18.7,15.5-25.3,26.9,0,0,.2-.1.1,0q0,0,0,0c-1.1.5-2.9,2.7-4.3,5.1,0,0,0-.1.1-.2-5.8.9-10.4,1.2-13.1.6.6-.7,1.1-1.4,1.7-2.1q-.1,0-.3,0h0c1.1.2,10.6-10.6,11.4-11.5h0c8.7-7.7,18.6-14.2,29.6-19h0c-11.1,4.8-21.1,11.2-29.8,18.9,0,0,.1,0,.2,0h0c-.7.3-3.1,2.1-5.5,4.4,0,0,.2-.2.3-.3-1.9-.6-2.3-1.9-.8-3.8,1.1-1.3,1.1-1.3,2.9-2.8l-3.4,2.8c-.9.8-1.1,1-2.2,2.3-1.6,2.1-1.1,3.5.9,4.1h.1c-2.1,2.1-3.6,4.1-3.6,4.8h0c-.6.6-1.2,1.3-1.8,1.9-3-.7-3.7-2.4-1.7-5-.8.8-1.6,1.7-2.3,2.5-2.1,2.8-1.3,4.6,1.8,5.3-2.8,3.6-5.4,7.4-7.7,11.3q0,0,.1,0c-.8.3-2.6,2.6-4.2,5.4,0,0,0-.1.1-.3-3-1-3.8-2.9-2-5.8l-1.9,3.3c-1.6,2.8-.8,4.7,2.3,5.7,0-.1,0-.2.1-.3-1.9,3.9-2.3,6.7-1.3,6.3,1.8-.7,7.7-12.4,7.3-14.2h0c2.3-4,4.9-7.7,7.7-11.4,3,.6,7.7.3,13.9-.7,0,0,0-.2.1-.3-1.3,2.8-1.3,4.6-.4,4.9,0,0-.1,0-.2,0-2.6,6.4-4.6,13.2-6.2,20.4.3-.2.5-.3.8-.3-2,.4-4.3,4.6-4.8,8.9-.6,4.8,1.3,7.7,3.7,5.8,2.5-2,3.9-8.2,3.3-11.9v.2c3.6-6.3,4.9-8.4,9.5-16.1,5.8-1.4,12.2-3.1,19.2-5.3,1.8-.6,3.6-1.1,5.4-1.7l2.6,2.6c-.3,1.4-.2,2.9.2,4.3,1.3,4.8,5.8,6.2,7.9,2.4,2.1-4.1-.9-11.8-5.3-10.7-.8.3-1.4.9-1.9,1.7h0q-3.1-3.1-3.5-3.1c-1.8.6-3.6,1.2-5.5,1.8-6.7,2.1-13,3.8-18.7,5.2q-.3.2-.5.5c-4.5,7.2-4.7,7.6-9.9,16.4-.3-.4-.6-.7-1-.8,0,0,.1,0,.2,0,1.4-7.2,3.4-13.9,5.8-20.3,1.3-.8,2.7-2.9,3.8-5.2,5.8-1.2,12.6-3,20.2-5.3,3.6-1.1,7.2-2.3,10.8-3.6,4.5,4.2,9.7,7.8,14.3,10.9v-.3c0,1.3.4,2.8,1.1,4,2.5,4.8,7.3,5.3,8.5,1.8.4-1.3.3-2.8-.3-4.3,5.3-2.1,10.3-4.3,15.1-6.5h0c2.2,2,4.5,3,6.2,2.8.5.6,1,1.3,1.5,1.9-16.2,7.6-35.6,15.2-55.2,21.2-1.2.4-2.4.8-3.8,1.3-.1.1-.3.4-.4.5-.8,1.7-4.5,9.9-7.5,16.5-12.9,3.5-24.1,5.8-33,7,.8-7.3,2.3-14.3,4.1-21.1h0c3.1-1.8,7.2-13.8,4.8-14.3h-.3c-1.8.4-4.3,4.5-5.5,8-1.1,3.3-1.1,5.8-.2,6.3-2,6.8-3.5,13.9-4.4,21.2-2.8.3-5.3.5-7.7.6-1.4-11.9-.8-15.5.9-24.8-.6,1.1-1,1.6-1.5,2.3-1.2,6.8-2.4,13.9-.5,25.6,0,.4.2.4.3.5,2.4,0,5.1-.3,8.1-.6-.3,3.5-.6,7-.6,10.5.2-.1.3-.2.5-.3-1.5.5-2.8,3.1-3.1,6.3h0c-5.1.4-9.4.4-12.7,0v.3c0,1.7,0,3-.1,3.5,2.8.3,6.1.3,10,0,.3,14.8,3,29.7,8.3,44.2,2.5,6.8,5.6,13.3,9,19.3-4.1.3-7.7.3-10.6,0,.9,1.4,1.4,2.3,1.8,3.1,3,.3,6.5.3,10.6,0,4.5,7.3,9.6,13.9,15.6,19.5h0c-1.3.3-.6,2.1,1.6,4.3q0,0-.1-.1c-6.2.3-10.6-.3-13.2-1.7-8-6.7-15.2-14.7-21.1-23.8.7.4,1.6.7,2.6,1h0c2.6,3.6,5.4,6.2,5.7,5,.4-1.7-6.5-12.9-9-13.7.1,0,.3,0,.5.3-2.3-4.3-4.2-8.8-6-13.4-4.6-12.4-7-25.2-7.4-37.8h0c.1,0,.2-.1.3-.2,1.7-1.8,2.4-15.3,0-16.2-1.1,0-2,3.1-2.3,6.4,0-.1,0-.3,0-.4-.5-.1-.9-.3-1.4-.4v.3h0c0,1.6-.1,3-.1,3.4.4.2.9.3,1.3.4v-.3c0,3.3.6,6,1.4,6.9h0c.3,12.7,2.7,25.5,7.3,37.9,1.8,4.7,3.7,9.2,6,13.4,0,0,.1-.1.2,0h.1c-1,0-.1,2.8,1.8,6.2-.1-.2-.3-.4-.3-.6-.9-.3-1.8-.6-2.5-.9-3.6-6-6.8-12.5-9.3-19.3-4.5-12.2-6.8-24.9-7.2-37.3h0q0,0,.1,0c1.3-1.2,1.8-15.2.6-16.3,0,0,.1.1.2.3.8-6.8,2.3-13.4,4.1-19.9h0c.8-.3,2.3-3.9,3.5-7.2.8-2.2,2.6-7.3,2.1-8-.6-.1-2.1,2.3-3.4,5.4,0,0,0-.1,0-.2-1.1-1-1.4-2.4-.6-4.2l-1.4,3.5c-.7,1.7-.4,3.1.7,4.1,0-.1,0-.2.1-.3-1.1,3.2-1.6,5.8-1.4,6.7h0c-2,6.4-3.4,13.1-4.3,19.8,0,0,0,0,0,0,0,0,.1,0,.3,0-.8-.2-1.6,3.8-1.8,7.5,0-.9.1-1.7.2-2.3-.8-.7-1.2-1.5-1.3-2.4.2-1.9.3-3.9.5-5.5-.1,1.1-.3,2.9-.5,5h0v.3h0c0,1-.1,2.1-.2,3.1v.2h0c0,.7,0,1.4,0,2.1,0-.6,0-1.3.1-1.9,0,1,.5,1.9,1.3,2.6v-.2c-.1,3.6.3,6.5.8,7.5h0c-.2,12.6,2.1,25.1,6.6,37.4,2.5,6.8,5.7,13.3,9.4,19.3-.7-.4-1.3-1-1.6-1.6l2.1,3.3c.4.6.9,1.1,1.6,1.4,6,9.1,13.1,17.1,21.2,23.9-.2-.1-.4-.3-.6-.4l2.9,2.3c.1.1.3.2.4.3,2.5,2,5.2,3.8,7.9,5.6l2.3,1.4,3.2,1.9,2.6,1.4c-.8-.4-1.6-.9-2.4-1.3,3.1,1.7,9.5,1.9,18.3.9,0,0-.1,0-.2-.1,4,2.4,8.7,3.5,8.5,1.8-.3-2-8.1-7.6-12-7.2-1.8.4-.8,2.2,1.4,4,0,0-.2-.1-.3-.2-9.1,1.1-15.6.8-18.8-.9-3.5-2.1-6.8-4.5-9.9-6.9,2.5,1.3,6.9,1.9,12.9,1.6,0,0-.1,0-.1-.1,3.8,3,8.2,4.6,8.2,2.9s-7.3-8.4-11-9.2h0c-5.6-5.8-10.7-12.4-15.1-19.7,9.4-.8,21.6-3,35.9-6.5,2,2.6,4.8,4,7.1,3.8h-.6c1.6,2.9,3.1,5.7,4.8,8.4-4.7,1.2-9.2,2.3-13.4,3.2-.3.1-.4.2-.4.6-.3,10.4.2,12.6,2.2,19.6.1,0,.3,0,.3.1,1.1.4,2,.9,2.4,1.1-2.4-7.6-2.4-10.6-2.2-18.8,4.1-.9,8.4-1.9,12.9-3.1,3.5,5.5,7.2,10.4,10.9,14.8.3-.2.6-.3.9-.4-2.8.8-2.6,3.6.2,6.1,3.8,3.2,10.1,3.9,9.9.2-.2-3-5.2-6.8-9.2-6.5h.4c-3.6-4.4-7.2-9.4-10.7-14.8,5.8-1.5,11.9-3.3,18.2-5.3,9.2-2.9,18.5-6,27.5-9.3q14.4,8,15,7.9c22.8-9,43.3-18.8,57.2-27.6,0,.8-.2,1.6-.3,2.4h0c-1.4,1.4-2.6,4.2-3.3,6.9,0,0,0-.2,0-.3-4.1,2.5-8.7,5-13.8,7.7,0,.9,0,1.8-.3,2.8,4.9-2.5,9.4-5,13.4-7.5h0c-.3,2.1,0,3.8,1,3.6h0c-.2.8-.4,1.4-.6,2.2.3-.3.4-.4.6-.5-1.4.9-3.1,4-4.4,6.8,0,0,0-.2.1-.3-2.4,1.4-5,3-7.8,4.5-.3.2-.3.3-.6.6-6.2,9.5-10.6,15-16.3,21.8h-.1c-.3-.3-.8,0-1.1,0-1.8.9-3.3,3-4.1,4.3,0-.1.1-.2.2-.3-7.9,3.6-16.8,7.2-26,10.3-.3.2-.4.4-.2.6,2.3,2.3,4.2,3.5,5.7,3.2.3,0,.4-.1.6-.2-1.2.1-2.8-.9-4.6-3,8.4-2.9,16.6-6.2,23.8-9.5h0c-.3.7-.6,1.8.2,1.5h0c-2.1,2.7-4.5,4.8-7.3,6.2,0,0-.2,0-.3.1l.6-.3c0,0,.1,0,.2,0,3-1.4,5.6-3.6,7.8-6.3,1.9-1.1,4.6-4.3,4.9-5.9,7.5-8.4,9.5-11.1,16.3-20.9,2.6-1.4,5-2.8,7.3-4.1q0,0,0-.1c-.6,1.9-.9,3.6-.1,3.4h0c-5.7,11.4-13.8,20.8-24.1,27.3l1.1-.7c10.2-6.7,18.3-16,23.9-27.1,1.3-1.1,2.9-3.5,4-5.8,4.3-2.9,7.5-5.5,9.6-7.9-.6,1.2-1.3,2.3-1.7,3.6-1,1.7-2,3.4-3.1,5l.5-.7c.9-1.4,1.9-3,2.8-4.5.8-.9,3.1-5.5,4.9-9.1v-.3c.1,0,0,.1,0,.1,1.2-2.4,2-4.5,1.9-4.8h0c.3-.6.5-1.3.8-1.9.6-1.1,1.7-3.9,2.6-6.7.3-.4.4-.8.5-1.2l1.1-3.6c-.1.4-.3.9-.6,1.4.6-2.2,1-4.1.8-4.6,0,0-.1,0-.2.1-.2.3-.8,1.2-2.6,7.3-2.4,2.9-6.4,6.1-11.6,9.5.3-2.1,0-3.8-1-3.9h-.2,0c.1-.8.2-1.6.3-2.4,7.2-4.6,12.4-8.9,15.2-12.6,1.1-1.4,1.8-2.8,2-3.9l.6-3.1v-.6c0,1.2-.8,2.6-1.9,4.1-2.8,3.7-8.2,8-15.5,12.8.3-3.2.4-6.5.4-9.9,1.4-1.7,2.1-4.1,2.2-6.5,6.6-4.5,11.5-8.5,14.2-12.1,1.5-2,2.3-3.7,2.3-5.2h0v-.8c-.2-1.1-.2-2.2-.2-3.1ZM539.4,150.5c0-.4.2-.7.4-.8-.2.2-.4.4-.4.8ZM540,149.6c.1,0,.3,0,.4,0-.1,0-.3,0-.4,0ZM540.5,149.5h.2c0,0,.2,0,.3.1-.1,0-.3,0-.4-.1ZM541.6,150.2c.1.2.3.4.3.4-.1-.1-.2-.3-.3-.4ZM558.6,108.7c.3.4.6.6.6.6.1.1.3.2.4.3-.4-.2-.8-.6-1.1-.9ZM569.3,95.3q0,0,0,0c0,0,0,0,0,0h0ZM562.2,89.9c-.1,0-.2-.1-.3-.2.1,0,.2.1.3.2ZM530.4,75.3c0,0,0,0-.1-.1q.1,0,.1.1h0ZM532.6,75.9h0ZM543.9,97c.1,0,.3.2.5.3-.4-.2-.9-.5-1.3-.8.4.3.8.6.8.6ZM484.1,273.7c-.3,0-.5,0-.8.1.2,0,.4,0,.8-.1ZM401.9,183.3c0-.2,0-.5,0-.9,0,.3,0,.5,0,.9ZM402,182.4c0-.3.2-.6.3-.8q0,0,.1-.1c-.3.4-.4.6-.4.9ZM402.5,181.5c0,0,.1,0,.3,0h-.3ZM402.8,181.5c.1,0,.3.3.4.7-.1-.3-.3-.4-.4-.7ZM403.3,182.6c0,.2,0,.4,0,.6,0-.3,0-.4,0-.6ZM420.8,248.1c-3.4-6-6.4-12.4-9-19.3-5.3-14.4-8-29.5-8.4-44.2.4,0,.9,0,1.3-.1h0c.3,3.3,1.6,5.8,3.1,6.4,1.1,12.5,3.8,25.2,8.4,37.4,2.5,6.8,5.5,13.3,8.9,19.3-1.5.2-3,.3-4.3.4ZM459.3,234.1c-3.2,1.1-3.6,4.5-2.5,7.6,0,0,0,0,0-.1-11.4,2.8-21.5,4.8-30,5.9-3.3-6-6.3-12.4-8.9-19.3-4.5-12.2-7.3-24.9-8.5-37.4.2-.1.4-.3.6-.5,1.3-1.4,1.9-4,1.9-6.7h0c3.6-.4,7.7-1.2,11.9-2,5.3,7,5.8,7.5,13.8,15.8.3-1.3.5-2,1.1-3-7.1-7.3-7.3-7.6-13.9-16.1-.3-.4-.5-.4-.8-.4-4.4.9-8.5,1.6-12.2,2.1,0,0,0,.2,0,.3.3,1.5.3,2.8.2,3.3,0-4-1.1-8.2-3-8.9,0-3.5.3-7,.6-10.4,9.2-1.2,20.9-3.6,34.5-7.4.1-.2.3-.4.4-.6,2.5-5.5,5-11.1,7.5-16.6,1.1-.3,2.1-.6,3.3-1,20.1-6.2,40-14,56.7-21.9,2,2.6,4,5.2,6,8,.3-.3.5-.4.8-.6-2.6,1.4-1.9,5.7.3,8.8.9,1.3,1.9,2.3,3,3-.1,0-.3-.2-.4-.3l-.3-.3c-1.1,14.6-2.7,23-6.5,39.4-2.9,1.2-5.8,2.3-8.9,3.5-1.4-3.6-2.8-7.1-4.1-10.6.6-.5,1.2-1.3,1.6-2.2,2.3-5.5-2.9-14.1-8.9-12.2-4,1.8-3.7,7.1-2.3,10.2,1.8,4,5.3,5.8,8.1,4.9-.3,0-.6.2-.9.2h-.2c1.4,3.5,2.8,7,4.1,10.6-11.6,4.5-23.7,8.6-35.7,12.4-6.8,2.1-13.3,4-19.3,5.6h0c-1.3-3.1-3.8-5.5-6.8-5-3.6,1.1-4.4,6.2-3.1,10.3,1.9,6.1,7.6,8.2,10,3.9,1.3-2.3,1.2-5.5.3-8.2.3.9.5,1.6.6,2.7,6.2-1.6,12.7-3.5,19.5-5.7,12.2-3.8,24.3-8,36-12.4,1.9,5.2,4,10.4,5.9,15.7-3.2,1.2-6.5,2.4-9.7,3.6,0,0,0,.1,0,.1-1.8-3.1-4.8-5.3-8.4-4.3-4.7,2-4.3,7.7-3,10.8.6,1.4,1.4,2.5,2.3,3.4-1.9,6-2.4,7.4-7,21.4-.6.2-1.2.4-1.8.6-5.2,1.6-10.2,3.1-15,4.6-1.8-3-5.1-5.3-8.4-4.6ZM534.1,249.4c-14.1-8.2-14.6-8.2-15.2-8.2-9.3,3.5-18.8,6.7-28.3,9.6-6.5,2-12.6,3.8-18.5,5.3-1.6-2.6-3.2-5.5-4.7-8.4.8-.5,1.4-1.3,1.7-2.4.3-1.1.3-2.3,0-3.5,4.8-1.3,9.9-2.8,15.1-4.5.8-.3,1.6-.5,2.3-.8.5-.2.6-.4.8-.8q4.2-12.8,7.2-21.8c2.7.9,5.6,0,7-3.1.7-1.6.8-3.5.4-5.3h0c3.3-1.1,6.5-2.3,9.7-3.6,1.3,3.5,2.6,7,3.8,10.4.1.3.2.4.3.5h0c-2.7,2.1-3.1,6.5-1.6,9.8,2.7,5.8,9.4,6.3,11.5.8.6-1.5.6-3.1.4-4.6,5.8-2.1,11.4-4.4,16.8-6.8,7.3,5,9.6,6.5,16,11.4.2,0,.4.2.6.2,5.7-2.6,10.7-5.2,15.6-7.7,0,0,0-.1,0-.2,1.1,4.2,3.9,5.4,6.2,2.3,3.6-5,1.9-14.4-2.4-13.8-.3,0-.6.2-.9.3-2.9,1.8-3.5,6.3-3.2,9.3,0-.4,0-.8,0-1.2-4.7,2.4-9.7,5-15.1,7.5-7.2-5.4-8-6-16.2-11.6-.4-.3-.6-.3-1-.1-5.7,2.4-11.4,4.9-17.5,7.2-1.5-2.6-4.1-4.5-6.9-4h0c0-.2,0-.3-.1-.4-1.2-3.4-2.5-6.8-3.8-10.4,14.3-5.5,27.9-11.4,40-17.3,1.4,3.6,2.6,7.3,3.7,10.9.2-.1.3-.3.4-.4-2.7,1.9-3.2,6.9-1.9,10.6,2,5.6,6.8,6.5,9.1,1.8,2.7-5.6-.9-13.8-5.4-13.2-1.1-3.6-2.3-7.2-3.7-10.9l7.4-3.7c14.4,11,18.2,14.8,25.4,22.9-.2,1.5-.2,3.1,0,4.6.4,3.6,1.8,5.3,3.1,5h-.1c0,3.3,0,6.6-.3,9.8-14.1,8.9-34.7,18.9-57.8,28ZM602.9,229.6c0,0,0-.1.1-.1h-.1ZM603.4,228.2c0,0,.1-.1.2-.3,0,.1-.1.2-.2.3ZM593.2,233.1c5-3.4,8.9-6.5,11.2-9.4h0c-1.1,3.9-1.1,4.2-1.1,4.4,0,0,0,0,0,0h0c-.3.6-.5,1.3-.8,1.9,0,0,0-.1.1-.2-.3.5-.9,1.8-4.1,8.4h0c.2-.4.4-.8.6-1.4-2.1,2.5-5.6,5.3-10.1,8.3.6-1.8.8-3.3.1-3.5-.1,0-.3,0-.4,0h0c.3-.7.4-1.4.7-2.2,1.4-1.4,2.7-3.9,3.5-6.4Z"/>
  <path class="cls-2" d="M514.3,288.4c.7-.4,1.1-1,1-1.9,0-.4-.2-.8-.4-1.3h0c14.4-4.5,28.6-9.9,41.1-15.5.3-.1.4-.3.6-.6,5.8-8.5,7.4-11.5,11.3-18.7-.2-.1-.3-.3-.4-.4.9,1.1,2.3,1,3.8-.5,3.9-3.9,4.2-12.1.5-11.7-.4,0-.8.2-1.1.3-3.1,1.8-4.2,6.3-4.2,8.7s.2,1.8.4,2.4h0c-4.3,7.9-7.9,13.5-11.1,18.5-12.9,5.8-27.5,11.4-42.2,16.1,0,0,.1,0,.1.1-1.4-1.3-3.8-2.1-6-1.8,0,0,.2,0,.3,0-3.1-3.5-6.3-7.8-9.5-12.6.5-.3.9-.7,1.2-1.1,9.4,3.8,16.5,6.6,16.6,6.6.4.1.6.1.9,0,10.7-3.6,21.2-7.6,31.1-11.8.1-.1.3-.3.4-.5.7-1.3,1.6-2.9,2.3-4.1-.1,0-.2-.1-.3-.1,1.6.8,3.7,0,5.3-2.4,2.8-4.4,1.1-10.1-2.8-9.4-.3,0-.7.2-.9.3-3.6,1.8-4.2,6-3.8,8.3.2.9.6,1.7,1,2.3h0l-1.9,3.8c-9.8,4.1-20.3,8.1-31,11.7q-7.2-3-16.1-6.7c0,.1,0,.3,0,.4.4-4-4.5-8.7-9.5-7.5-4,1.4-3.3,5.3-1.5,7.7,1.9,2.4,4.7,3.6,7.1,3.4,3.3,4.8,6.7,9,9.9,12.5.1,0,.3-.1.4-.3-1.8.8-2.1,2.3-.9,3.7h0c-11.2,3.1-20.9,5.3-28.8,6.5-3.3-1.5-6.7-3.2-9.9-5.2-.3.1-.6.2-1.2.2h-.1c3.3,1.9,6.6,3.7,10,5.2-7.6,1-13.3,1-16.5-.1l3.6,1.2c3.1,1,8.4,1,15.6,0,.7.3,1.4.5,2.1.8,0,0,.2-.1.4-.1-.8.1-.4.5-.1.8.5.4,1.5.8,2.8,1.1q0,0-.1,0c-5,.6-8.9.6-11.4,0l3.8.8c2.4.4,6,.4,10.5-.1-.2,0-.3,0-.5-.1,2.6.6,5.7.9,7,.9h-.2c5.8,1,11.7,1.3,17.6.8h1c-3.3,0-7.8.4-11.1,0-2-.3-4.6-.8-6.7-.8h0c0,0,0,0,.1,0,0-.3-1.2-.8-2.8-1.3,2.7-.4,5.7-1,8.8-1.8,7,2.5,14.1,3.3,21,2.3l.9-.2c-7,1.2-14.4.2-21.8-2.8-.9-.3-1.3-.3-1.6-.3-3.6.8-6.9,1.5-9.9,1.9-2.9-.8-6-1.3-7.2-1.2.2,0,.4,0,.7,0-.7-.3-1.3-.5-2-.8,7.5-1.1,17-3.2,27.7-6.3,0,0,0,0,0,0,2.1,1.3,5.1,1.7,6.7.9-.4.2-.8.3-1.3.4,6.3,5.1,12.2,7.2,17.3,6,0,0,.2,0,.3,0h0c.2,0,.4-.1.6-.2-.1,0-.2,0-.3,0-4.7,1.4-10.3-.8-16.3-6ZM567.2,249.7c0,0,0,0,0-.1h0c0,0,.1,0,.1.1Z"/>
  <path class="cls-2" d="M606.4,162.5c-2.1,2.8-5.4,5.8-9.8,9.1,0,0,0,.1,0,.2.6,1.6.8,2.9.9,3.4,4.3-3.3,7.7-6.3,9.7-9.1,1.4-1.9,2.3-3.6,2.4-5.1v-.4c0-.3-.2-.9-.3-1.7.2.7.3,1.4.3,1.7,0-.4,0-.7-.1-1l-.9-3.8v1.1c.2,1.6-.6,3.5-2.2,5.5ZM609.1,157.7c0-.3-.2-.6-.3-.7,0,0,.2.4.3.7Z"/>
  <path class="cls-2" d="M412,255.8c-.2.2-.4.1-.9-.2.9,1.2,1.7,2.3,2.6,3.5,0,0,.2,0,.3,0-.9,0,.3,2.1,2,4.1.6.7,1.2,1.4,1.9,2.1,3.2,3.4,7,6.2,7.2,5.3.3-1.1-7.5-9.9-10.4-11.4h0c-.9-1.1-1.8-2.3-2.7-3.4Z"/>
  <path class="cls-3" d="M111.5,444.8h-2.4v-13.1c.6-.1,1.2-.2,1.8-.3.6,0,1.3,0,2,0h0c1.9,0,3.3.4,4.3,1.1,1,.8,1.4,2,1.4,3.6h0c0,1.5-.5,2.7-1.4,3.5-.9.8-2.4,1.2-4.3,1.2h0c-.3,0-.5,0-.7,0-.2,0-.5,0-.7,0h0v4.1ZM112.9,438.9h0c1.2,0,2-.2,2.5-.7.5-.5.8-1.2.8-2.2h0c0-1-.3-1.8-.8-2.2-.5-.5-1.3-.7-2.4-.7h0c-.3,0-.6,0-.9,0-.3,0-.5,0-.8.1h0v5.5c.2,0,.5,0,.7,0,.2,0,.5,0,.8,0ZM132.2,444.8h-2.4v-13.1c.4,0,.8-.2,1.2-.2.4,0,.9-.1,1.3-.2.5,0,.9,0,1.4,0h0c1.9,0,3.3.3,4.2,1,.9.7,1.4,1.7,1.4,3.1h0c0,.9-.2,1.7-.7,2.3-.4.6-1.1,1.1-1.9,1.4-.8.3-1.8.5-3,.5h0c-.3,0-.6,0-.8,0-.2,0-.5,0-.8,0h0v5.2ZM140.4,444.8h-2.7l-4.4-6.2h2.6l4.5,6.2ZM133.8,437.9h0c1.1,0,2-.2,2.5-.6.5-.4.8-1,.8-1.8h0c0-.5-.1-1-.3-1.3-.2-.3-.5-.6-1-.8-.5-.2-1-.2-1.7-.2h0c-.4,0-.7,0-1,0-.3,0-.6,0-.9.1h0v4.5c.2,0,.4,0,.5,0,.2,0,.3,0,.5,0,.2,0,.4,0,.6,0ZM156.1,445h0c-1.2,0-2.3-.2-3.2-.7-.9-.5-1.6-1.2-2.1-2.2-.5-1-.8-2.3-.8-3.9h0c0-1.6.2-2.9.8-3.9.5-1,1.2-1.8,2.1-2.2.9-.5,2-.7,3.2-.7h0c1.2,0,2.3.2,3.2.7.9.5,1.6,1.2,2.1,2.2.5,1,.7,2.3.8,3.9h0c0,1.6-.3,2.8-.8,3.9-.5,1-1.2,1.8-2.1,2.2-.9.5-2,.7-3.2.7ZM156.1,443h0c.7,0,1.4-.2,1.9-.5.5-.3.9-.8,1.2-1.5s.4-1.6.4-2.8h0c0-1.2-.1-2.2-.4-2.9-.3-.7-.7-1.2-1.2-1.6-.5-.3-1.2-.5-1.9-.5h0c-.7,0-1.3.2-1.9.5-.5.3-.9.8-1.2,1.5-.3.7-.4,1.6-.4,2.8h0c0,1.2.1,2.2.4,2.9.3.7.7,1.2,1.2,1.6.5.3,1.2.5,1.9.5ZM179.8,444.8h-3.6l-4.4-13.3h2.5l4,12.3h-.5l4.1-12.3h2.4l-4.4,13.3ZM197.2,444.8h-2.4v-13.3h2.4v13.3ZM212.5,444.9h0c-.4,0-.7,0-1.1,0-.4,0-.8,0-1.2,0-.4,0-.8,0-1.2-.1h0v-13c.4,0,.8-.2,1.3-.2.4,0,.9-.1,1.4-.1.5,0,.9,0,1.3,0h0c2.3,0,4.1.6,5.3,1.7,1.2,1.1,1.8,2.8,1.8,5.1h0c0,1.6-.3,2.9-.8,3.9-.6,1-1.4,1.7-2.5,2.2s-2.5.7-4.2.7ZM213,442.9h0c1,0,1.8-.2,2.5-.5.7-.3,1.2-.8,1.5-1.5.3-.7.5-1.6.5-2.8h0c0-1.1-.2-2.1-.5-2.8-.3-.7-.8-1.2-1.5-1.6-.7-.3-1.5-.5-2.5-.5h0c-.3,0-.6,0-.8,0-.3,0-.6,0-.9.1h0v9.4c.3,0,.5,0,.8,0,.3,0,.6,0,.9,0ZM233.7,444.8h-2.4v-13.3h2.4v13.3ZM247.8,444.8h-2.3v-13.3h2.4l6.8,10.4h-.4v-10.4h2.3v13.3h-2.4l-6.8-10.4h.4v10.4ZM275.2,444.9h0c-1.6,0-3-.2-4.1-.7-1.1-.5-1.9-1.2-2.4-2.2-.5-1-.8-2.3-.8-3.8h0c0-1.6.3-2.8.8-3.9.6-1,1.4-1.8,2.5-2.3s2.4-.7,3.9-.7h0c.5,0,1,0,1.5,0,.5,0,1,.2,1.5.3h0v2c-.5-.1-1-.2-1.4-.3-.5,0-.9,0-1.4,0h0c-1.1,0-2,.2-2.7.5-.7.3-1.3.8-1.6,1.6-.4.7-.6,1.7-.6,2.8h0c0,1.1.2,2,.5,2.7.3.7.9,1.2,1.6,1.5.7.3,1.5.5,2.6.5h0c.4,0,.8,0,1.1,0,.4,0,.7,0,1-.1h0l-1,.9v-5.4h2.2v6.3c-.6,0-1.1.2-1.6.2-.5,0-1,0-1.6,0ZM307.3,444.9h0c-.4,0-.7,0-1.1,0-.4,0-.8,0-1.2,0-.4,0-.8,0-1.2-.1h0v-13c.4,0,.8-.2,1.2-.2.4,0,.9-.1,1.4-.1.5,0,.9,0,1.4,0h0c2.3,0,4.1.6,5.3,1.7,1.2,1.1,1.8,2.8,1.8,5.1h0c0,1.6-.3,2.9-.8,3.9-.6,1-1.4,1.7-2.5,2.2s-2.5.7-4.2.7ZM307.9,442.9h0c1,0,1.8-.2,2.5-.5.7-.3,1.2-.8,1.5-1.5.3-.7.5-1.6.5-2.8h0c0-1.1-.2-2.1-.5-2.8-.3-.7-.8-1.2-1.5-1.6-.7-.3-1.5-.5-2.5-.5h0c-.3,0-.5,0-.8,0-.3,0-.6,0-.9.1h0v9.4c.3,0,.5,0,.8,0,.3,0,.6,0,.9,0ZM327.1,444.8h-2.4l4.5-13.3h3.5l4.5,13.3h-2.4l-4-12.3h.3l-4,12.3ZM334.3,441h-6.8l.5-1.9h5.7l.5,1.9ZM351.8,444.8h-2.4v-11.3h-4.3v-2h11v2h-4.3v11.3ZM366.5,444.8h-2.4l4.5-13.3h3.5l4.5,13.3h-2.4l-4-12.3h.3l-4,12.3ZM373.7,441h-6.8l.5-1.9h5.7l.5,1.9ZM403.3,444.8h-2.4v-13.1c.6-.1,1.2-.2,1.8-.3.6,0,1.3,0,2,0h0c1.9,0,3.3.4,4.3,1.1,1,.8,1.4,2,1.4,3.6h0c0,1.5-.5,2.7-1.4,3.5-.9.8-2.4,1.2-4.3,1.2h0c-.3,0-.5,0-.7,0-.2,0-.5,0-.7,0h0v4.1ZM404.7,438.9h0c1.2,0,2-.2,2.5-.7.5-.5.8-1.2.8-2.2h0c0-1-.3-1.8-.8-2.2-.5-.5-1.3-.7-2.4-.7h0c-.3,0-.6,0-.9,0-.3,0-.5,0-.8.1h0v5.5c.2,0,.5,0,.7,0,.2,0,.5,0,.8,0ZM424,444.8h-2.4v-13.1c.4,0,.8-.2,1.2-.2.4,0,.9-.1,1.3-.2.5,0,.9,0,1.4,0h0c1.9,0,3.3.3,4.2,1,.9.7,1.4,1.7,1.4,3.1h0c0,.9-.2,1.7-.7,2.3-.4.6-1.1,1.1-1.9,1.4-.8.3-1.8.5-3,.5h0c-.3,0-.6,0-.8,0-.2,0-.5,0-.8,0h0v5.2ZM432.2,444.8h-2.7l-4.4-6.2h2.6l4.5,6.2ZM425.6,437.9h0c1.1,0,2-.2,2.5-.6.5-.4.8-1,.8-1.8h0c0-.5-.1-1-.3-1.3-.2-.3-.6-.6-1-.8-.5-.2-1-.2-1.7-.2h0c-.4,0-.7,0-1,0-.3,0-.6,0-.8.1h0v4.5c.2,0,.4,0,.5,0,.2,0,.3,0,.5,0,.2,0,.4,0,.6,0ZM447.9,445h0c-1.2,0-2.3-.2-3.2-.7-.9-.5-1.6-1.2-2.1-2.2-.5-1-.8-2.3-.8-3.9h0c0-1.6.2-2.9.8-3.9.5-1,1.2-1.8,2.1-2.2.9-.5,2-.7,3.2-.7h0c1.2,0,2.3.2,3.2.7s1.6,1.2,2.1,2.2c.5,1,.8,2.3.8,3.9h0c0,1.6-.2,2.8-.8,3.9-.5,1-1.2,1.8-2.1,2.2-.9.5-2,.7-3.2.7ZM447.9,443h0c.7,0,1.4-.2,1.9-.5.5-.3.9-.8,1.2-1.5.3-.7.4-1.6.4-2.8h0c0-1.2-.1-2.2-.4-2.9-.3-.7-.7-1.2-1.2-1.6s-1.2-.5-1.9-.5h0c-.7,0-1.3.2-1.9.5-.5.3-.9.8-1.2,1.5-.3.7-.4,1.6-.4,2.8h0c0,1.2.1,2.2.4,2.9.3.7.7,1.2,1.2,1.6.5.3,1.2.5,1.9.5ZM471.3,445h0c-1,0-2-.1-2.8-.4-.8-.3-1.5-.7-2.1-1.2-.6-.5-1-1.2-1.3-2.1-.3-.9-.4-1.9-.4-3.1h0c0-1.6.3-2.8.8-3.8.5-1,1.3-1.8,2.3-2.3,1-.5,2.2-.7,3.7-.7h0c.5,0,1,0,1.5,0,.5,0,.9.1,1.4.3h0v2c-.4-.1-.9-.2-1.3-.2s-.9,0-1.4,0h0c-1,0-1.8.2-2.5.5-.7.3-1.1.8-1.5,1.5-.3.7-.5,1.6-.5,2.8h0c0,1.2.2,2.1.5,2.9.3.7.8,1.2,1.5,1.5.6.3,1.4.5,2.4.5h0c.5,0,.9,0,1.4-.1.5,0,.9-.2,1.4-.3h0v2c-.4.1-.9.2-1.4.3-.5,0-1,.1-1.6.1ZM494.3,444.8h-9v-13.3h9v2h-6.6v9.4h6.7v2ZM493.3,439h-6.6v-1.9h6.6v1.9ZM508.5,445h0c-.6,0-1.2,0-1.8-.1-.6-.1-1.2-.2-1.7-.4h0v-2c.4.1.8.2,1.2.3.4,0,.8.1,1.2.2.4,0,.8,0,1.2,0h0c1,0,1.7-.2,2.1-.5.4-.3.6-.8.6-1.4h0c0-.5-.2-.9-.5-1.2-.3-.3-.9-.5-1.7-.7h0l-.9-.2c-1.2-.3-2-.8-2.6-1.4-.6-.6-.9-1.4-.9-2.4h0c0-1.2.4-2.2,1.3-2.9.9-.7,2.2-1,3.9-1h0c.6,0,1.1,0,1.6,0,.5,0,1,.2,1.4.3h0v2c-.4-.1-.9-.2-1.4-.3-.5,0-1,0-1.5,0h0c-.7,0-1.3,0-1.7.2-.4.1-.8.4-.9.6-.2.3-.3.6-.3,1h0c0,.5.1.9.4,1.1.3.3.8.5,1.5.7h0l.9.2c.8.2,1.5.5,2.1.8.6.3,1,.8,1.2,1.2.3.5.4,1.1.4,1.7h0c0,.8-.2,1.6-.6,2.2-.4.6-1,1-1.8,1.4-.8.3-1.7.5-2.8.5ZM527.8,445h0c-.6,0-1.2,0-1.8-.1-.6-.1-1.2-.2-1.7-.4h0v-2c.4.1.8.2,1.2.3.4,0,.8.1,1.2.2.4,0,.8,0,1.2,0h0c1,0,1.7-.2,2.1-.5.4-.3.6-.8.6-1.4h0c0-.5-.2-.9-.5-1.2-.3-.3-.9-.5-1.7-.7h0l-.9-.2c-1.2-.3-2-.8-2.6-1.4s-.9-1.4-.9-2.4h0c0-1.2.4-2.2,1.3-2.9.9-.7,2.2-1,3.9-1h0c.6,0,1.1,0,1.6,0,.5,0,1,.2,1.4.3h0v2c-.4-.1-.9-.2-1.4-.3-.5,0-1,0-1.5,0h0c-.7,0-1.3,0-1.8.2-.4.1-.7.4-.9.6-.2.3-.3.6-.3,1h0c0,.5.1.9.4,1.1.3.3.8.5,1.5.7h0l.9.2c.8.2,1.5.5,2.1.8.5.3,1,.8,1.2,1.2.3.5.4,1.1.4,1.7h0c0,.8-.2,1.6-.6,2.2-.4.6-1,1-1.8,1.4-.8.3-1.7.5-2.8.5ZM546.4,444.8h-2.4v-13.3h2.4v13.3ZM560.5,444.8h-2.3v-13.3h2.4l6.8,10.4h-.5v-10.4h2.3v13.3h-2.4l-6.8-10.4h.5v10.4ZM587.9,444.9h0c-1.6,0-3-.2-4.1-.7-1.1-.5-1.9-1.2-2.5-2.2-.5-1-.8-2.3-.8-3.8h0c0-1.6.3-2.8.8-3.9.6-1,1.4-1.8,2.5-2.3,1.1-.5,2.4-.7,3.9-.7h0c.5,0,1,0,1.5,0,.5,0,1,.2,1.5.3h0v2c-.5-.1-1-.2-1.4-.3-.5,0-.9,0-1.4,0h0c-1.1,0-2,.2-2.7.5-.7.3-1.3.8-1.6,1.6s-.6,1.7-.5,2.8h0c0,1.1.2,2,.5,2.7.3.7.9,1.2,1.5,1.5.7.3,1.5.5,2.6.5h0c.4,0,.8,0,1.1,0,.4,0,.7,0,1-.1h0l-1,.9v-5.4h2.3v6.3c-.6,0-1.1.2-1.6.2s-1,0-1.6,0ZM618.9,444.8h-2.4v-13.3h8.9v2h-6.5v11.3ZM624.5,439.2h-6.4v-2h6.4v2ZM641.5,445h0c-1.2,0-2.3-.2-3.2-.7-.9-.5-1.6-1.2-2.1-2.2-.5-1-.8-2.3-.8-3.9h0c0-1.6.2-2.9.8-3.9.5-1,1.2-1.8,2.1-2.2.9-.5,2-.7,3.2-.7h0c1.2,0,2.3.2,3.2.7.9.5,1.6,1.2,2.1,2.2.5,1,.8,2.3.8,3.9h0c0,1.6-.2,2.8-.8,3.9-.5,1-1.2,1.8-2.1,2.2-.9.5-2,.7-3.2.7ZM641.5,443h0c.7,0,1.4-.2,1.9-.5.5-.3.9-.8,1.2-1.5.3-.7.4-1.6.4-2.8h0c0-1.2-.1-2.2-.4-2.9-.3-.7-.7-1.2-1.2-1.6-.5-.3-1.2-.5-1.9-.5h0c-.7,0-1.3.2-1.9.5-.5.3-.9.8-1.2,1.5-.3.7-.4,1.6-.4,2.8h0c0,1.2.1,2.2.4,2.9.3.7.7,1.2,1.2,1.6.5.3,1.2.5,1.9.5ZM661.2,444.8h-2.4v-13.1c.4,0,.8-.2,1.2-.2.4,0,.9-.1,1.3-.2.5,0,.9,0,1.4,0h0c1.9,0,3.3.3,4.2,1,.9.7,1.4,1.7,1.4,3.1h0c0,.9-.2,1.7-.7,2.3-.4.6-1.1,1.1-1.9,1.4-.8.3-1.8.5-3,.5h0c-.3,0-.6,0-.8,0-.2,0-.5,0-.8,0h0v5.2ZM669.4,444.8h-2.7l-4.4-6.2h2.6l4.5,6.2ZM662.8,437.9h0c1.1,0,2-.2,2.5-.6.5-.4.8-1,.8-1.8h0c0-.5-.1-1-.3-1.3-.2-.3-.5-.6-1-.8-.5-.2-1-.2-1.7-.2h0c-.4,0-.7,0-1,0-.3,0-.6,0-.8.1h0v4.5c.2,0,.4,0,.5,0,.2,0,.3,0,.5,0,.2,0,.4,0,.6,0ZM699.4,444.8h-2.4v-11.3h-4.3v-2h11v2h-4.3v11.3ZM716.7,444.8h-2.4v-13.3h2.4v5.4h6v-5.4h2.4v13.3h-2.4v-5.8h-6v5.8ZM746,444.8h-9v-13.3h9v2h-6.6v9.4h6.7v2ZM745,439h-6.6v-1.9h6.6v1.9ZM773.2,444.8h-2.4v-13.3h8.9v2h-6.5v11.3ZM778.8,439.2h-6.4v-2h6.4v2ZM795.9,445h0c-1.2,0-2.3-.2-3-.6-.8-.4-1.4-1-1.8-1.8-.4-.8-.6-1.8-.6-3.1h0v-8h2.4v8.2c0,1.2.2,2,.7,2.5.5.5,1.2.8,2.2.8h0c1,0,1.8-.3,2.2-.8.5-.5.7-1.3.7-2.5h0v-8.2h2.4v8c0,1.3-.2,2.3-.6,3.1-.4.8-1,1.4-1.8,1.8-.8.4-1.8.6-3,.6ZM818.5,444.8h-2.4v-11.3h-4.3v-2h11v2h-4.3v11.3ZM838.7,445h0c-1.2,0-2.3-.2-3-.6s-1.4-1-1.8-1.8c-.4-.8-.6-1.8-.6-3.1h0v-8h2.4v8.2c0,1.2.2,2,.7,2.5.5.5,1.2.8,2.2.8h0c1,0,1.8-.3,2.2-.8.5-.5.7-1.3.7-2.5h0v-8.2h2.4v8c0,1.3-.2,2.3-.6,3.1-.4.8-1,1.4-1.7,1.8-.8.4-1.8.6-3,.6ZM858.1,444.8h-2.4v-13.1c.4,0,.8-.2,1.2-.2.4,0,.9-.1,1.3-.2.5,0,.9,0,1.4,0h0c1.9,0,3.3.3,4.2,1,.9.7,1.4,1.7,1.4,3.1h0c0,.9-.2,1.7-.7,2.3-.4.6-1.1,1.1-1.9,1.4-.8.3-1.8.5-3,.5h0c-.3,0-.6,0-.8,0-.2,0-.5,0-.8,0h0v5.2ZM866.3,444.8h-2.7l-4.4-6.2h2.6l4.5,6.2ZM859.7,437.9h0c1.1,0,2-.2,2.5-.6.5-.4.8-1,.8-1.8h0c0-.5-.1-1-.3-1.3-.2-.3-.5-.6-1-.8-.5-.2-1-.2-1.7-.2h0c-.4,0-.7,0-1,0-.3,0-.6,0-.8.1h0v4.5c.2,0,.4,0,.5,0,.2,0,.3,0,.5,0,.2,0,.4,0,.6,0ZM886.2,444.8h-9v-13.3h9v2h-6.6v9.4h6.7v2ZM885.2,439h-6.6v-1.9h6.6v1.9Z"/>
  <path class="cls-1" d="M115.1,386h0c0,5-1.8,8.8-5.5,11.4-3.7,2.6-9,3.9-16.1,3.9h-23.5l9.6-49.5h19.7c5.6,0,9.8,1,12.8,3,3,2,4.4,4.8,4.4,8.5h0c0,6.6-3.9,10.6-11.6,12.1h0c3.2.5,5.7,1.8,7.5,3.7,1.8,1.9,2.7,4.3,2.7,7ZM87.4,358.7l-2.6,13.4h10.8c4.1,0,7.1-.6,8.9-1.8,1.8-1.2,2.8-3.2,2.8-5.8h0c0-2-.7-3.5-2.1-4.4-1.4-.9-3.7-1.4-6.8-1.4h-10.9ZM83.5,378.9l-3,15.4h12c4.9,0,8.4-.7,10.4-2,2-1.4,3-3.5,3-6.5h0c0-2.2-.8-3.9-2.5-5.1-1.7-1.2-4.3-1.8-7.9-1.8h-12ZM159.4,377.3h0c0,2.6-.3,5.2-.9,7.8-.6,2.5-1.5,4.8-2.8,6.8h0c-1.9,3.3-4.4,5.8-7.6,7.5-3.2,1.7-6.8,2.6-10.8,2.6h0c-4.9,0-8.8-1.4-11.7-4.1-2.9-2.8-4.3-6.5-4.3-11.3h0c0-4.8,1-9,2.7-12.6h0c1.8-3.7,4.3-6.5,7.6-8.4,3.3-2,7.1-3,11.4-3h0c5.3,0,9.4,1.3,12.2,3.9,2.8,2.6,4.2,6.2,4.2,10.8ZM150.4,377.8h0c0-6.1-2.6-9.1-7.8-9.1h0c-2.8,0-5.1.7-6.8,2.2h0c-1.1,1-2.1,2.3-2.9,4-.8,1.7-1.4,3.6-1.8,5.6-.4,2-.6,4-.6,5.8h0c0,3.2.7,5.6,2,7.2,1.3,1.6,3.3,2.4,5.8,2.4h0c1.7,0,3.1-.3,4.3-.8,1.2-.5,2.2-1.3,3.1-2.3h0c1.4-1.5,2.5-3.5,3.3-6.2.8-2.7,1.3-5.7,1.4-9ZM188.5,394.8h-.1c-1.8,2.6-3.8,4.4-5.9,5.5-2.1,1.1-4.4,1.7-7.2,1.7h0c-3.5,0-6.2-.9-8-2.6s-2.7-4.2-2.7-7.4h0c0-.4,0-1,.1-1.7s.2-1.4.3-2.2c.1-.7.2-1.4.3-1.9h0l4.5-23h8.7l-4.2,21.5c-.5,2.6-.8,4.5-.8,5.6h0c0,3.3,1.9,5,5.7,5h0c1.7,0,3.3-.5,4.9-1.4,1.5-.9,2.8-2.2,3.9-3.8,1.1-1.6,1.8-3.5,2.2-5.6h0l4.1-21.3h8.7l-5.8,29.9c-.2,1-.4,2.2-.7,3.5-.2,1.4-.5,2.9-.7,4.6h-8.3c0-.2,0-.7.2-1.5s.2-1.8.4-2.8c.1-1,.3-1.7.3-2.2h0ZM218.5,380h0l-4.1,21.3h-8.7l5.8-29.9c.2-1,.4-2.1.6-3.5.2-1.4.5-2.9.7-4.6h8.3c0,.1,0,.7-.1,1.5-.1.9-.2,1.8-.4,2.8-.1,1-.3,1.7-.4,2.2h.1c1.8-2.5,3.8-4.4,5.8-5.5,2.1-1.1,4.4-1.7,7.2-1.7h0c3.5,0,6.2.9,8,2.6,1.8,1.7,2.7,4.2,2.7,7.4h0c0,.6,0,1.5-.2,2.7-.1,1.2-.3,2.2-.5,3.1h0l-4.5,23h-8.6l4.2-21.5c.5-2.7.8-4.5.8-5.6h0c0-3.3-1.9-5-5.7-5h0c-1.7,0-3.3.5-4.9,1.4s-2.8,2.2-3.9,3.8c-1.1,1.6-1.8,3.5-2.2,5.6ZM261,402h0c-3.6,0-6.5-1.2-8.6-3.5-2.1-2.3-3.1-5.5-3.1-9.4h0c0-4.6.7-9,2.2-13.4h0c1.5-4.3,3.6-7.6,6.2-9.8,2.7-2.2,6-3.3,9.9-3.3h0c3,0,5.3.6,7.2,1.8,1.8,1.2,3.1,2.9,3.8,5.2h.2c0-.6.2-1.4.4-2.4.2-.9.3-2,.6-3.3h0l2.9-14.7h8.6l-8.4,44.1c-.3,1.4-.5,2.8-.7,4.1-.2,1.4-.3,2.7-.4,3.9h-8.6c0-1.4.2-3.3.6-5.6h-.1c-1.7,2.2-3.5,3.8-5.4,4.8-1.9,1-4.3,1.5-7.1,1.5ZM264.5,395.9h0c4,0,6.9-1.7,9-5.2h0c.7-1.2,1.3-2.6,1.8-4.2.5-1.6.9-3.2,1.1-4.9.3-1.7.4-3.2.4-4.5h0c0-2.8-.6-5-1.8-6.3-1.2-1.4-3-2.1-5.4-2.1h0c-2.5,0-4.6.8-6.2,2.5h0c-1,1.1-1.9,2.6-2.7,4.5-.7,1.9-1.3,4-1.7,6.2-.4,2.2-.6,4.2-.6,6h0c0,2.7.5,4.7,1.5,6.1,1,1.4,2.5,2,4.6,2ZM321.6,401.6h0c-2.3,0-4-.5-5.2-1.4-1.2-1-1.8-2.3-1.8-3.9h0c0-.4,0-.8,0-1.2,0-.4,0-.7.1-1.1h-.2c-2,3-3.9,5.1-5.9,6.3-2,1.1-4.4,1.7-7.2,1.7h0c-3.3,0-5.9-1-7.9-2.9-2-2-3-4.5-3-7.5h0c0-4.3,1.5-7.6,4.5-9.8,3-2.2,7.9-3.4,14.7-3.5h7.2c.5-2.3.7-3.9.7-4.7h0c0-1.7-.5-3-1.4-3.8-.9-.8-2.2-1.2-4-1.2h0c-2.4,0-4.2.5-5.4,1.4-1.2.9-2,2.2-2.5,4h0l-8.3-1.1c.9-3.4,2.7-5.9,5.4-7.6,2.7-1.7,6.4-2.5,10.9-2.5h0c4.6,0,8,.9,10.3,2.6,2.3,1.8,3.4,4.3,3.4,7.7h0c0,1.1-.3,2.9-.8,5.5h0l-2.5,12.7c-.2,1.1-.3,2.1-.3,2.7h0c0,.9.3,1.5.9,1.9.6.3,1.2.5,1.9.5h0c.7,0,1.5,0,2.2-.2h0l-.5,5c-.9.3-1.8.5-2.7.6-.9,0-1.9.1-2.8.1ZM299.5,390.3h0c0,1.7.5,3,1.5,4,1,1,2.3,1.5,4,1.5h0c2,0,3.8-.6,5.5-1.9h0c1.1-.8,2.1-1.8,2.9-3.1.8-1.2,1.4-2.6,1.7-4h0l.8-3.6h-6.2c-1.8,0-3.4.3-4.7.6-1.3.3-2.3.8-3.1,1.4h0c-.8.6-1.4,1.3-1.8,2.1-.4.9-.7,1.8-.7,3ZM359.5,363l-1.5,7.3c-1.4-.4-2.6-.5-3.7-.5h0c-1.8,0-3.5.5-4.9,1.5-1.4,1-2.7,2.5-3.7,4.4-1,1.9-1.8,4.2-2.3,7h0l-3.6,18.7h-8.7l5.7-29.2c.1-.7.3-1.5.4-2.2.1-.7.3-1.5.4-2.2h0c.1-.7.3-1.5.4-2.2.1-.7.2-1.5.3-2.2h8.3l-.9,6-.3,1.8h.1c1.7-3.1,3.3-5.3,4.9-6.6,1.6-1.3,3.4-1.9,5.5-1.9h0c1.1,0,2.2.2,3.5.5h0ZM358.8,416.2h0c-2,0-3.9-.2-5.6-.6h0l1.2-6.1c1,.2,2,.3,3,.3h0c2,0,3.7-.6,5.2-1.8,1.5-1.2,3-3.1,4.4-5.7h0l1-1.7-7.5-37.3h9l3,18.7c.1.8.2,1.7.4,2.8.2,1.1.3,2.2.4,3.4.1,1.1.2,2.2.3,3.1,0,.9.1,1.5.1,1.9h0c.1-.2.2-.5.4-.7.1-.2.2-.5.4-.8h0l4.7-9.5,10-18.8h9.4l-22.7,39.4c-2.6,4.2-4.6,7.1-6.2,8.7h0c-1.6,1.7-3.2,2.9-4.9,3.7-1.7.8-3.7,1.2-5.9,1.2ZM426.4,351.7h18.7c5.7,0,10.1,1.3,13.3,3.8s4.8,6.1,4.8,10.6h0c0,3.5-.8,6.5-2.4,9.1-1.6,2.6-3.9,4.5-6.9,5.9-3,1.4-6.5,2.1-10.6,2.1h-13.8l-3.5,18.1h-9.1l9.6-49.5ZM434.2,358.9l-3.3,17.2h11.3c3.9,0,6.8-.8,8.8-2.3,2-1.5,2.9-3.9,2.9-7.2h0c0-2.5-.8-4.5-2.4-5.8-1.6-1.3-4-2-7.1-2h-10.2ZM503.6,377.3h0c0,2.6-.3,5.2-.9,7.8-.6,2.5-1.5,4.8-2.8,6.8h0c-1.9,3.3-4.4,5.8-7.6,7.5-3.2,1.7-6.8,2.6-10.8,2.6h0c-4.9,0-8.8-1.4-11.7-4.1-2.9-2.8-4.3-6.5-4.3-11.3h0c0-4.8,1-9,2.7-12.6h0c1.8-3.7,4.3-6.5,7.6-8.4,3.3-2,7.1-3,11.4-3h0c5.3,0,9.4,1.3,12.2,3.9,2.8,2.6,4.2,6.2,4.2,10.8ZM494.6,377.8h0c0-6.1-2.6-9.1-7.8-9.1h0c-2.8,0-5.1.7-6.8,2.2h0c-1.1,1-2.1,2.3-2.9,4-.8,1.7-1.4,3.6-1.8,5.6-.4,2-.6,4-.6,5.8h0c0,3.2.7,5.6,2,7.2,1.3,1.6,3.3,2.4,5.8,2.4h0c1.7,0,3.1-.3,4.3-.8,1.2-.5,2.2-1.3,3.1-2.3h0c1.4-1.5,2.5-3.5,3.3-6.2.8-2.7,1.3-5.7,1.4-9ZM517.3,349.1h8.7l-1.4,6.9h-8.7l1.3-6.9ZM514.5,363.2h8.7l-7.4,38h-8.7l7.4-38ZM538.7,380h0l-4.1,21.3h-8.7l5.8-29.9c.2-1,.4-2.1.6-3.5s.5-2.9.7-4.6h8.3c0,.1,0,.7-.2,1.5-.1.9-.2,1.8-.4,2.8-.1,1-.3,1.7-.4,2.2h.1c1.8-2.5,3.8-4.4,5.8-5.5,2.1-1.1,4.5-1.7,7.2-1.7h0c3.5,0,6.2.9,8,2.6,1.8,1.7,2.7,4.2,2.7,7.4h0c0,.6,0,1.5-.2,2.7-.1,1.2-.3,2.2-.5,3.1h0l-4.5,23h-8.6l4.2-21.5c.5-2.7.8-4.5.8-5.6h0c0-3.3-1.9-5-5.7-5h0c-1.7,0-3.3.5-4.9,1.4s-2.8,2.2-3.9,3.8c-1.1,1.6-1.8,3.5-2.2,5.6ZM579.3,401.9h0c-2.6,0-4.6-.7-6.1-2-1.4-1.3-2.2-3.1-2.2-5.5h0c0-1.6.2-3.3.6-5.2h0l3.9-20h-4.9l1.2-6h5.3l4.5-8.8h5.5l-1.7,8.8h7.1l-1.1,6h-7.2l-3.9,20.1c-.3,1.4-.4,2.4-.4,3.2h0c0,1.1.3,1.8.8,2.4.5.5,1.3.8,2.3.8h0c.8,0,2.1-.2,3.7-.5h0l-1,5.8c-2,.6-4.2.8-6.4.8ZM631.2,402h0c-6.1,0-10.8-1.1-14.1-3.2-3.3-2.2-5.2-5.5-5.9-10h0l8.9-1.6c.5,2.7,1.7,4.7,3.6,6,1.9,1.3,4.6,1.9,8.2,1.9h0c4.4,0,7.7-.6,9.9-1.9,2.1-1.3,3.2-3.2,3.2-5.9h0c0-1.1-.2-2.1-.7-2.9-.5-.8-1.2-1.5-2.2-2.2h0c-.8-.5-1.8-1-3.2-1.5-1.4-.5-3.1-1-5.2-1.6h0c-4.2-1.1-7.3-2.3-9.4-3.5h0c-2-1.2-3.6-2.7-4.7-4.5-1.1-1.7-1.6-3.9-1.6-6.3h0c0-2.8.8-5.2,2.5-7.3,1.7-2.1,4-3.7,7-4.8,3-1.1,6.5-1.7,10.6-1.7h0c5.4,0,9.8,1,13.1,2.9,3.3,1.9,5.3,4.8,6.1,8.5h0l-8.8,2.2c-.6-2.2-1.8-4-3.6-5.2-1.8-1.2-4.2-1.8-7.2-1.9h0c-3.4,0-6.1.6-7.9,1.8-1.8,1.2-2.8,2.9-2.8,5.1h0c0,1.2.3,2.2.9,3,.6.8,1.5,1.5,2.8,2.1h0c.6.3,1.5.7,2.8,1.1,1.2.4,2.8.9,4.6,1.3h0c3.3.9,5.8,1.7,7.5,2.5,1.7.8,3.1,1.7,4.2,2.6h0c1.4,1.2,2.4,2.5,3.1,4,.7,1.5,1.1,3.3,1.1,5.4h0c0,5-1.9,8.8-5.7,11.5-3.8,2.6-9.5,3.9-17,3.9ZM698.3,377.3h0c0,2.6-.3,5.2-.9,7.8-.6,2.5-1.5,4.8-2.8,6.8h0c-1.9,3.3-4.4,5.8-7.6,7.5-3.2,1.7-6.8,2.6-10.8,2.6h0c-4.9,0-8.8-1.4-11.7-4.1-2.9-2.8-4.3-6.5-4.3-11.3h0c0-4.8,1-9,2.7-12.6h0c1.8-3.7,4.3-6.5,7.6-8.4,3.3-2,7.1-3,11.4-3h0c5.3,0,9.4,1.3,12.2,3.9,2.8,2.6,4.2,6.2,4.2,10.8ZM689.2,377.8h0c0-6.1-2.6-9.1-7.8-9.1h0c-2.8,0-5.1.7-6.8,2.2h0c-1.1,1-2.1,2.3-2.9,4-.8,1.7-1.4,3.6-1.8,5.6-.4,2-.6,4-.6,5.8h0c0,3.2.7,5.6,2,7.2,1.3,1.6,3.3,2.4,5.8,2.4h0c1.7,0,3.1-.3,4.3-.8,1.2-.5,2.2-1.3,3.1-2.3h0c1.4-1.5,2.5-3.5,3.3-6.2.8-2.7,1.3-5.7,1.4-9ZM712,349.1h8.7l-10.2,52.2h-8.7l10.1-52.2ZM746.1,394.8h0c-1.9,2.6-3.8,4.4-5.9,5.5-2.1,1.1-4.5,1.7-7.2,1.7h0c-3.5,0-6.2-.9-8-2.6s-2.7-4.2-2.7-7.4h0c0-.4,0-1,.1-1.7,0-.7.2-1.4.3-2.2,0-.7.2-1.4.3-1.9h0l4.5-23h8.7l-4.3,21.5c-.5,2.6-.8,4.5-.8,5.6h0c0,3.3,1.9,5,5.7,5h0c1.7,0,3.3-.5,4.9-1.4,1.5-.9,2.8-2.2,3.9-3.8,1.1-1.6,1.8-3.5,2.2-5.6h0l4.2-21.3h8.7l-5.8,29.9c-.2,1-.4,2.2-.7,3.5-.2,1.4-.5,2.9-.7,4.6h-8.3c0-.2,0-.7.2-1.5.1-.9.2-1.8.4-2.8.1-1,.3-1.7.3-2.2h0ZM774,401.9h0c-2.6,0-4.6-.7-6.1-2-1.4-1.3-2.2-3.1-2.2-5.5h0c0-1.6.2-3.3.6-5.2h0l3.9-20h-4.9l1.2-6h5.3l4.5-8.8h5.5l-1.7,8.8h7.1l-1.1,6h-7.2l-3.9,20.1c-.3,1.4-.4,2.4-.4,3.2h0c0,1.1.3,1.8.8,2.4.5.5,1.3.8,2.3.8h0c.8,0,2.1-.2,3.7-.5h0l-1,5.8c-2,.6-4.2.8-6.4.8ZM795.9,349.1h8.7l-1.4,6.9h-8.7l1.3-6.9ZM793.2,363.2h8.7l-7.4,38h-8.7l7.4-38ZM843.6,377.3h0c0,2.6-.3,5.2-.9,7.8-.6,2.5-1.5,4.8-2.8,6.8h0c-1.9,3.3-4.4,5.8-7.6,7.5-3.2,1.7-6.8,2.6-10.8,2.6h0c-4.9,0-8.8-1.4-11.7-4.1-2.9-2.8-4.3-6.5-4.3-11.3h0c0-4.8,1-9,2.7-12.6h0c1.8-3.7,4.3-6.5,7.6-8.4,3.3-2,7.1-3,11.4-3h0c5.3,0,9.4,1.3,12.2,3.9,2.8,2.6,4.2,6.2,4.2,10.8ZM834.6,377.8h0c0-6.1-2.6-9.1-7.8-9.1h0c-2.8,0-5.1.7-6.8,2.2h0c-1.1,1-2.1,2.3-2.9,4-.8,1.7-1.4,3.6-1.9,5.6-.4,2-.6,4-.6,5.8h0c0,3.2.7,5.6,2,7.2,1.3,1.6,3.2,2.4,5.8,2.4h0c1.7,0,3.1-.3,4.3-.8,1.2-.5,2.2-1.3,3.1-2.3h0c1.4-1.5,2.5-3.5,3.3-6.2.8-2.7,1.3-5.7,1.4-9ZM860.1,380h0l-4.2,21.3h-8.7l5.8-29.9c.2-1,.4-2.1.6-3.5.2-1.4.5-2.9.7-4.6h8.3c0,.1,0,.7-.2,1.5-.1.9-.2,1.8-.4,2.8-.1,1-.3,1.7-.3,2.2h0c1.8-2.5,3.8-4.4,5.8-5.5,2.1-1.1,4.4-1.7,7.2-1.7h0c3.5,0,6.2.9,8,2.6,1.8,1.7,2.7,4.2,2.7,7.4h0c0,.6,0,1.5-.2,2.7-.1,1.2-.3,2.2-.5,3.1h0l-4.5,23h-8.7l4.2-21.5c.5-2.7.8-4.5.8-5.6h0c0-3.3-1.9-5-5.7-5h0c-1.7,0-3.3.5-4.9,1.4-1.5.9-2.8,2.2-3.9,3.8-1.1,1.6-1.8,3.5-2.2,5.6ZM922.7,389.7h0c0,4-1.5,7-4.5,9.1-3,2.1-7.3,3.1-13,3.1h0c-4.5,0-8.1-.8-10.7-2.3-2.6-1.6-4.4-4-5.4-7.3h0l7.6-1.5c.6,1.9,1.6,3.2,3,4,1.4.8,3.4,1.2,6.1,1.2h0c5.7,0,8.6-1.8,8.6-5.4h0c0-1.3-.5-2.3-1.6-3.1h0c-1.1-.7-3.3-1.5-6.8-2.4h0c-2.9-.8-5.2-1.6-6.9-2.5h0c-1.9-1-3.2-2.3-4.1-3.7-.9-1.4-1.3-3.1-1.3-5h0c0-3.6,1.4-6.4,4.3-8.4,2.9-1.9,6.9-2.9,12.2-2.9h0c4.6,0,8.1.8,10.5,2.4,2.4,1.6,3.8,4,4.3,7.3h0l-7.8,1c-.4-1.7-1.3-2.9-2.5-3.7-1.2-.7-2.9-1.1-5.1-1.1h0c-2.6,0-4.5.4-5.8,1.2-1.3.8-2,1.9-2,3.4h0c0,.8.2,1.6.7,2.1.5.6,1.2,1.1,2.1,1.5h0c.9.4,3,1.1,6.3,1.9h0c3.1.8,5.6,1.7,7.2,2.8h0c1.5,1,2.6,2.2,3.3,3.5.7,1.3,1.1,2.9,1.1,4.7Z"/>
</svg>